<?xml version="1.0" encoding="utf-8"?>
<!-- Generator: Adobe Illustrator 19.0.0, SVG Export Plug-In . SVG Version: 6.00 Build 0)  -->
<svg version="1.1" id="Layer_1" xmlns="http://www.w3.org/2000/svg" xmlns:xlink="http://www.w3.org/1999/xlink" x="0px" y="0px"
	 viewBox="19 -311 650 1415" style="enable-background:new 19 -311 650 1415;" xml:space="preserve">
<style type="text/css">
	.st0{fill:#FFFFFF;stroke:#000000;stroke-width:4;stroke-miterlimit:10;}
	.st1{fill:none;stroke:#000000;stroke-miterlimit:10;}
	.st2{fill:#31C5F4;stroke:#000000;stroke-width:4;stroke-miterlimit:10;}
	.st3{fill:#FFFFFF;stroke:#000000;stroke-width:2;stroke-miterlimit:10;}
	.st4{fill:#FFFFFF;stroke:#000000;stroke-width:6;stroke-miterlimit:10;}
</style>
<path class="st0" d="M601.6,707.1H85.3c-12.7,0-23-10.3-23-23V174c0-12.7,10.3-23,23-23h516.3c12.7,0,23,10.3,23,23v510.1
	C624.6,696.8,614.3,707.1,601.6,707.1z"/>
<path class="st0" d="M519.2,641H169.8c-19.2,0-34.8-15.6-34.8-34.8V251.8c0-19.2,15.6-34.8,34.8-34.8h349.4
	c19.2,0,34.8,15.6,34.8,34.8v354.4C554,625.4,538.4,641,519.2,641z"/>
<path class="st1" d="M98,151"/>
<path class="st1" d="M97,151"/>
<path class="st1" d="M209,107"/>
<path class="st1" d="M98,151"/>
<path class="st1" d="M70.8,111"/>
<path class="st1" d="M63,169"/>
<path class="st1" d="M554,641"/>
<path class="st1" d="M135,217"/>
<path class="st2" d="M359.9,202.3h-32.8c-1.9,0-3.4-1.5-3.4-3.4v-12c0-1.9,1.5-3.4,3.4-3.4h32.8c1.9,0,3.4,1.5,3.4,3.4v12
	C363.3,200.8,361.8,202.3,359.9,202.3z"/>
<path class="st3" d="M403.5,593h-120c-13.5,0-24.5-11-24.5-24.5v-282c0-13.5,11-24.5,24.5-24.5h120c13.5,0,24.5,11,24.5,24.5v282
	C428,582,417,593,403.5,593z"/>
<path class="st4" d="M381.9,403.9h-75.8c-5.2,0-9.4-4.2-9.4-9.4v-85.7c0-5.2,4.2-9.4,9.4-9.4h75.8c5.2,0,9.4,4.2,9.4,9.4v85.7
	C391.3,399.7,387.1,403.9,381.9,403.9z"/>
<path class="st4" d="M381,558.8h-74.1c-5.7,0-10.2-4.6-10.2-10.2v-84c0-5.7,4.6-10.2,10.2-10.2H381c5.7,0,10.2,4.6,10.2,10.2v84
	C391.3,554.3,386.7,558.8,381,558.8z"/>
</svg>
