<?xml version="1.0" encoding="utf-8"?>
<!-- Generator: Adobe Illustrator 19.0.0, SVG Export Plug-In . SVG Version: 6.00 Build 0)  -->
<svg version="1.1" id="Layer_1" xmlns="http://www.w3.org/2000/svg" xmlns:xlink="http://www.w3.org/1999/xlink" x="0px" y="0px"
	 viewBox="-298.3 361.1 50.7 60.9" style="enable-background:new -298.3 361.1 50.7 60.9;" xml:space="preserve">
<path d="M-273,366.4c0.6,0,1.1-0.5,1.1-1.1v-3.2c0-0.6-0.5-1.1-1.1-1.1c-0.6,0-1.1,0.5-1.1,1.1v3.2
	C-274.1,366-273.6,366.4-273,366.4L-273,366.4z"/>
<path d="M-284.4,368.7c0.2,0.3,0.6,0.5,0.9,0.5c0.2,0,0.4,0,0.5-0.1c0.5-0.3,0.7-1,0.4-1.5l-1.6-2.8c-0.3-0.5-1-0.7-1.5-0.4
	c-0.5,0.3-0.7,1-0.4,1.5L-284.4,368.7z"/>
<path d="M-290.7,374.9l-2.8-1.6c-0.5-0.3-1.2-0.1-1.5,0.4c-0.3,0.5-0.1,1.2,0.4,1.5l2.8,1.6c0.2,0.1,0.4,0.1,0.5,0.1
	c0.4,0,0.7-0.2,0.9-0.5C-290,375.9-290.1,375.2-290.7,374.9L-290.7,374.9z"/>
<path d="M-292.9,386.4c0-0.6-0.5-1.1-1.1-1.1h-3.2c-0.6,0-1.1,0.5-1.1,1.1c0,0.6,0.5,1.1,1.1,1.1h3.2
	C-293.4,387.5-292.9,387-292.9,386.4L-292.9,386.4z"/>
<path d="M-291.7,396l-2.8,1.6c-0.5,0.3-0.7,1-0.4,1.5c0.2,0.3,0.6,0.5,0.9,0.5c0.2,0,0.4,0,0.5-0.1l2.8-1.6c0.5-0.3,0.7-1,0.4-1.5
	C-290.6,395.8-291.2,395.7-291.7,396L-291.7,396z"/>
<path d="M-251.5,397.6l-2.8-1.6c-0.5-0.3-1.2-0.1-1.5,0.4c-0.3,0.5-0.1,1.2,0.4,1.5l2.8,1.6c0.2,0.1,0.4,0.1,0.5,0.1
	c0.4,0,0.7-0.2,0.9-0.5C-250.8,398.5-250.9,397.9-251.5,397.6L-251.5,397.6z"/>
<path d="M-248.7,385.3h-3.2c-0.6,0-1.1,0.5-1.1,1.1c0,0.6,0.5,1.1,1.1,1.1h3.2c0.6,0,1.1-0.5,1.1-1.1
	C-247.7,385.8-248.1,385.3-248.7,385.3L-248.7,385.3z"/>
<path d="M-254.8,377c0.2,0,0.4,0,0.5-0.1l2.8-1.6c0.5-0.3,0.7-1,0.4-1.5c-0.3-0.5-1-0.7-1.5-0.4l-2.8,1.6c-0.5,0.3-0.7,1-0.4,1.5
	C-255.5,376.8-255.2,377-254.8,377L-254.8,377z"/>
<path d="M-263,369.1c0.2,0.1,0.4,0.1,0.5,0.1c0.4,0,0.7-0.2,0.9-0.5l1.6-2.8c0.3-0.5,0.1-1.2-0.4-1.5c-0.5-0.3-1.2-0.1-1.5,0.4
	l-1.6,2.8C-263.7,368.2-263.5,368.8-263,369.1L-263,369.1z"/>
<path d="M-274.3,391.5"/>
</svg>
