<?xml version="1.0" encoding="utf-8"?>
<!-- Generator: Adobe Illustrator 16.0.3, SVG Export Plug-In . SVG Version: 6.00 Build 0)  -->
<!DOCTYPE svg PUBLIC "-//W3C//DTD SVG 1.1//EN" "http://www.w3.org/Graphics/SVG/1.1/DTD/svg11.dtd">
<svg version="1.1" id="Layer_1" xmlns="http://www.w3.org/2000/svg" xmlns:xlink="http://www.w3.org/1999/xlink" x="0px" y="0px"
	 width="89px" height="89px" viewBox="0 0 89 89" enable-background="new 0 0 89 89" xml:space="preserve">
<path fill="none" stroke="#000000" stroke-width="1.25" stroke-miterlimit="10" d="M87.75,84.834c0,1.656-1.344,3-3,3H4.25
	c-1.657,0-3-1.344-3-3V4.166c0-1.657,1.343-3,3-3h80.5c1.656,0,3,1.343,3,3V84.834z"/>
<path fill="none" stroke="#000000" stroke-width="0.75" stroke-miterlimit="10" d="M43.333,49.5c0,0.553-0.448,1-1,1H16
	c-0.552,0-1-0.447-1-1V15.833c0-0.552,0.448-1,1-1h26.333c0.552,0,1,0.448,1,1V49.5z"/>
<path fill="none" stroke="#000000" stroke-width="0.75" stroke-miterlimit="10" d="M74.666,49.5c0,0.553-0.447,1-1,1H47.333
	c-0.552,0-1-0.447-1-1V15.834c0-0.552,0.448-1,1-1h26.333c0.553,0,1,0.448,1,1V49.5z"/>
<path fill="none" stroke="#000000" stroke-width="0.75" stroke-miterlimit="10" d="M28.167,73.167c0,0.553-0.448,1-1,1H16
	c-0.552,0-1-0.447-1-1V53.584c0-0.553,0.448-1,1-1h11.167c0.552,0,1,0.447,1,1V73.167z"/>
<path fill="none" stroke="#000000" stroke-width="0.75" stroke-miterlimit="10" d="M43.333,73.167c0,0.553-0.448,1-1,1H31.167
	c-0.552,0-1-0.447-1-1V53.584c0-0.553,0.448-1,1-1h11.167c0.552,0,1,0.447,1,1V73.167z"/>
<path fill="none" stroke="#000000" stroke-width="0.75" stroke-miterlimit="10" d="M59.5,73.167c0,0.553-0.447,1-1,1H47.333
	c-0.552,0-1-0.447-1-1V53.584c0-0.553,0.448-1,1-1H58.5c0.553,0,1,0.447,1,1V73.167z"/>
<path fill="none" stroke="#000000" stroke-width="0.75" stroke-miterlimit="10" d="M74.666,73.167c0,0.553-0.447,1-1,1H62.499
	c-0.552,0-1-0.447-1-1V53.584c0-0.553,0.448-1,1-1h11.167c0.553,0,1,0.447,1,1V73.167z"/>
<rect x="12.75" y="12.375" fill="none" stroke="#000000" stroke-width="0.5" stroke-miterlimit="10" width="63.875" height="64.125"/>
<path fill="none" stroke="#000000" stroke-width="0.5" stroke-miterlimit="10" d="M47.75,9.25c0,0.552-0.447,1-1,1H43
	c-0.552,0-1-0.448-1-1V8.625c0-0.552,0.448-1,1-1h3.75c0.553,0,1,0.448,1,1V9.25z"/>
<circle fill="none" stroke="#000000" stroke-width="0.5" stroke-miterlimit="10" cx="29.375" cy="45.313" r="2.688"/>
<circle fill="none" stroke="#000000" stroke-width="0.5" stroke-miterlimit="10" cx="37.102" cy="69.32" r="0.617"/>
<circle fill="none" stroke="#000000" stroke-width="0.5" stroke-miterlimit="10" cx="51.453" cy="69.32" r="0.617"/>
<circle fill="none" stroke="#000000" stroke-width="0.5" stroke-miterlimit="10" cx="53.35" cy="69.32" r="0.617"/>
<circle fill="none" stroke="#000000" stroke-width="0.5" stroke-miterlimit="10" cx="65.96" cy="69.32" r="0.617"/>
<circle fill="none" stroke="#000000" stroke-width="0.5" stroke-miterlimit="10" cx="67.853" cy="69.32" r="0.617"/>
<circle fill="none" stroke="#000000" stroke-width="0.5" stroke-miterlimit="10" cx="69.764" cy="69.32" r="0.617"/>
<rect x="59.672" y="42.797" stroke="#000000" stroke-width="0.5" stroke-miterlimit="10" width="1.297" height="4.891"/>
<circle fill="none" stroke="#000000" stroke-width="0.5" stroke-miterlimit="10" cx="21.867" cy="69.242" r="2.055"/>
<rect x="21.438" y="65.938" stroke="#FFFFFF" stroke-width="0.25" stroke-miterlimit="10" width="0.859" height="3.5"/>
</svg>
