<?xml version="1.0" encoding="utf-8"?>
<!-- Generator: Adobe Illustrator 19.0.0, SVG Export Plug-In . SVG Version: 6.00 Build 0)  -->
<svg version="1.1" id="Layer_1" xmlns="http://www.w3.org/2000/svg" xmlns:xlink="http://www.w3.org/1999/xlink" x="0px" y="0px"
	 viewBox="-5 6 89 89" style="enable-background:new -5 6 89 89;" xml:space="preserve">
<style type="text/css">
	.st0{fill:none;stroke:#000000;stroke-width:2;stroke-miterlimit:10;}
	.st1{fill:none;stroke:#000000;stroke-width:0.5;stroke-miterlimit:10;}
	.st2{stroke:#000000;stroke-width:0.5;stroke-miterlimit:10;}
	.st3{stroke:#FFFFFF;stroke-width:0.25;stroke-miterlimit:10;}
</style>
<path class="st0" d="M82.8,90.8c0,1.7-1.3,3-3,3H-0.8c-1.7,0-3-1.3-3-3V10.2c0-1.7,1.3-3,3-3h80.5c1.7,0,3,1.3,3,3V90.8z"/>
<path class="st0" d="M37.4,54.9c0,0.5-0.4,1-0.9,1H11.9c-0.5,0-0.9-0.4-0.9-1V22.6c0-0.5,0.4-1,0.9-1h24.5c0.5,0,0.9,0.4,0.9,1V54.9
	z"/>
<path class="st0" d="M68.2,54.9c0,0.5-0.4,1-0.9,1h-25c-0.5,0-0.9-0.4-0.9-1V22.6c0-0.5,0.4-1,0.9-1h25c0.5,0,0.9,0.4,0.9,1V54.9z"
	/>
<path class="st0" d="M23.2,79.2c0,0.6-0.4,1-0.9,1H11.9c-0.5,0-0.9-0.4-0.9-1V59.6c0-0.6,0.4-1,0.9-1h10.3c0.5,0,0.9,0.4,0.9,1V79.2
	z"/>
<path class="st0" d="M37.4,79.2c0,0.6-0.4,1-0.9,1H27c-0.5,0-0.9-0.4-0.9-1V59.6c0-0.6,0.4-1,0.9-1h9.6c0.5,0,0.9,0.4,0.9,1
	L37.4,79.2L37.4,79.2z"/>
<path class="st0" d="M53.4,79.2c0,0.6-0.4,1-0.9,1h-9.6c-0.5,0-0.9-0.4-0.9-1V59.6c0-0.6,0.4-1,0.9-1h9.6c0.5,0,0.9,0.4,0.9,1V79.2z
	"/>
<path class="st0" d="M68.2,79.2c0,0.6-0.4,1-0.8,1h-9.1c-0.4,0-0.8-0.4-0.8-1V59.6c0-0.6,0.4-1,0.8-1h9.1c0.4,0,0.8,0.4,0.8,1V79.2z
	"/>
<rect x="7" y="17.9" class="st0" width="66.3" height="65.9"/>
<path class="st1" d="M42.8,15.2c0,0.6-0.4,1-1,1H38c-0.6,0-1-0.4-1-1v-0.6c0-0.6,0.4-1,1-1h3.8c0.6,0,1,0.4,1,1V15.2z"/>
<circle class="st1" cx="24.4" cy="48.8" r="2.7"/>
<circle class="st1" cx="32.1" cy="75.3" r="0.6"/>
<circle class="st1" cx="46.5" cy="75.3" r="0.6"/>
<circle class="st1" cx="48.3" cy="75.3" r="0.6"/>
<circle class="st1" cx="61" cy="75.3" r="0.6"/>
<circle class="st1" cx="62.9" cy="75.3" r="0.6"/>
<circle class="st1" cx="64.8" cy="75.3" r="0.6"/>
<rect x="54.1" y="46.6" class="st2" width="1.3" height="4.9"/>
<circle class="st1" cx="16.9" cy="75.2" r="2.1"/>
<rect x="16.4" y="71.9" class="st3" width="0.9" height="3.5"/>
</svg>
