<?xml version="1.0" encoding="utf-8"?>
<!-- Generator: Adobe Illustrator 16.0.0, SVG Export Plug-In . SVG Version: 6.00 Build 0)  -->
<!DOCTYPE svg PUBLIC "-//W3C//DTD SVG 1.1//EN" "http://www.w3.org/Graphics/SVG/1.1/DTD/svg11.dtd">
<svg version="1.1" id="Layer_1" xmlns="http://www.w3.org/2000/svg" xmlns:xlink="http://www.w3.org/1999/xlink" x="0px" y="0px"
	 width="175.156px" height="175.156px" viewBox="-0.854 -0.854 175.156 175.156"
	 enable-background="new -0.854 -0.854 175.156 175.156" xml:space="preserve">
<path fill="none" stroke="#000000" stroke-width="5" stroke-miterlimit="10" d="M166.13,1.701H7.351c-3.121,0-5.65,2.534-5.65,5.661
	v158.757c0,3.125,2.529,5.66,5.65,5.66h158.779c3.12,0,5.649-2.535,5.649-5.66V7.362C171.78,4.235,169.25,1.701,166.13,1.701z"/>
<path d="M84.157,13.116h5.167c1.634,0,2.958,1.325,2.958,2.958s-1.324,2.958-2.958,2.958h-5.167c-1.634,0-2.958-1.324-2.958-2.958
	S82.523,13.116,84.157,13.116z"/>
<path fill="none" stroke="#000000" stroke-width="2" stroke-miterlimit="10" d="M151.229,149.786c0,1.096-0.89,1.984-1.984,1.984
	H24.236c-1.096,0-1.984-0.89-1.984-1.984V24.778c0-1.096,0.89-1.984,1.984-1.984h125.008c1.096,0,1.984,0.89,1.984,1.984
	L151.229,149.786L151.229,149.786z"/>
<path d="M80.155,27.532H31.159c-2.348,0-4.252,1.904-4.252,4.252V95.78c0,2.349,1.904,4.252,4.252,4.252h48.996
	c2.348,0,4.252-1.903,4.252-4.252V31.784C84.407,29.436,82.503,27.532,80.155,27.532z M55.657,93.349c-2.27,0-4.11-1.843-4.11-4.111
	s1.841-4.11,4.11-4.11s4.11,1.841,4.11,4.11S57.927,93.349,55.657,93.349z"/>
<path d="M142.905,27.532H93.909c-2.348,0-4.252,1.904-4.252,4.252V95.78c0,2.349,1.904,4.252,4.252,4.252h48.996
	c2.348,0,4.252-1.903,4.252-4.252V31.784C147.157,29.436,145.252,27.532,142.905,27.532z M119.657,93.824h-2v-9.625h2V93.824z"/>
<path d="M82.139,103.449H59.174c-1.252,0-2.268,1.016-2.268,2.268v40.216c0,1.252,1.015,2.268,2.268,2.268h22.966
	c1.252,0,2.268-1.016,2.268-2.268v-40.216C84.407,104.465,83.391,103.449,82.139,103.449z M67.511,139.49
	c-0.795,0-1.438-0.644-1.438-1.438c0-0.795,0.644-1.438,1.438-1.438c0.794,0,1.438,0.644,1.438,1.438
	C68.949,138.846,68.305,139.49,67.511,139.49z M71.323,139.49c-0.794,0-1.438-0.644-1.438-1.438c0-0.795,0.645-1.438,1.438-1.438
	s1.438,0.644,1.438,1.438C72.761,138.846,72.117,139.49,71.323,139.49z M75.24,139.49c-0.794,0-1.438-0.644-1.438-1.438
	c0-0.795,0.645-1.438,1.438-1.438s1.438,0.644,1.438,1.438C76.678,138.846,76.034,139.49,75.24,139.49z"/>
<path d="M114.889,103.449H91.924c-1.252,0-2.268,1.016-2.268,2.268v40.216c0,1.252,1.016,2.268,2.268,2.268h22.966
	c1.252,0,2.268-1.016,2.268-2.268v-40.216C117.157,104.465,116.141,103.449,114.889,103.449z M100.449,139.49
	c-0.794,0-1.438-0.644-1.438-1.438c0-0.795,0.644-1.438,1.438-1.438s1.438,0.644,1.438,1.438
	C101.887,138.846,101.243,139.49,100.449,139.49z M104.408,139.49c-0.794,0-1.438-0.644-1.438-1.438
	c0-0.795,0.644-1.438,1.438-1.438s1.438,0.644,1.438,1.438C105.846,138.846,105.202,139.49,104.408,139.49z"/>
<path d="M144.889,103.449h-22.966c-1.252,0-2.268,1.016-2.268,2.268v40.216c0,1.252,1.016,2.268,2.268,2.268h22.966
	c1.252,0,2.268-1.016,2.268-2.268v-40.216C147.157,104.465,146.141,103.449,144.889,103.449z M133.741,139.49
	c-0.794,0-1.438-0.644-1.438-1.438c0-0.795,0.644-1.438,1.438-1.438s1.438,0.644,1.438,1.438
	C135.179,138.846,134.535,139.49,133.741,139.49z"/>
<path d="M52.139,103.449H29.174c-1.252,0-2.268,1.016-2.268,2.268v40.216c0,1.252,1.015,2.268,2.268,2.268h22.966
	c1.252,0,2.268-1.016,2.268-2.268v-40.216C54.407,104.465,53.391,103.449,52.139,103.449z M40.657,141.596
	c-1.957,0-3.543-1.586-3.543-3.543c0-1.758,1.283-3.205,2.96-3.484v-2.286h1.167v2.286c1.677,0.28,2.96,1.728,2.96,3.484
	C44.2,140.01,42.613,141.596,40.657,141.596z"/>
</svg>
