<?xml version="1.0" encoding="utf-8"?>
<!-- Generator: Adobe Illustrator 17.0.0, SVG Export Plug-In . SVG Version: 6.00 Build 0)  -->
<!DOCTYPE svg PUBLIC "-//W3C//DTD SVG 1.1//EN" "http://www.w3.org/Graphics/SVG/1.1/DTD/svg11.dtd">
<svg version="1.1" id="Layer_1" xmlns="http://www.w3.org/2000/svg" xmlns:xlink="http://www.w3.org/1999/xlink" x="0px" y="0px"
	 width="249.13px" height="358.353px" viewBox="0 0 249.13 358.353" enable-background="new 0 0 249.13 358.353"
	 xml:space="preserve">
<path d="M122.743,89.716c0.422,0.196,0.812,0.44,1.165,0.729c-0.025-0.16-0.056-0.316-0.093-0.471
	c-0.202-0.848-0.575-1.614-1.089-2.256c-0.522-0.652-1.191-1.181-1.971-1.543c-0.753-0.349-1.616-0.543-2.558-0.543
	c-0.958,0-1.895,0.199-2.767,0.557c-0.92,0.378-1.776,0.933-2.514,1.618c-0.73,0.677-1.342,1.477-1.792,2.354
	c-0.434,0.845-0.721,1.765-0.822,2.719c-0.098,0.922-0.011,1.794,0.226,2.582c0.244,0.81,0.649,1.529,1.177,2.121
	c0.442,0.495,0.978,0.909,1.588,1.22c-0.057-0.146-0.109-0.294-0.155-0.446v-0.003c-0.229-0.76-0.313-1.599-0.219-2.484
	c0.094-0.891,0.361-1.748,0.764-2.532c0.415-0.808,0.973-1.54,1.633-2.153c0.674-0.625,1.458-1.134,2.306-1.481
	c0.826-0.339,1.71-0.527,2.608-0.527C121.146,89.176,121.994,89.369,122.743,89.716 M118.197,83.94c1.19,0,2.293,0.251,3.266,0.702
	c1.021,0.473,1.896,1.165,2.579,2.019c0.674,0.842,1.162,1.835,1.42,2.925c0.234,0.982,0.283,2.047,0.12,3.151l0.003,0.007
	l-0.044,0.249c-0.021,0.123-0.046,0.245-0.073,0.367h0l-0.035,0.156l-0.001,0.002c-0.033,0.139-0.069,0.277-0.109,0.415
	l-0.013,0.046l-0.002,0.005c-0.039,0.134-0.081,0.267-0.126,0.399l-0.003,0.008c-0.035,0.101-0.071,0.201-0.108,0.301l-0.015,0.039
	l-0.004,0.011l-0.073,0.185l-0.005,0.012l-0.015,0.036l-0.005,0.013l-0.015,0.035l-0.006,0.013l-0.015,0.035l-0.006,0.014
	l-0.015,0.035l-0.049,0.111l-0.015,0.033l-0.007,0.015l-0.022,0.048l-0.015,0.033l-0.007,0.016l-0.015,0.032l-0.008,0.016
	l-0.015,0.031l-0.008,0.017l-0.015,0.031l-0.008,0.017l-0.014,0.03l-0.009,0.017l-0.048,0.094l-0.015,0.029l-0.009,0.018
	l-0.015,0.028l-0.01,0.019l-0.015,0.027l-0.01,0.019l-0.015,0.027l-0.01,0.019l-0.014,0.027l-0.011,0.02l-0.014,0.026l-0.011,0.02
	l-0.014,0.026l-0.012,0.021l-0.014,0.025l-0.012,0.02l-0.014,0.025l-0.012,0.021l-0.014,0.024l-0.013,0.021l-0.014,0.024
	l-0.014,0.023l-0.056,0.094l-0.013,0.023l-0.015,0.024l-0.014,0.022l-0.015,0.024l-0.014,0.022l-0.015,0.025l-0.014,0.022
	l-0.016,0.025l-0.013,0.021l-0.016,0.025l-0.013,0.02l-0.016,0.026l-0.013,0.02l-0.017,0.026l-0.013,0.02l-0.017,0.026l-0.013,0.019
	l-0.018,0.026l-0.031,0.045l-0.013,0.019l-0.018,0.027l-0.012,0.018l-0.018,0.027l-0.013,0.018l-0.019,0.027l-0.012,0.017
	l-0.019,0.027l-0.012,0.017l-0.02,0.028l-0.012,0.016l-0.02,0.028l-0.012,0.016l-0.02,0.028l-0.012,0.016l-0.021,0.028l-0.011,0.016
	l-0.022,0.028l-0.011,0.015l-0.022,0.028l-0.011,0.014l-0.022,0.029l-0.011,0.014l-0.023,0.029l-0.01,0.014l-0.023,0.029
	l-0.011,0.013l-0.023,0.03l-0.011,0.013l-0.023,0.03l-0.01,0.013l-0.024,0.03l-0.01,0.012l-0.024,0.03l-0.01,0.012l-0.025,0.03
	l-0.009,0.011l-0.026,0.031l-0.009,0.011l-0.026,0.031l-0.009,0.011l-0.026,0.031l-0.009,0.01l-0.027,0.031l-0.008,0.01
	l-0.027,0.031l-0.008,0.009l-0.028,0.031l-0.008,0.009l-0.028,0.031l-0.008,0.009l-0.028,0.032l-0.008,0.008l-0.029,0.032
	l-0.007,0.008l-0.029,0.032l-0.007,0.008l-0.03,0.032l-0.007,0.007l-0.03,0.032l-0.006,0.007l-0.031,0.032l-0.006,0.007
	l-0.031,0.033l-0.006,0.006l-0.032,0.033l-0.006,0.006l-0.032,0.033l-0.005,0.006l-0.033,0.033l-0.005,0.005l-0.033,0.033
	l-0.005,0.005l-0.034,0.033l-0.004,0.005l-0.034,0.034l-0.004,0.004l-0.035,0.034l-0.004,0.004l-0.035,0.034l-0.003,0.003
	l-0.035,0.034l-0.003,0.003l-0.036,0.034l-0.003,0.003l-0.037,0.034l-0.003,0.003l-0.037,0.034l-0.002,0.002l-0.038,0.034
	l-0.002,0.002l-0.038,0.035l-0.002,0.002l-0.039,0.034l-0.001,0.001l-0.039,0.034l-0.001,0.001l-0.04,0.035l-0.001,0l-0.04,0.035
	l0,0l-0.04,0.035c-0.862,0.737-1.845,1.33-2.897,1.736h-0.003c-1.027,0.396-2.116,0.613-3.215,0.613h-0.005h-0.005h-0.006h-0.005
	h-0.006h-0.006h-0.006l-0.017,0h-0.006h-0.006l-0.012,0h-0.006c-0.324-0.003-0.641-0.025-0.951-0.064l-0.104-0.011l-0.004-0.004
	c-0.691-0.097-1.344-0.282-1.951-0.543c-0.97-0.418-1.819-1.035-2.507-1.805c-0.697-0.78-1.226-1.718-1.542-2.763
	c-0.299-0.991-0.407-2.084-0.285-3.237c0.123-1.166,0.472-2.287,1-3.314c0.544-1.059,1.275-2.018,2.142-2.823
	c0.884-0.82,1.912-1.486,3.023-1.943C115.868,84.186,117.023,83.94,118.197,83.94z"/>
<path d="M127.921,332.982c-8.073,0.649-25.626-0.51-44.776-2.322c-28.256-2.674-60.024-6.769-69.88-8.563
	c1.2,1.294,2.55,2.57,4.074,3.814c5.919,4.834,11.795,9.295,17.497,12.924c5.678,3.613,11.188,6.404,16.402,7.917
	c9.059,2.629,81.875,8.303,101.696,9.812c-1.878-1.228-4.094-3.005-6.432-5.057C139.421,345.287,131.073,336.492,127.921,332.982
	 M128.512,331.511c0.206-0.021,0.406-0.044,0.596-0.068l0.109,0.863c3.304,3.654,11.369,12.125,18.216,18.138
	c3.736,3.281,7.064,5.818,8.934,6.38l1.173,0.088c1.886-0.159,3.798-0.831,5.565-1.752c2.42-1.261,4.55-2.976,5.989-4.496
	c5.311-5.612,9.947-13.058,12.822-21.207c2.571-7.289,3.728-15.132,2.688-22.712c-1.795-13.077-23.084-24.347-30.255-28.143
	l-0.628-0.332h-0.003c-3.174-1.686-5.688-2.479-8.223-2.608c-2.472-0.126-4.572,0.808-7.782,1.721
	c-0.551,1.288-1.736,2.581-2.496,4.34c-4.885,11.298-10.384,24.013-10.514,29.72l-0.015,0.662v0.003
	C124.536,318.515,124.348,326.554,128.512,331.511z M11.744,320.354c6.866,1.527,41.216,6.03,71.533,8.9
	c18.348,1.736,35.201,2.874,43.544,2.39c-3.88-5.365-3.695-13.235-3.547-19.568l0.015-0.659c0.014-0.632,0.09-1.341,0.218-2.116
	c-13.758,0.09-40.963-1.855-66.54-4.538c-22.829-2.395-44.379-5.379-53.956-8.033c0.034,0.47,0.08,0.918,0.139,1.342l0.007,0.052
	C3.949,303.779,5.137,312.281,11.744,320.354z M236.9,10.552c-0.43-0.277-0.888-0.482-1.368-0.619
	c-2.243-0.643-4.966,0.192-7.67,1.976c-2.793,1.842-5.544,4.683-7.746,7.97c-1.695,2.53-3.059,5.321-3.862,8.12
	c-0.678,2.364-2.312,7.732-4.532,15.029c-8.492,27.901-25.66,84.309-32.775,115.946c-0.034,0.151-0.617,2.349-1.2,4.548
	l-0.335,1.262c12.939,13.311,25.701,26.955,27.463,30.807c1.899,3.632,3.594,7.881,5.02,12.545
	c3.749-14.477,13.566-54.322,22.096-89.672c7.126-29.531,13.355-55.927,14.403-61.782l-0.003-0.001
	c1.186-6.634,1.456-12.512,1.277-17.515c-0.18-5.001-0.81-9.144-1.424-12.295c-0.482-2.476-1.983-5.539-3.767-8.476
	C240.65,15.389,238.536,12.53,236.9,10.552z M129.104,127.088c-9.795-3.557-20.828-5.06-32.663-4.078
	c-11.811,0.98-23.264,4.311-33.89,9.477c-11.109,5.401-21.315,12.81-30.085,21.637c-8.618,8.674-15.825,18.725-21.12,29.61
	c-5.119,10.522-8.451,21.822-9.545,33.408c-1.075,11.4,0.112,22.064,3.177,31.619c3.188,9.942,8.409,18.683,15.226,25.807
	l0.001-0.001c6.78,7.084,15.193,12.614,24.835,16.157c9.293,3.415,19.728,4.986,30.941,4.327c11.315-0.665,22.435-3.54,32.876-8.197
	c10.817-4.825,20.905-11.561,29.727-19.735c8.971-8.312,16.678-18.134,22.521-28.953c5.589-10.346,9.469-21.602,11.116-33.316
	c1.673-11.883,0.887-23.103-1.972-33.211c-2.962-10.472-8.151-19.754-15.139-27.344
	C148.093,136.674,139.261,130.776,129.104,127.088z M25.359,281.221c6.556,5.647,14.231,10.102,22.764,13.107
	c9.682,3.411,20.471,4.957,31.985,4.265c11.486-0.69,22.718-3.556,33.225-8.169c8.266-3.629,16.082-8.34,23.22-13.926l0.123-0.287
	l0.322-0.093l0.06-0.018c2.093-1.658,4.127-3.391,6.096-5.194c8.928-8.179,16.592-17.876,22.404-28.59
	c5.562-10.253,9.423-21.433,11.064-33.097c1.679-11.932,0.887-23.278-2.002-33.577c-2.389-8.515-6.212-16.315-11.259-23.14
	l-0.411-0.415c3.769,5.784,6.697,12.221,8.662,19.171c2.911,10.291,3.712,21.706,2.011,33.787
	c-1.671,11.887-5.606,23.303-11.272,33.792c-5.914,10.95-13.72,20.897-22.809,29.318c-8.937,8.281-19.155,15.104-30.109,19.99
	c-10.596,4.727-21.883,7.644-33.37,8.319c-11.415,0.67-22.042-0.931-31.511-4.41C37.451,289.444,31.002,285.778,25.359,281.221z
	 M134.758,279.633c-6.497,4.781-13.503,8.857-20.86,12.088c-10.656,4.678-22.051,7.584-33.707,8.285
	c-11.708,0.703-22.684-0.871-32.538-4.342c-10.226-3.602-19.247-9.249-26.631-16.515c-3.006-2.959-3.721-5.483-6.116-8.545
	c-2.102-2.685-4.008-5.547-5.701-8.569c-1.687,5.97-4.688,18.036-5.475,23.376c-0.532,3.606-0.833,7.014-0.781,9.83
	c9.253,2.663,31.04,5.69,54.164,8.116c25.719,2.697,53.066,4.648,66.671,4.53c1.48-6.702,6.023-17.209,10.137-26.721
	C134.157,280.616,134.446,280.125,134.758,279.633z M168.499,157.702c3.203,5.409,5.724,11.296,7.482,17.56
	c2.941,10.483,3.748,22.024,2.041,34.153c-1.667,11.843-5.582,23.185-11.22,33.578c-5.882,10.843-13.646,20.664-22.697,28.956
	c-1.144,1.049-2.311,2.074-3.498,3.074c1.744-0.514,3.272-0.858,4.959-0.772c2.758,0.14,5.453,0.982,8.816,2.769l-0.001,0.001
	l0.625,0.331c7.333,3.881,29.104,15.406,30.997,29.206c0.257,1.872,0.384,3.758,0.393,5.647c4.06-4.068,7.582-8.852,10.71-14.273
	c5.017-8.696,9.024-19.041,12.61-30.717c3.384-11.02,4.181-23.735,3.137-35.876c-1.157-13.464-4.575-26.195-9.235-35.105
	l-0.019-0.038C201.615,191.78,183.593,173.02,168.499,157.702z M235.047,8.383l0.07,0.01l0.418-0.425L235.047,8.383z
	 M41.845,143.863C49.72,117.76,69.408,52.912,75.435,36.682c3.816-10.275,7.291-17.109,11.358-21.728
	c3.782-4.295,8.053-6.672,13.545-8.093c0.808-0.209,1.544-0.367,2.355-0.516c11.2-2.068,28.337-4.664,49.651-5.785
	c21.277-1.12,46.715-0.773,74.564,3.032c0.86-0.016,1.658,0.087,2.36,0.338c1.446,0.363,2.796,0.892,3.925,1.479
	c1.251,0.649,2.254,1.385,2.845,2.064c1.571,1.549,4.929,5.722,7.645,10.193c1.862,3.065,3.433,6.286,3.95,8.941
	c0.622,3.197,1.262,7.407,1.446,12.511c0.183,5.102-0.09,11.085-1.293,17.814h-0.003c-1.055,5.897-7.29,32.32-14.419,61.866
	c-9.042,37.474-19.521,79.964-22.7,91.99c1.736,6.313,2.987,13.276,3.602,20.437c1.057,12.298,0.244,25.199-3.198,36.407
	c-3.613,11.764-7.659,22.202-12.737,31.005c-3.451,5.982-7.379,11.208-11.968,15.578c-0.208,5.333-1.328,10.657-3.112,15.715
	c-2.938,8.33-7.687,15.952-13.132,21.705c-1.537,1.624-3.802,3.451-6.36,4.784c-1.868,0.973-3.905,1.69-5.95,1.889l-0.003,0.045
	l-0.282-0.021c-0.12,0.009-0.24,0.016-0.36,0.021c-0.264,0.011-0.563-0.029-0.892-0.115c-12.318-0.926-95.559-7.263-105.426-10.127
	c-5.351-1.553-10.981-4.402-16.767-8.083c-5.762-3.667-11.679-8.158-17.63-13.018c-12.058-9.847-13.686-21.501-14.69-28.691
	l-0.007-0.052c-0.465-3.327-0.166-8.018,0.578-13.059c0.863-5.858,4.336-19.629,5.916-24.947c-1.824-3.495-3.37-7.191-4.612-11.064
	c-3.121-9.732-4.331-20.586-3.237-32.184c1.11-11.762,4.489-23.225,9.677-33.89c5.365-11.027,12.664-21.208,21.391-29.992
	C34.735,149.835,38.205,146.736,41.845,143.863z M100.385,8.313c-5.067,1.359-9.027,3.6-12.528,7.576
	c-3.949,4.484-7.346,11.182-11.098,21.285c-5.859,15.776-24.767,77.984-32.986,105.2c5.694-4.301,11.781-8.057,18.163-11.16
	c10.781-5.242,22.403-8.621,34.389-9.616c12.04-0.999,23.275,0.535,33.261,4.161c8.56,3.108,16.199,7.754,22.636,13.659l0.047-0.047
	l0.699,0.699c0.949,0.949,2.026,2.026,3.206,3.207c3.298,3.3,4.474,4.352,8.235,8.273c0.839,0.846,1.695,1.711,2.566,2.593
	c3.346-14.201,8.254-32.31,13.401-50.405c9.76-34.311,20.393-68.617,22.889-76.155c2.01-6.069,3.852-10.177,5.686-13.109
	c1.865-2.98,3.725-4.756,5.744-6.129c2.12-1.442,5.02-2.981,7.814-3.902c-26.109-3.272-49.972-3.531-70.095-2.472
	c-21.189,1.116-38.235,3.693-49.394,5.751C102.113,7.889,101.289,8.071,100.385,8.313z M176.263,163.604l0.117-0.442
	c0.583-2.198,1.164-4.391,1.188-4.499c7.122-31.67,24.304-88.123,32.803-116.046c2.176-7.152,3.778-12.413,4.521-15.007
	c0.842-2.938,2.273-5.866,4.05-8.518c2.302-3.436,5.194-6.417,8.145-8.363c2.678-1.766,5.423-2.689,7.863-2.36
	c-0.478-0.537-1.323-1.143-2.405-1.705c-1.041-0.54-2.284-1.027-3.615-1.362c-0.714-0.102-1.426-0.2-2.136-0.298
	c-1.054,0.037-2.243,0.281-3.471,0.662c-2.777,0.859-5.713,2.404-7.835,3.847c-1.864,1.268-3.59,2.918-5.335,5.708
	c-1.775,2.838-3.569,6.848-5.542,12.805c-2.495,7.533-13.12,41.815-22.873,76.1c-5.255,18.476-10.255,36.94-13.59,51.205
	C170.778,157.996,173.517,160.785,176.263,163.604z"/>
<path fill-rule="evenodd" clip-rule="evenodd" d="M52.107,261.24c3.563,1.679,7.424,2.947,11.534,3.75
	c4.185,0.818,8.622,1.154,13.26,0.951c7.784-0.342,15.481-2.176,22.75-5.225c7.518-3.153,14.57-7.602,20.781-13.041
	c1.767-1.547,3.472-3.18,5.105-4.89c1.466-1.534,2.872-3.131,4.212-4.783l-0.002-0.002l0-0.001l-0.002-0.002l-0.002-0.002
	l-0.001-0.001l-0.001-0.001l-0.002-0.002l-0.001-0.002l-0.001-0.001l-0.002-0.002l-0.002-0.002l-0.002-0.003l-0.002-0.002l0,0
	l-0.002-0.002l-0.002-0.002l-0.001-0.001l-0.001-0.001l-0.002-0.002l-0.001-0.002l-0.001-0.001l-0.002-0.003l-0.002-0.002l0,0
	l-0.002-0.002l-0.002-0.002l0,0l-0.002-0.002l-0.002-0.003l-0.001-0.001l-0.001-0.001l-0.002-0.002l-0.001-0.001l-0.001-0.001
	l-0.002-0.003l-0.002-0.002l0,0l-0.002-0.002l-0.002-0.003v0l-0.002-0.002l-0.002-0.002l-0.001-0.001l-0.002-0.002l-0.002-0.002
	l-0.001-0.001l-0.001-0.001l-0.002-0.003l-0.002-0.002l0,0l-0.002-0.003l-0.002-0.002v0l-0.002-0.002l-0.002-0.003l-0.001-0.001
	l-0.004-0.004l-0.001-0.001l-0.001-0.001l-0.002-0.003l-0.002-0.002l0,0l-0.002-0.003l-0.002-0.002v0l-0.002-0.002l-0.002-0.002
	l-0.001-0.001l-0.002-0.002l0-0.001l-0.002-0.002l-0.001-0.001l-0.001-0.001l-0.002-0.003l-0.002-0.002l-0.001,0l-0.002-0.003
	l-0.002-0.003l-0.002-0.002l-0.002-0.003l0-0.001l-0.001-0.002l-0.002-0.002l-0.001-0.001l-0.001-0.001l-0.002-0.003l-0.002-0.002
	l0-0.001l-0.002-0.003l-0.002-0.003l0.002-0.001c-0.765-0.857-1.347-1.888-1.694-3.039c-0.33-1.095-0.45-2.302-0.315-3.577
	c0.137-1.292,0.524-2.534,1.108-3.673c0.604-1.175,1.416-2.24,2.38-3.135c0.982-0.911,2.123-1.651,3.357-2.157
	c1.194-0.49,2.472-0.762,3.773-0.762c0.382,0,0.758,0.024,1.126,0.07l0.008,0.001l0.008,0.001l0.001,0l0.007,0.001l0.008,0.001
	l0.003,0l0.006,0.001l0.008,0.001l0.003,0l0.005,0.001l0.008,0.001l0.005,0.001l0.003,0l0.008,0.001l0.006,0.001l0.002,0
	l0.008,0.001l0.007,0.001h0.001l0.008,0.001l0.008,0.001h0l0.008,0.001l0.008,0.001l0.001,0l0.007,0.001l0.008,0.001l0.003,0
	l0.005,0.001l0.008,0.001l0.004,0l0.004,0.001l0.008,0.001l0.005,0.001l0.003,0l0.008,0.001l0.006,0.001l0.002,0l0.008,0.001
	l0.007,0.001h0.001l0.008,0.001l0.008,0.001h0.001l0.007,0.001l0.008,0.001l0.002,0l0.006,0.001l0.008,0.001l0.003,0l0.005,0.001
	l0.008,0.001l0.004,0.001l0.004,0.001l0.008,0.001l0.005,0.001l0.003,0l0.008,0.001l0.007,0.001l0.001,0l0.008,0.001l0.008,0.002
	l0.008,0.001l0.008,0.001l0.001,0l0.007,0.001l0.008,0.001l0.002,0l0.006,0.001l0.008,0.001l0.003,0.001l0.005,0.001l0.008,0.001
	l0.005,0.001l0.003,0.001l0.008,0.001l0.006,0.001l0.002,0l0.008,0.001l0.007,0.001l0.001,0l0.008,0.001l0.008,0.001l0.008,0.001
	l0.008,0.002l0.001,0l0.007,0.001l0.008,0.001l0.003,0.001l0.005,0.001l0.008,0.001c1.141-2.543,2.13-5.155,2.953-7.821
	c0.858-2.784,1.534-5.627,2.009-8.514c0.884-5.372,1.017-10.558,0.473-15.464c-0.549-4.952-1.787-9.621-3.639-13.912
	c-3.775-1.6-7.846-2.75-12.151-3.395c-4.285-0.642-8.805-0.785-13.5-0.374c-8.301,0.727-16.316,3.071-23.731,6.669
	c-7.781,3.775-14.906,8.93-21.015,15.047c-0.449,0.45-0.897,0.909-1.342,1.377c-0.422,0.443-0.819,0.869-1.19,1.277l-5.513,21.468
	l-0.59,1.126h-0.245h-7.818h-0.069c-0.525,1.322-1.009,2.663-1.451,4.021c-0.48,1.474-0.907,2.957-1.277,4.444l7.028,6.06
	l0.33,0.285l-0.109,0.424l-6.382,24.852L52.107,261.24z M134.031,231.718c-0.209,0.408-0.389,0.83-0.537,1.264
	c0.457-0.668,0.903-1.342,1.337-2.022c0.387-0.608,0.767-1.223,1.139-1.844C135.186,229.874,134.525,230.756,134.031,231.718z
	 M33.854,199.199l8.33,0.464l5.892-23.599c-3.005,3.352-5.711,6.951-8.066,10.739C37.555,190.753,35.483,194.907,33.854,199.199z
	 M38.549,217.146l-5.886,23.577c-2.951-7.194-4.247-15.447-3.487-24.375L38.549,217.146z M61.827,217.72l0.002-0.007l-5.301-4.805
	l-13.203-11.967l-0.05,0.199l-0.584-0.033l-8.948-0.499l7.362,6.303l12.482,10.687l0.062,0.051
	C56.321,217.841,59.138,217.72,61.827,217.72z M131.116,238.562l-0.326,0.408l-0.002-0.002c-1.35,1.662-2.769,3.271-4.249,4.82
	c-1.656,1.734-3.393,3.396-5.199,4.979c-6.331,5.544-13.513,10.076-21.163,13.285c-7.413,3.109-15.274,4.98-23.238,5.329
	c-4.759,0.209-9.308-0.135-13.593-0.973c-4.422-0.865-8.57-2.256-12.384-4.109l-0.52-0.253l0.01-0.038
	c-0.782-0.392-1.544-0.8-2.284-1.223c-0.912-0.521-1.809-1.075-2.688-1.661c-1.375-0.914-2.698-1.902-3.965-2.959
	c-1.271-1.059-2.474-2.179-3.607-3.353c-4.764-4.944-8.411-10.998-10.638-17.878c-2.135-6.595-2.964-13.949-2.223-21.808
	c0.757-8.02,3.086-15.857,6.677-23.169c3.706-7.546,8.753-14.533,14.799-20.585c6.221-6.228,13.477-11.478,21.403-15.323
	c7.569-3.672,15.749-6.065,24.223-6.807c8.538-0.747,16.524,0.297,23.612,2.821c7.36,2.621,13.751,6.837,18.789,12.299
	c1.715,1.859,3.276,3.864,4.668,5.998c1.385,2.123,2.602,4.372,3.637,6.732c1.971,4.493,3.286,9.388,3.862,14.581
	c0.557,5.03,0.421,10.343-0.484,15.846c-0.485,2.952-1.176,5.858-2.053,8.702c-0.896,2.904-1.987,5.748-3.255,8.514
	c-0.349,0.761-0.693,1.482-1.033,2.163c-0.352,0.704-0.723,1.417-1.112,2.138c-0.856,1.583-1.778,3.146-2.759,4.684
	c-0.95,1.489-1.951,2.943-2.995,4.357l-0.017,0.023l-0.102,0.137l-0.025,0.034l-0.009,0.012l-0.029,0.039l-0.009,0.012l-0.016,0.022
	l-0.009,0.012l-0.029,0.039l-0.009,0.012l-0.016,0.022l-0.009,0.012l-0.003,0.005l-0.025,0.034l-0.009,0.012l-0.016,0.022
	l-0.009,0.012l-0.003,0.005l-0.009,0.012l-0.003,0.005l-0.009,0.012l-0.016,0.022l-0.009,0.012l-0.003,0.005l-0.009,0.012
	l-0.003,0.005l-0.009,0.012l-0.003,0.005l-0.035,0.046l-0.003,0.005l-0.009,0.012l-0.003,0.005l-0.022,0.029l-0.003,0.005
	l-0.009,0.012l-0.003,0.005l-0.009,0.012l-0.003,0.005l-0.009,0.012l-0.004,0.005l-0.009,0.012l-0.003,0.005l-0.009,0.012
	l-0.003,0.005l-0.009,0.012l-0.003,0.005l-0.009,0.012l-0.003,0.005l-0.009,0.012l-0.003,0.005l-0.009,0.012l-0.003,0.005
	l-0.009,0.012l-0.003,0.005l-0.009,0.012l-0.003,0.005l-0.009,0.012l-0.003,0.005l-0.009,0.012l-0.003,0.005l-0.009,0.012
	l-0.003,0.005l-0.009,0.012l-0.003,0.005l-0.009,0.012l-0.003,0.005l-0.009,0.012l-0.003,0.005l-0.009,0.012l-0.003,0.005
	l-0.009,0.012l-0.003,0.005l-0.009,0.012l-0.003,0.005l-0.009,0.012l-0.003,0.005l-0.009,0.012l-0.004,0.005l-0.009,0.012
	l-0.003,0.004l-0.009,0.012l-0.003,0.004l-0.009,0.012l-0.003,0.005l-0.009,0.012l-0.003,0.005l-0.009,0.012l-0.003,0.004
	l-0.009,0.012l-0.003,0.004l-0.009,0.012l-0.003,0.004l-0.009,0.012l-0.003,0.004l-0.009,0.012l-0.003,0.004l-0.009,0.012
	l-0.003,0.004l-0.009,0.012l-0.003,0.004l-0.009,0.012l-0.003,0.004l-0.007,0.009l-0.002,0.003l-0.005,0.006l-0.007,0.009
	l-0.001,0.002l-0.006,0.007l-0.007,0.009l-0.001,0.001l-0.006,0.008l-0.007,0.009l-0.001,0.001l-0.006,0.008l-0.007,0.009l0,0.001
	l-0.007,0.008l-0.007,0.009v0l-0.007,0.009l-0.007,0.008l0,0l-0.007,0.009l-0.006,0.008l-0.001,0.001l-0.007,0.009l-0.006,0.008
	l-0.001,0.001l-0.007,0.009l-0.006,0.008l-0.001,0.001l-0.007,0.009l-0.005,0.007l-0.001,0.001l-0.007,0.009l-0.005,0.007
	l-0.002,0.002l-0.007,0.009l-0.005,0.007l-0.002,0.002l-0.007,0.009l-0.005,0.006l-0.002,0.003l-0.007,0.009l-0.004,0.006
	l-0.002,0.003l-0.007,0.008l-0.004,0.006l-0.003,0.003l-0.007,0.009l-0.004,0.005l-0.003,0.004l-0.007,0.009l-0.003,0.005
	l-0.003,0.004l-0.007,0.009l-0.003,0.004l-0.003,0.005l-0.007,0.008l-0.003,0.004l-0.004,0.005l-0.007,0.008l-0.003,0.004
	l-0.004,0.005l-0.007,0.009l-0.002,0.003l-0.004,0.005l-0.007,0.008l-0.002,0.003l-0.004,0.005l-0.007,0.009l-0.002,0.003
	l-0.005,0.006l-0.007,0.008l-0.002,0.002l-0.005,0.006l-0.007,0.009l-0.001,0.002l-0.005,0.007l-0.007,0.008l-0.001,0.002
	l-0.012,0.015l-0.001,0.001l-0.006,0.007l-0.007,0.008l0,0.001l-0.006,0.008l-0.007,0.008l-0.001,0.001l-0.001,0.001l-0.018,0.023
	l-0.007,0.008h0l-0.012,0.016l-0.001,0l0,0l0.002,0.002l-0.268,0.336l-0.012,0.016l-0.012,0.016l-0.012,0.016l-0.012,0.016
	l-0.012,0.015l-0.012,0.016l-0.012,0.015l-0.012,0.016l-0.012,0.015l-0.012,0.015l-0.012,0.015l-0.012,0.015l-0.07,0.088
	L131.116,238.562L131.116,238.562z"/>
<path fill-rule="evenodd" clip-rule="evenodd" d="M78.419,224.66c1.806-1.676,4.176-2.728,6.648-2.728
	c0.48,0,0.945,0.04,1.392,0.116c0.05,0.059,0.1,0.118,0.148,0.178c0.074,0.092,0.134,0.17,0.18,0.234
	c0.044,0.061,0.101,0.143,0.168,0.244c0.484,0.732,0.828,1.572,1.004,2.483c0.172,0.888,0.185,1.845,0.015,2.839
	c-0.187,1.093-0.576,2.128-1.118,3.065c-0.57,0.984-1.31,1.863-2.161,2.592c-0.84,0.718-1.791,1.294-2.803,1.684
	c-0.97,0.373-2.003,0.579-3.056,0.579c-0.412,0-0.801-0.029-1.165-0.085c-0.377-0.058-0.745-0.147-1.103-0.263
	c-0.261-0.085-0.514-0.184-0.756-0.297c-0.574-1.248-0.826-2.707-0.66-4.279C75.411,228.574,76.635,226.315,78.419,224.66
	 M89.37,228.264c-0.215,1.261-0.664,2.455-1.29,3.536c-0.651,1.124-1.494,2.127-2.466,2.958c-0.956,0.818-2.048,1.476-3.218,1.927
	c-1.136,0.438-2.341,0.679-3.56,0.679c-0.461,0-0.923-0.037-1.381-0.107c-0.463-0.071-0.905-0.177-1.324-0.313
	c-0.677-0.22-1.311-0.524-1.891-0.9c-0.585-0.379-1.115-0.835-1.577-1.352c-0.766-0.858-1.348-1.889-1.695-3.041
	c-0.33-1.095-0.45-2.302-0.315-3.577c0.137-1.292,0.524-2.535,1.108-3.673c0.604-1.175,1.416-2.24,2.38-3.135
	c0.982-0.911,2.123-1.651,3.356-2.157c1.194-0.49,2.472-0.762,3.773-0.762c1.314,0,2.53,0.276,3.602,0.773
	c1.123,0.52,2.085,1.282,2.838,2.221c0.063,0.079,0.137,0.177,0.219,0.29c0.084,0.115,0.153,0.213,0.206,0.294
	c0.587,0.887,1.002,1.902,1.214,2.998C89.553,225.973,89.569,227.1,89.37,228.264z"/>
<polygon fill-rule="evenodd" clip-rule="evenodd" points="49.241,173.765 49.284,173.813 49.349,173.887 49.429,173.568 "/>
<polygon stroke="#FFFFFF" stroke-width="1.4173" stroke-miterlimit="22.9256" points="49.241,173.765 49.284,173.813 
	49.349,173.887 49.429,173.568 "/>
<path d="M163.404,33.394c-1.422-0.043-2.834-0.087-4.247-0.129c-1.229,3.404-2.455,6.791-3.669,10.144
	c-1.206,3.332-2.405,6.639-3.598,9.922c4.143,0.202,8.321,0.405,12.537,0.61c0.475-1.26,0.952-2.526,1.422-3.797
	c-2.626-0.122-5.243-0.24-7.852-0.358c-0.201-0.009-0.403-0.018-0.595-0.027c0.089-0.243,0.178-0.483,0.268-0.727
	c0.945-2.569,1.888-5.153,2.843-7.75C161.474,38.668,162.432,36.038,163.404,33.394 M159.093,31.747
	c1.818,0.053,3.637,0.106,5.474,0.16c0.197,0.006,0.394,0.012,0.6,0.018c-0.093,0.252-0.186,0.503-0.278,0.752
	c-0.979,2.651-1.942,5.287-2.909,7.907c-0.961,2.604-1.909,5.195-2.86,7.772c2.613,0.115,5.245,0.23,7.876,0.348
	c0.193,0.008,0.404,0.018,0.605,0.027c-0.093,0.245-0.185,0.49-0.278,0.733c-0.666,1.763-1.319,3.517-1.979,5.263
	c-0.091,0.242-0.183,0.484-0.274,0.724c-0.209-0.01-0.409-0.021-0.6-0.03c-4.598-0.23-9.168-0.458-13.684-0.684
	c-0.2-0.01-0.391-0.02-0.582-0.029c0.087-0.239,0.173-0.479,0.26-0.715c1.264-3.516,2.55-7.06,3.833-10.629
	c1.294-3.599,2.609-7.228,3.925-10.885c0.09-0.247,0.181-0.498,0.271-0.748C158.69,31.735,158.897,31.741,159.093,31.747z
	 M154.377,33.119c-1.394-0.043-2.788-0.085-4.172-0.128c-0.742,2.092-1.475,4.175-2.205,6.247c-0.726,2.064-1.449,4.117-2.173,6.159
	c-0.236,0.667-0.522,1.264-0.858,1.79c-0.352,0.547-0.758,1.012-1.219,1.394l0,0c-0.44,0.376-0.929,0.657-1.428,0.833
	c-0.487,0.169-0.987,0.243-1.49,0.22c-0.521-0.024-0.945-0.14-1.299-0.35c-0.362-0.215-0.632-0.534-0.814-0.948
	c-0.164-0.41-0.247-0.894-0.203-1.449c0.035-0.531,0.158-1.128,0.385-1.78c0.705-2.031,1.408-4.072,2.115-6.126
	c0.709-2.056,1.424-4.127,2.145-6.207c-1.384-0.042-2.75-0.084-4.107-0.128c-0.692,2.021-1.377,4.033-2.058,6.037
	c-0.677,1.992-1.354,3.98-2.03,5.952c-0.322,0.969-0.548,2.088-0.679,3.368c-0.032,0.364-0.036,0.727,0.006,1.089
	c-0.001,0.003-0.001,0.003-0.001,0.003c0.042,0.365,0.119,0.734,0.236,1.098c-0.001,0.003-0.001,0.003,0.008,0.003
	c0.124,0.369,0.271,0.695,0.442,0.979c0.173,0.278,0.366,0.522,0.592,0.726c0.219,0.198,0.482,0.371,0.811,0.517
	c0.319,0.148,0.704,0.269,1.127,0.356c0.45,0.088,0.886,0.167,1.312,0.221c0.397,0.053,0.81,0.092,1.219,0.112
	c0.674,0.033,1.331,0.007,1.942-0.071c0.603-0.081,1.18-0.22,1.72-0.41l0,0c0.371-0.132,0.762-0.322,1.164-0.564
	c0.413-0.247,0.838-0.552,1.274-0.919c0,0,0,0,0.01-0.002c0.436-0.361,0.847-0.759,1.222-1.188c0.377-0.428,0.729-0.894,1.056-1.389
	c0.322-0.509,0.624-1.041,0.895-1.589c0,0,0,0,0.001-0.003c0.269-0.543,0.511-1.114,0.724-1.709
	c0.708-1.998,1.426-4.014,2.145-6.031C152.916,37.205,153.652,35.167,154.377,33.119z M150.133,31.485
	c1.781,0.052,3.571,0.104,5.38,0.157c0.197,0.006,0.403,0.012,0.6,0.018c-0.09,0.249-0.18,0.499-0.269,0.746
	c-0.775,2.178-1.55,4.345-2.32,6.5c-0.768,2.147-1.541,4.283-2.297,6.407c-0.237,0.661-0.518,1.31-0.83,1.945l0,0
	c-0.32,0.633-0.661,1.242-1.039,1.827c-0.393,0.601-0.827,1.164-1.272,1.681c-0.463,0.516-0.958,0.989-1.475,1.424
	c-0.01,0.002-0.01,0.002-0.01,0.002c-0.514,0.429-1.014,0.789-1.509,1.085c-0.495,0.299-0.986,0.533-1.452,0.702
	c-0.001,0.003-0.001,0.003-0.001,0.003c-0.643,0.219-1.299,0.377-1.979,0.465c-0.687,0.088-1.381,0.117-2.117,0.08
	c-0.4-0.02-0.838-0.062-1.288-0.123c-0.45-0.059-0.904-0.137-1.352-0.231c-0.492-0.102-0.925-0.239-1.291-0.407
	c-0.393-0.174-0.716-0.389-0.99-0.64c-0.283-0.251-0.523-0.549-0.73-0.89c-0.207-0.341-0.389-0.729-0.528-1.159
	c-0.148-0.433-0.238-0.875-0.288-1.326l0,0c-0.058-0.453-0.056-0.919-0.016-1.393c0.147-1.407,0.409-2.666,0.776-3.769
	c0.715-2.092,1.429-4.197,2.146-6.312c0.72-2.123,1.443-4.257,2.167-6.401c0.083-0.243,0.167-0.489,0.251-0.735
	c0.187,0.005,0.384,0.011,0.581,0.017c1.753,0.051,3.506,0.102,5.268,0.154c0.187,0.006,0.384,0.011,0.59,0.017
	c-0.086,0.247-0.172,0.495-0.258,0.739c-0.768,2.207-1.529,4.405-2.285,6.591c-0.752,2.173-1.503,4.343-2.244,6.496
	c-0.172,0.495-0.268,0.932-0.294,1.303c-0.03,0.352,0.021,0.657,0.129,0.913c0.108,0.251,0.281,0.448,0.503,0.586
	c0.247,0.143,0.553,0.227,0.947,0.244c0.376,0.016,0.728-0.034,1.068-0.152c0.309-0.111,0.611-0.283,0.89-0.52l0,0
	c0.287-0.234,0.528-0.523,0.753-0.868c0.232-0.367,0.443-0.806,0.622-1.314c0.764-2.161,1.528-4.337,2.294-6.522
	c0.769-2.192,1.545-4.401,2.327-6.617c0.087-0.246,0.165-0.494,0.253-0.742C149.739,31.474,149.927,31.479,150.133,31.485z
	 M124.99,41.376c-0.425-0.016-0.84-0.032-1.256-0.051c-0.185-0.007-0.379-0.015-0.564-0.022c0.078-0.238,0.157-0.476,0.235-0.714
	c0.515-1.568,1.032-3.139,1.541-4.718c0.079-0.241,0.159-0.482,0.238-0.723c0.186,0.006,0.373,0.013,0.568,0.019
	c0.484,0.016,0.969,0.032,1.463,0.049c0.531,0.018,0.965,0.1,1.303,0.247c0.377,0.167,0.632,0.42,0.774,0.757l0,0
	c0.124,0.306,0.188,0.65,0.176,1.022c0,0,0,0,0.009,0c-0.012,0.375-0.088,0.772-0.231,1.197c-0.149,0.446-0.352,0.858-0.616,1.229
	l0,0c-0.256,0.371-0.57,0.697-0.924,0.972c-0.366,0.282-0.789,0.487-1.269,0.607C126.009,41.351,125.526,41.397,124.99,41.376z
	 M124.771,39.914c0.222,0.008,0.454,0.017,0.685,0.026c0.463,0.017,0.849-0.017,1.177-0.1c0.286-0.071,0.528-0.179,0.706-0.321
	c0.188-0.143,0.346-0.305,0.471-0.486c0,0,0,0,0.001-0.003c0.117-0.183,0.225-0.394,0.304-0.633c0.08-0.239,0.117-0.463,0.126-0.659
	l0,0c0.008-0.195-0.025-0.379-0.091-0.547c-0.009,0-0.008-0.003-0.008-0.006c-0.057-0.138-0.188-0.254-0.375-0.342
	c-0.248-0.103-0.585-0.167-1.031-0.182c-0.298-0.01-0.595-0.021-0.893-0.031C125.482,37.731,125.131,38.821,124.771,39.914z
	 M130.093,32.374c-2.666-0.082-5.323-0.163-7.951-0.243c-1.06,3.296-2.119,6.575-3.168,9.824c-1.042,3.228-2.078,6.435-3.101,9.616
	c1.284,0.063,2.586,0.128,3.887,0.192c0.369-1.151,0.747-2.302,1.127-3.457c0.38-1.156,0.754-2.32,1.136-3.484
	c0.078-0.238,0.156-0.474,0.234-0.712c0.184,0.007,0.368,0.015,0.561,0.023c0.92,0.038,1.84,0.076,2.779,0.115
	c0.966,0.04,1.859-0.059,2.65-0.307l0,0c0.78-0.236,1.465-0.609,2.095-1.116c0,0,0,0,0.001-0.003
	c0.619-0.505,1.154-1.12,1.623-1.839c0,0,0,0,0.001-0.003c0.485-0.741,0.881-1.608,1.215-2.597c0.325-0.96,0.51-1.813,0.542-2.548
	c0.034-0.713-0.061-1.324-0.306-1.83c-0.001,0.003-0.001,0.003-0.001,0.003c-0.235-0.506-0.633-0.896-1.165-1.168
	C131.696,32.556,130.972,32.401,130.093,32.374z M122.042,30.661c2.831,0.083,5.68,0.166,8.539,0.249
	c0.993,0.029,1.832,0.211,2.488,0.54c0.678,0.346,1.179,0.854,1.492,1.522c-0.001,0.003-0.001,0.003-0.001,0.003
	c0.322,0.667,0.457,1.464,0.406,2.396c-0.042,0.899-0.257,1.919-0.632,3.053c-0.394,1.161-0.897,2.2-1.479,3.115
	c0,0,0,0,0.001-0.003c-0.605,0.928-1.302,1.718-2.09,2.363c-0.798,0.648-1.666,1.122-2.632,1.417
	c-0.001,0.003-0.001,0.003-0.001,0.003c-0.933,0.282-1.933,0.401-3.007,0.354c-0.744-0.032-1.488-0.064-2.213-0.095
	c-0.384,1.165-0.764,2.329-1.14,3.485c-0.376,1.155-0.76,2.303-1.139,3.453c-0.077,0.233-0.154,0.466-0.23,0.699
	c-0.182-0.009-0.373-0.019-0.545-0.027c-1.672-0.086-3.326-0.169-4.979-0.252c-0.191-0.009-0.372-0.018-0.554-0.027
	c0.075-0.229,0.149-0.461,0.224-0.693c1.102-3.41,2.199-6.848,3.311-10.305c1.122-3.486,2.253-7.001,3.387-10.542
	c0.077-0.24,0.156-0.482,0.234-0.725C121.667,30.65,121.854,30.656,122.042,30.661z M105.791,31.629
	c-1.665-0.051-3.321-0.101-4.968-0.151c-0.972,3.235-1.93,6.452-2.889,9.642c-0.952,3.167-1.889,6.315-2.829,9.441
	c0.947,0.046,1.894,0.092,2.85,0.139c0.619-2.036,1.241-4.083,1.866-6.138c0.627-2.065,1.248-4.138,1.882-6.221
	c0.311-1.026,0.624-2.055,0.938-3.086c0.052,0.938,0.114,1.88,0.175,2.816c0.134,2.016,0.256,4.027,0.387,6.026
	c0.13,1.997,0.257,3.991,0.383,5.973c1.327-1.915,2.671-3.846,4.02-5.784c1.356-1.949,2.72-3.914,4.099-5.886
	c0.637-0.917,1.275-1.839,1.934-2.765c-0.329,1.041-0.657,2.077-0.984,3.113c-0.656,2.104-1.322,4.193-1.978,6.28
	c-0.651,2.073-1.3,4.141-1.942,6.197c0.965,0.047,1.939,0.095,2.923,0.143c1.013-3.169,2.03-6.364,3.053-9.58
	c1.03-3.237,2.06-6.504,3.11-9.787c-1.693-0.052-3.368-0.103-5.033-0.153c-0.933,1.346-1.872,2.688-2.787,4.021
	c-0.914,1.331-1.841,2.655-2.748,3.976c-0.303,0.431-0.595,0.861-0.896,1.292c-0.031-0.444-0.053-0.888-0.074-1.331
	c-0.087-1.357-0.174-2.714-0.253-4.076C105.951,34.367,105.87,33.002,105.791,31.629z M100.708,30.038
	c1.94,0.057,3.899,0.114,5.868,0.171c0.103,0.003,0.215,0.007,0.328,0.01c0.005,0.138,0.019,0.277,0.034,0.412
	c0.06,1.218,0.129,2.435,0.199,3.645c0.069,1.208,0.146,2.417,0.223,3.622c0.805-1.174,1.62-2.358,2.434-3.537
	c0.818-1.186,1.648-2.377,2.475-3.574c0.089-0.133,0.188-0.267,0.287-0.403c0.113,0.003,0.225,0.007,0.347,0.01
	c1.959,0.058,3.937,0.115,5.924,0.173c0.187,0.005,0.375,0.011,0.562,0.017c-0.078,0.242-0.155,0.484-0.232,0.723
	c-1.124,3.534-2.245,7.041-3.357,10.523c-1.102,3.45-2.19,6.882-3.281,10.286c-0.074,0.231-0.148,0.46-0.222,0.691
	c-0.182-0.009-0.363-0.018-0.536-0.027c-1.345-0.067-2.681-0.134-4.007-0.2c-0.182-0.009-0.363-0.018-0.536-0.027
	c0.073-0.23,0.145-0.461,0.217-0.691c0.515-1.66,1.045-3.329,1.568-5.006c0.524-1.677,1.052-3.37,1.586-5.061
	c-1.203,1.715-2.406,3.424-3.584,5.125c-1.172,1.691-2.352,3.379-3.519,5.052c-0.297,0.419-0.592,0.838-0.878,1.255
	c-0.032-0.433-0.054-0.868-0.076-1.303c-0.12-1.733-0.235-3.476-0.344-5.218c-0.109-1.745-0.229-3.502-0.335-5.259
	c-0.513,1.681-1.02,3.358-1.524,5.025c-0.502,1.661-1.012,3.315-1.515,4.964c-0.07,0.228-0.14,0.457-0.209,0.685
	c-0.173-0.009-0.354-0.018-0.527-0.026c-1.309-0.065-2.617-0.131-3.907-0.196c-0.182-0.009-0.354-0.017-0.518-0.026
	c0.068-0.227,0.136-0.455,0.204-0.682c0.993-3.347,2.003-6.72,3.019-10.114c1.024-3.422,2.048-6.872,3.088-10.344
	c0.071-0.235,0.142-0.473,0.213-0.711C100.352,30.028,100.521,30.033,100.708,30.038z M96.314,31.34
	c-1.263-0.039-2.526-0.077-3.779-0.116c-0.935,3.211-1.864,6.402-2.786,9.569c-0.915,3.144-1.825,6.272-2.728,9.371
	c1.22,0.06,2.449,0.122,3.687,0.182c0.92-3.113,1.851-6.247,2.778-9.403C94.42,37.767,95.362,34.562,96.314,31.34z M92.413,29.796
	c1.603,0.047,3.224,0.095,4.855,0.142c0.169,0.005,0.356,0.01,0.534,0.016c-0.07,0.238-0.141,0.475-0.211,0.71
	c-1.019,3.465-2.04,6.907-3.053,10.322c-1.005,3.387-2.004,6.753-2.995,10.093c-0.067,0.227-0.135,0.454-0.202,0.681
	c-0.173-0.009-0.354-0.018-0.518-0.026c-1.581-0.079-3.153-0.158-4.716-0.236c-0.182-0.009-0.345-0.017-0.509-0.025
	c0.066-0.226,0.131-0.452,0.196-0.678c0.964-3.322,1.934-6.671,2.911-10.042c0.984-3.395,1.977-6.818,2.977-10.268
	c0.068-0.231,0.136-0.467,0.205-0.704C92.057,29.785,92.225,29.79,92.413,29.796z"/>
<path d="M178.677,40.813c-0.001,0.003-0.047-0.051-0.027-0.027l0,0c-0.003,0.008,0.004,0.014,0.011,0.02
	C178.659,40.809,178.667,40.812,178.677,40.813 M182.049,35.869c0.246-0.223,0.484-0.445,0.732-0.667
	c-0.611-1.062-1.225-2.121-1.821-3.182c-0.29,0.261-0.57,0.521-0.859,0.779c-0.001,0.003-0.001,0.003-0.001,0.003
	c-0.015,0.014-0.029,0.025-0.033,0.036c-0.717,0.661-1.419,1.305-1.957,1.823c-0.596,0.57-1.174,1.14-1.719,1.725
	c-0.009,0-0.009,0-0.009,0c-0.35,0.373-0.682,0.724-0.999,1.061c-2.304,2.417-3.661,3.835-1.904,5.951
	c-0.002,0.006,0.005,0.012,0.013,0.015c0.004,0.014,0.008,0.029,0.022,0.041c0.138,0.226,0.294,0.505,0.406,0.776
	c0.148,0.349,0.228,0.724,0.135,1.09c-0.215,0.852-1.469,2.221-2.895,3.567c-1.415,1.335-3.022,2.657-3.959,3.436
	c-0.01,0.002-0.01,0.002-0.01,0.002c-0.013,0.011-0.026,0.021-0.029,0.03c0.538,1.102,1.084,2.202,1.638,3.3
	c0.369-0.312,0.721-0.602,1.087-0.903c2.011-1.666,4.343-3.595,6.102-5.521c2.247-2.454,3.55-4.945,1.81-6.846c0,0,0,0,0.001-0.003
	c-0.04-0.041-0.08-0.085-0.109-0.129c-0.008-0.003-0.007-0.006-0.006-0.009c-0.065-0.073-0.121-0.147-0.186-0.223
	c-0.009-0.001-0.009-0.001-0.009-0.001c-0.32-0.39-0.248-0.918,0.107-1.55c0.238-0.423,0.613-0.884,1.075-1.376
	c-0.009-0.001-0.009-0.001-0.008-0.003c0.909-0.963,2.075-2.031,3.301-3.147c0,0,0,0,0.009,0c0.001-0.003,0.002-0.006,0.005-0.011
	c0,0,0,0,0.01-0.003C182.005,35.91,182.022,35.891,182.049,35.869z M183.989,35.618c-0.683,0.638-0.976,0.904-1.346,1.251
	c-0.01,0.003-0.01,0.003-0.01,0.003c-0.037,0.022-0.054,0.041-0.071,0.06c-0.011,0.008-0.014,0.014-0.015,0.016
	c-0.001,0.003-0.001,0.003-0.001,0.003c-1.184,1.081-2.326,2.108-3.161,3.003c-0.009-0.001-0.009-0.001-0.009-0.001
	c-0.322,0.347-0.569,0.645-0.698,0.859c-0.009-0.001-0.018-0.004-0.017-0.007c0.058,0.067,0.117,0.135,0.175,0.203
	c0.04,0.044,0.073,0.082,0.105,0.121c0,0,0,0,0.001-0.003c1.159,1.276,1.341,2.726,0.85,4.243c-0.491,1.517-1.618,3.104-3.055,4.672
	c-1.884,2.055-4.284,4.039-6.358,5.748c-0.638,0.53-1.25,1.043-1.674,1.397c-0.205,0.172-0.409,0.344-0.614,0.515
	c-0.083-0.169-0.165-0.339-0.247-0.511c-0.728-1.439-1.441-2.881-2.165-4.325c-0.085-0.168-0.17-0.337-0.255-0.508
	c0.204-0.172,0.409-0.346,0.614-0.518c0.114-0.108,0.357-0.306,0.679-0.569c1.716-1.41,5.81-4.79,6.04-5.759
	c0.003-0.008-0.037-0.121-0.102-0.271c-0.086-0.216-0.214-0.445-0.327-0.637c-1.234-1.487-1.395-2.695-0.89-3.931
	c0.506-1.238,1.73-2.506,3.253-4.105c0.304-0.329,0.646-0.68,0.982-1.042l0,0c0.555-0.59,1.159-1.207,1.825-1.834
	c0.717-0.688,1.346-1.269,1.991-1.861c0.014-0.014,0.028-0.025,0.042-0.038l0,0c0.586-0.538,1.174-1.079,1.459-1.353
	c0.208-0.195,0.417-0.393,0.626-0.591c0.096,0.17,0.202,0.339,0.298,0.509c0.789,1.399,1.604,2.796,2.406,4.193
	c0.097,0.165,0.193,0.33,0.29,0.496C184.402,35.236,184.195,35.429,183.989,35.618z"/>
</svg>
