<?xml version="1.0" encoding="utf-8"?>
<!-- Generator: Adobe Illustrator 19.0.0, SVG Export Plug-In . SVG Version: 6.00 Build 0)  -->
<svg version="1.1" id="Layer_1" xmlns="http://www.w3.org/2000/svg" xmlns:xlink="http://www.w3.org/1999/xlink" x="0px" y="0px"
	 viewBox="-298.3 361.1 50.7 60.9" style="enable-background:new -298.3 361.1 50.7 60.9;" xml:space="preserve">
<polygon points="-273.3,371.7 -273.3,371.7 -273.2,371.7 "/>
<path d="M-273.2,420.2c0.4,0,0.8,0,1.1,0h1.1c0.2,0,0.4,0,0.5,0l-1,0.9l0,0c-0.2,0.2-0.4,0.4-1.7,0.4c-1.3,0-1.5-0.2-1.7-0.4l0,0
	l-1-0.9c0.2,0,0.3,0,0.5,0h1C-274,420.2-273.6,420.2-273.2,420.2 M-281.2,408.7L-281.2,408.7C-281.2,408.7-281.2,408.7-281.2,408.7
	L-281.2,408.7c0.1,0.3,0.3,0.5,0.6,0.6c0.2,0.2,0.3,0.4,0.4,0.6c0.1,0.1,0.1,0.3,0.2,0.4c0.1,0.3,0.2,0.7,0.3,1.1
	c0.1,0.5,0.2,1,0.2,1.6l0.1,2v2.1v0.2l1.8,1.9l0.6,0.6l1.6,1.4l0,0c0.3,0.2,0.6,0.5,2.1,0.6h0c1.5-0.1,1.8-0.3,2.1-0.6l0,0l1.6-1.4
	l0.6-0.6h0l1.9-1.9h0v-0.2c0-0.6,0-1.4,0-2.1c0-0.7,0-1.3,0.1-2c0.1-0.6,0.1-1.1,0.2-1.6c0.1-0.5,0.2-0.8,0.3-1.1
	c0-0.2,0.1-0.3,0.2-0.4c0.1-0.2,0.3-0.4,0.4-0.6l0,0c1.7-0.6-0.1-4.4,4.2-10.9c2.2-3.2,4.3-6.7,4.3-10.9c0-8.7-7.1-15.9-15.8-15.9
	c-8.7,0-15.7,7.1-15.7,15.7c0,4.2,2.1,7.8,4.3,11C-281.2,403.8-281.8,407.3-281.2,408.7z M-278.7,415.1c0-0.3,0-0.6,0-0.9l2.1,0.1
	c1.3,0.1,2.7,0.1,3.9,0.1V414c-1.2,0-2.6,0-3.9-0.1c-0.8,0-1.5-0.1-2.2-0.1c0-0.2,0-0.4,0-0.7c0-0.2,0-0.3,0-0.5
	c0.7,0.1,1.5,0.1,2.3,0.2c1.3,0.1,2.7,0.1,3.9,0.1v-0.4c-1.2,0-2.6,0-3.9-0.1c-0.8,0-1.6-0.1-2.3-0.2l-0.1-0.7c0-0.2,0-0.3-0.1-0.4
	c0.8,0.1,1.6,0.1,2.5,0.2c1.3,0,2.7,0.1,3.9,0.1v-0.4c-1.2,0-2.6,0-3.9-0.1c-0.9,0-1.8-0.1-2.6-0.2l-0.1-0.4c0-0.2-0.1-0.3-0.2-0.5
	c0-0.1-0.1-0.2-0.2-0.3l0.2,0c0.3,0,0.7,0,1.1,0.1l2.4,0.1c0.9,0,1.9,0,2.7,0c0.9,0,1.8,0,2.8,0l2.3-0.1c0.4,0,0.8,0,1.1-0.1l0.2,0
	c-0.1,0.1-0.1,0.2-0.2,0.3c-0.1,0.2-0.2,0.4-0.2,0.5c-0.1,0.3-0.2,0.7-0.3,1.2c-0.1,0.5-0.2,1-0.2,1.6l-0.1,2v1.9h-0.2
	c-0.2,0-0.4,0-0.6,0c-0.2,0-0.5,0-0.7,0c-0.2,0-0.5,0-0.7,0c-0.3,0-0.6,0-0.8,0h-0.8h-0.8c-0.3,0-0.6,0-0.8,0c-0.3,0-0.6,0-0.8,0
	h-0.8h-0.8c-0.2,0-0.5,0-0.8,0s-0.5,0-0.8,0c-0.2,0-0.4,0-0.7,0c-0.2,0-0.4,0-0.6,0h-0.2v-1.3l2.1,0.1c1.3,0.1,2.7,0.1,3.9,0.1v-0.4
	c-1.2,0-2.6,0-3.9-0.1c-0.7,0-1.4-0.1-2.1-0.2L-278.7,415.1L-278.7,415.1z M-283.6,387.2c0,0.6-0.3,1.9-1.2,1.8
	c-1.2-0.1-1.1-1.4-1.1-1.8c-0.1-5.5,4.2-9.1,4.4-9.2c0.5-0.4,1.3-0.5,1.6,0c0.4,0.5,0.2,1-0.3,1.4
	C-280.3,379.5-283.7,382.9-283.6,387.2z"/>
</svg>
