<?xml version="1.0" encoding="utf-8"?>
<!-- Generator: Adobe Illustrator 19.0.0, SVG Export Plug-In . SVG Version: 6.00 Build 0)  -->
<svg version="1.1" id="Layer_1" xmlns="http://www.w3.org/2000/svg" xmlns:xlink="http://www.w3.org/1999/xlink" x="0px" y="0px"
	 viewBox="286 -376 612 792" style="enable-background:new 286 -376 612 792;" xml:space="preserve">
<style type="text/css">
	.st0{fill:none;stroke:#000000;stroke-width:16;stroke-miterlimit:10;}
	.st1{fill:none;stroke:#000000;stroke-miterlimit:10;}
</style>
<path class="st0" d="M850.6,300.1H334.3c-12.7,0-23-10.3-23-23V-233c0-12.7,10.3-23,23-23h516.3c12.7,0,23,10.3,23,23v510.1
	C873.6,289.8,863.3,300.1,850.6,300.1z"/>
<path class="st0" d="M768.2,234H418.8c-19.2,0-34.8-15.6-34.8-34.8v-354.4c0-19.2,15.6-34.8,34.8-34.8h349.4
	c19.2,0,34.8,15.6,34.8,34.8v354.4C803,218.4,787.4,234,768.2,234z"/>
<path class="st0" d="M347-256"/>
<path class="st0" d="M346-256"/>
<path class="st0" d="M458-300"/>
<path class="st0" d="M347-256"/>
<path class="st0" d="M319.8-296"/>
<path class="st1" d="M208.8-252"/>
<path class="st1" d="M313-758"/>
<path class="st0" d="M312-238"/>
<path class="st1" d="M1222,233"/>
<path class="st0" d="M803,234"/>
<path class="st1" d="M384-614"/>
<path class="st0" d="M384-190"/>
<path class="st0" d="M722.1,95H461.5c-14.3,0-24.6-17.1-24.6-31.2V-45.5c0-11.3,4.8-24.5,29.6-24.5h236.4c34.2,0,45.1,4.9,45.1,32
	V66.4C748,84.1,741.2,95,722.1,95z"/>
<path class="st0" d="M675.3,66.4H510.7C498,66.4,488,58,488,44.1v-64.6c0-12.3,9-17.5,27.1-17.5h160.2C688-38,698-34.4,698-16.6v60
	C698,59.8,688,66.4,675.3,66.4z"/>
<line class="st0" x1="512.4" y1="-32.9" x2="512.7" y2="60"/>
<line class="st0" x1="544.4" y1="-34.1" x2="544.4" y2="63.7"/>
<line class="st0" x1="670.5" y1="-36.7" x2="670.5" y2="61.4"/>
<line class="st0" x1="632" y1="-36.7" x2="632" y2="66.4"/>
<line class="st0" x1="588.8" y1="-36.7" x2="589.4" y2="66.4"/>
</svg>
