<?xml version="1.0" encoding="utf-8"?>
<!-- Generator: Adobe Illustrator 19.0.0, SVG Export Plug-In . SVG Version: 6.00 Build 0)  -->
<svg version="1.1" id="Layer_1" xmlns="http://www.w3.org/2000/svg" xmlns:xlink="http://www.w3.org/1999/xlink" x="0px" y="0px"
	 viewBox="456 -479 600 600" style="enable-background:new 456 -479 600 600;" xml:space="preserve">
<style type="text/css">
	.st0{fill:none;stroke:#000000;stroke-width:20;stroke-miterlimit:10;}
	.st1{fill:none;stroke:#000000;stroke-width:12;stroke-miterlimit:10;}
	.st2{fill:none;stroke:#000000;stroke-width:10;stroke-miterlimit:10;}
	.st3{fill:none;stroke:#000000;stroke-width:8;stroke-miterlimit:10;}
</style>
<path class="st0" d="M983.4,73.1H528.6c-20.2,0-36.6-16.4-36.6-36.6V-377c0-20.2,16.4-36.6,36.6-36.6h454.8
	c20.2,0,36.6,16.4,36.6,36.6V36.5C1020,56.7,1003.6,73.1,983.4,73.1z"/>
<path class="st1" d="M955.1-244.2H847.9c-5.9,0-10.7-4.6-10.7-10.3v-93.3c0-5.7,4.7-10.3,10.7-10.3H955c5.9,0,10.7,4.6,10.7,10.3
	v93.3C965.7-248.9,961-244.2,955.1-244.2z"/>
<path class="st2" d="M934.5-260.9h-65.2c-4.9,0-8.9-4-8.9-8.9v-28.4c0-4.9,4-8.9,8.9-8.9h65.2c4.9,0,8.9,4,8.9,8.9v28.4
	C943.4-264.9,939.4-260.9,934.5-260.9z"/>
<path class="st3" d="M935.9-327.4h-14c-4.1,0-7.5-3.1-7.5-6.9c0-3.8,3.4-6.9,7.5-6.9h14c4.1,0,7.5,3.1,7.5,6.9
	C943.4-330.5,940-327.4,935.9-327.4z"/>
<path class="st3" d="M882.5-327.4h-15.7c-3.5,0-6.3-2.8-6.3-6.3v-0.6c0-3.8,3.1-6.9,6.9-6.9h15.1c3.8,0,6.9,3.1,6.9,6.9l0,0
	C889.4-330.5,886.3-327.4,882.5-327.4z"/>
<path class="st0" d="M631.3-97.7H560c-7.8,0-14,6.6-14,14.7v93.8c0,8.3,6.5,15.1,14.4,15.1h288c7.6,0,13.7-6.4,13.7-14.3v-95.3
	c0-7.7-6-13.9-13.3-13.9h-72.1c-7.9,0-14.4-6.7-14.4-15l0.6-180.2c0-6.2-4.8-11.3-10.7-11.3h-91.4c-7.6,0-13.7,6.4-13.7,14.3v175.6
	C647.1-105.1,640-97.7,631.3-97.7z"/>
<rect x="681.8" y="-235.5" class="st1" width="40.4" height="58.2"/>
<rect x="770" y="-54" class="st1" width="51.4" height="37.8"/>
<rect x="590.5" y="-54" class="st1" width="51.4" height="37.8"/>
</svg>
