<?xml version="1.0" encoding="utf-8"?>
<!-- Generator: Adobe Illustrator 16.0.0, SVG Export Plug-In . SVG Version: 6.00 Build 0)  -->
<!DOCTYPE svg PUBLIC "-//W3C//DTD SVG 1.1//EN" "http://www.w3.org/Graphics/SVG/1.1/DTD/svg11.dtd">
<svg version="1.1" id="Layer_1" xmlns="http://www.w3.org/2000/svg" xmlns:xlink="http://www.w3.org/1999/xlink" x="0px" y="0px"
	 width="536.719px" height="536.823px" viewBox="3.72 3.72 536.719 536.823" enable-background="new 3.72 3.72 536.719 536.823"
	 xml:space="preserve">
<path fill="none" stroke="#000000" stroke-width="15" stroke-miterlimit="10" d="M496.76,532.914H47.495
	c-19.954,0-36.155-17.576-36.155-39.225V50.561c0-21.646,16.201-39.223,36.155-39.223H496.76c19.954,0,36.153,17.576,36.153,39.223
	V493.69C532.913,515.338,516.714,532.914,496.76,532.914z"/>
<path stroke="#000000" stroke-width="0.25" stroke-miterlimit="10" d="M469.563,85.754H363.305c-5.953,0-10.617,4.564-10.617,10.22
	v92.565c0,5.654,4.764,10.219,10.617,10.219h106.354c5.854,0,10.519-4.663,10.519-10.219V95.974
	C480.178,90.319,475.415,85.754,469.563,85.754z M375.805,109.367c0-3.771,3.076-6.847,6.846-6.847h14.982
	c3.77,0,6.846,3.075,6.846,6.847c0,3.77-3.076,6.846-6.846,6.846h-15.578c-3.474,0-6.25-2.778-6.25-6.251V109.367z M458.053,173.359
	c0,4.861-3.97,8.83-8.83,8.83h-64.688c-4.86,0-8.83-3.969-8.83-8.83v-28.177c0-4.861,3.97-8.829,8.83-8.829h64.688
	c4.86,0,8.83,3.968,8.83,8.829V173.359L458.053,173.359z M450.61,116.213h-13.888c-4.068,0-7.441-3.076-7.441-6.846
	c0-3.771,3.373-6.847,7.441-6.847h13.889c4.068,0,7.441,3.075,7.441,6.847C458.053,113.136,454.68,116.213,450.61,116.213z"/>
<path stroke="#000000" stroke-width="10" stroke-miterlimit="10" d="M364.196,344.205h-71.533c-7.838,0-14.287-6.647-14.287-14.883
	l0.597-178.782c0-6.15-4.763-11.211-10.615-11.211h-90.682c-7.541,0-13.592,6.35-13.592,14.188v174.219
	c0,9.028-7.045,16.37-15.676,16.37h-70.74c-7.738,0-13.889,6.549-13.889,14.585v93.063c0,8.234,6.449,14.98,14.287,14.98H363.8
	c7.539,0,13.592-6.35,13.592-14.188v-94.55C377.393,350.356,371.438,344.205,364.196,344.205z M158.923,424.964H107.93v-37.503
	h50.994V424.964z M238.594,265.131h-40.084v-57.742h40.084V265.131z M337.012,424.964h-50.994v-37.503h50.994V424.964z"/>
</svg>
