<?xml version="1.0" encoding="utf-8"?>
<!-- Generator: Adobe Illustrator 19.0.0, SVG Export Plug-In . SVG Version: 6.00 Build 0)  -->
<svg version="1.1" id="Layer_1" xmlns="http://www.w3.org/2000/svg" xmlns:xlink="http://www.w3.org/1999/xlink" x="0px" y="0px"
	 viewBox="286 -376 612 792" style="enable-background:new 286 -376 612 792;" xml:space="preserve">
<style type="text/css">
	.st0{fill:none;stroke:#000000;stroke-width:20;stroke-miterlimit:10;}
	.st1{fill:none;stroke:#000000;stroke-width:12;stroke-miterlimit:10;}
	.st2{fill:none;stroke:#000000;stroke-width:10;stroke-miterlimit:10;}
	.st3{fill:none;stroke:#000000;stroke-width:8;stroke-miterlimit:10;}
</style>
<path class="st0" d="M827.4,304.6H372.6c-20.2,0-36.6-16.4-36.6-36.6v-413.5c0-20.2,16.4-36.6,36.6-36.6h454.8
	c20.2,0,36.6,16.4,36.6,36.6V268C864,288.2,847.6,304.6,827.4,304.6z"/>
<path class="st1" d="M799.1-12.7H691.9c-5.9,0-10.7-4.6-10.7-10.3v-93.3c0-5.7,4.7-10.3,10.7-10.3h107.1c5.9,0,10.7,4.6,10.7,10.3
	V-23C809.7-17.4,805-12.7,799.1-12.7z"/>
<path class="st2" d="M778.5-29.4h-65.2c-4.9,0-8.9-4-8.9-8.9v-28.4c0-4.9,4-8.9,8.9-8.9h65.2c4.9,0,8.9,4,8.9,8.9v28.4
	C787.4-33.4,783.4-29.4,778.5-29.4z"/>
<path class="st3" d="M779.9-95.9h-14c-4.1,0-7.5-3.1-7.5-6.9s3.4-6.9,7.5-6.9h14c4.1,0,7.5,3.1,7.5,6.9S784-95.9,779.9-95.9z"/>
<path class="st3" d="M726.5-95.9h-15.7c-3.5,0-6.3-2.8-6.3-6.3v-0.6c0-3.8,3.1-6.9,6.9-6.9h15.1c3.8,0,6.9,3.1,6.9,6.9l0,0
	C733.4-99,730.3-95.9,726.5-95.9z"/>
<path class="st0" d="M475.3,133.8H404c-7.8,0-14,6.6-14,14.7v93.8c0,8.3,6.5,15.1,14.4,15.1h288c7.6,0,13.7-6.4,13.7-14.3v-95.3
	c0-7.7-6-13.9-13.3-13.9h-72.1c-7.9,0-14.4-6.7-14.4-15l0.6-180.2c0-6.2-4.8-11.3-10.7-11.3h-91.4c-7.6,0-13.7,6.4-13.7,14.3v175.6
	C491.1,126.4,484,133.8,475.3,133.8z"/>
<rect x="525.8" y="-4" class="st1" width="40.4" height="58.2"/>
<rect x="614" y="177.5" class="st1" width="51.4" height="37.8"/>
<rect x="434.5" y="177.5" class="st1" width="51.4" height="37.8"/>
</svg>
