<?xml version="1.0" encoding="utf-8"?>
<!-- Generator: Adobe Illustrator 19.0.0, SVG Export Plug-In . SVG Version: 6.00 Build 0)  -->
<svg version="1.1" id="Layer_1" xmlns="http://www.w3.org/2000/svg" xmlns:xlink="http://www.w3.org/1999/xlink" x="0px" y="0px"
	 viewBox="0 0 612 792" style="enable-background:new 0 0 612 792;" xml:space="preserve">
<style type="text/css">
	.st0{fill:none;stroke:#000000;stroke-width:8;stroke-miterlimit:10;}
	.st1{fill:none;stroke:#000000;stroke-width:3;stroke-miterlimit:10;}
</style>
<path class="st0" d="M541.4,680.6H86.6C66.4,680.6,50,664.2,50,644V230.5c0-20.2,16.4-36.6,36.6-36.6h454.8
	c20.2,0,36.6,16.4,36.6,36.6V644C578,664.2,561.6,680.6,541.4,680.6z"/>
<path class="st0" d="M477.8,376.8h-92.5c-5.1,0-9.2-4.1-9.2-9.2v-83.1c0-5.1,4.1-9.2,9.2-9.2h92.5c5.1,0,9.2,4.1,9.2,9.2v83.1
	C487,372.6,482.9,376.8,477.8,376.8z"/>
<path class="st1" d="M465.1,365.7h-65.2c-4.9,0-8.9-4-8.9-8.9v-28.4c0-4.9,4-8.9,8.9-8.9h65.2c4.9,0,8.9,4,8.9,8.9v28.4
	C474,361.7,470,365.7,465.1,365.7z"/>
<path class="st1" d="M466.5,299.2h-14c-4.1,0-7.5-3.1-7.5-6.9s3.4-6.9,7.5-6.9h14c4.1,0,7.5,3.1,7.5,6.9S470.6,299.2,466.5,299.2z"
	/>
<path class="st1" d="M413.1,299.2h-15.7c-3.5,0-6.3-2.8-6.3-6.3v-0.6c0-3.8,3.1-6.9,6.9-6.9h15.1c3.8,0,6.9,3.1,6.9,6.9v0
	C420,296.1,416.9,299.2,413.1,299.2z"/>
<polygon class="st0" points="217.3,511.6 142.7,511.6 142.7,598.9 376,598.9 376,511.6 302.3,511.6 302.8,365.7 217.3,365.7 "/>
<rect x="239.8" y="397.7" class="st0" width="40.4" height="58.2"/>
<rect x="302.3" y="530.5" class="st0" width="51.4" height="37.8"/>
<rect x="165.8" y="530.5" class="st0" width="51.4" height="37.8"/>
</svg>
