<?xml version="1.0" encoding="utf-8"?>
<!-- Generator: Adobe Illustrator 19.0.0, SVG Export Plug-In . SVG Version: 6.00 Build 0)  -->
<svg version="1.1" id="Layer_1" xmlns="http://www.w3.org/2000/svg" xmlns:xlink="http://www.w3.org/1999/xlink" x="0px" y="0px"
	 viewBox="0 0 100 100" style="enable-background:new 0 0 100 100;" xml:space="preserve">
<style type="text/css">
	.st0{stroke:#FFFFFF;stroke-miterlimit:10;}
	.st1{fill:#FFFFFF;stroke:#000000;stroke-miterlimit:10;}
	.st2{fill:#ED1F24;stroke:#FFFFFF;stroke-miterlimit:10;}
	.st3{font-family:'MyriadPro-Regular';}
	.st4{font-size:12px;}
</style>
<rect id="XMLID_1_" x="26.2" y="20.2" class="st0" width="46.5" height="24.1"/>
<rect id="XMLID_2_" x="29.9" y="24" class="st1" width="7.1" height="16.8"/>
<rect id="XMLID_3_" x="61.8" y="24" class="st1" width="7.1" height="16.8"/>
<rect id="XMLID_4_" x="50.4" y="24" class="st1" width="7.1" height="16.8"/>
<rect id="XMLID_5_" x="40.2" y="23.9" class="st1" width="7.1" height="16.8"/>
<rect id="XMLID_6_" x="30.9" y="25.1" class="st2" width="5" height="3.4"/>
<rect id="XMLID_7_" x="62.9" y="36.6" class="st2" width="5" height="3.4"/>
<rect id="XMLID_8_" x="51.4" y="25.1" class="st2" width="5" height="3.4"/>
<rect id="XMLID_9_" x="41.2" y="25.1" class="st2" width="5" height="3.4"/>
<rect id="XMLID_18_" x="25.3" y="67.3" class="st0" width="46.5" height="24.1"/>
<rect id="XMLID_17_" x="28.9" y="71" class="st1" width="7.1" height="16.8"/>
<rect id="XMLID_16_" x="60.9" y="71" class="st1" width="7.1" height="16.8"/>
<rect id="XMLID_15_" x="49.5" y="71" class="st1" width="7.1" height="16.8"/>
<rect id="XMLID_14_" x="39.2" y="70.9" class="st1" width="7.1" height="16.8"/>
<rect id="XMLID_13_" x="30" y="72.1" class="st2" width="5" height="3.4"/>
<rect id="XMLID_12_" x="61.9" y="83.6" class="st2" width="5" height="3.4"/>
<rect id="XMLID_11_" x="50.5" y="83.6" class="st2" width="5" height="3.4"/>
<rect id="XMLID_10_" x="40.3" y="72.1" class="st2" width="5" height="3.4"/>
<text id="XMLID_19_" transform="matrix(1 0 0 1 21.2658 16.9197)" class="st3 st4">Single Flash</text>
<text id="XMLID_20_" transform="matrix(1 0 0 1 17.3601 62.3696)" class="st3 st4">Double Flash</text>
</svg>
