<?xml version="1.0" encoding="utf-8"?>
<!-- Generator: Adobe Illustrator 16.0.0, SVG Export Plug-In . SVG Version: 6.00 Build 0)  -->
<!DOCTYPE svg PUBLIC "-//W3C//DTD SVG 1.1//EN" "http://www.w3.org/Graphics/SVG/1.1/DTD/svg11.dtd">
<svg version="1.1" id="Layer_1" xmlns="http://www.w3.org/2000/svg" xmlns:xlink="http://www.w3.org/1999/xlink" x="0px" y="0px"
	 width="286px" height="722.5px" viewBox="4.14 111.445 286 722.5" enable-background="new 4.14 111.445 286 722.5"
	 xml:space="preserve">
<path fill="none" stroke="#000000" stroke-width="16" stroke-miterlimit="10" d="M8.785,161.958"/>
<path fill="none" stroke="#000000" stroke-miterlimit="10" d="M312.263-711.8"/>
<path fill="none" stroke="#000000" stroke-miterlimit="10" d="M1196.429,252.126"/>
<path fill="none" stroke="#000000" stroke-width="16" stroke-miterlimit="10" d="M344.361,681.369"/>
<path fill="none" stroke="#000000" stroke-miterlimit="10" d="M381.322-571.734"/>
<path fill="none" stroke="#000000" stroke-width="18" stroke-miterlimit="10" d="M269.367,121.981H25.515
	c-6.031,0-10.895,13.033-10.895,29.083V795.27c0,16.049,4.863,29.083,10.895,29.083h243.754c6.031,0,10.895-13.034,10.992-29.083
	V151.064C280.261,135.014,275.398,121.981,269.367,121.981z"/>
<path stroke="#000000" stroke-width="7" stroke-miterlimit="10" d="M204.585,379.06H96.132c-12.256,0-22.178,5.642-22.178,12.645
	v145.902c0,7.003,10.02,12.645,22.178,12.645h108.355c12.256,0,22.178-5.642,22.275-12.645V391.705
	C226.763,384.702,216.744,379.06,204.585,379.06z M182.896,490.529c0.096,3.502-3.113,6.226-7.004,6.226h-51.066
	c-3.891,0-7.002-2.821-7.002-6.226V438.88c0-3.501,3.209-6.225,7.002-6.225h51.066c3.891,0,7.004,2.82,7.004,6.225V490.529z"/>
</svg>
