<?xml version="1.0" encoding="utf-8"?>
<!-- Generator: Adobe Illustrator 19.0.0, SVG Export Plug-In . SVG Version: 6.00 Build 0)  -->
<svg version="1.1" id="Layer_1" xmlns="http://www.w3.org/2000/svg" xmlns:xlink="http://www.w3.org/1999/xlink" x="0px" y="0px"
	 viewBox="286 -376 612 792" style="enable-background:new 286 -376 612 792;" xml:space="preserve">
<style type="text/css">
	.st0{fill:none;stroke:#000000;stroke-width:16;stroke-miterlimit:10;}
	.st1{fill:none;stroke:#000000;stroke-miterlimit:10;}
</style>
<path class="st0" d="M725.8,381H475.2c-6.2,0-11.2-13.4-11.2-29.9v-662.3c0-16.5,5-29.9,11.2-29.9h250.7c6.2,0,11.2,13.4,11.2,29.9
	v662.3C737,367.6,732,381,725.8,381z"/>
<path class="st0" d="M347-256"/>
<path class="st0" d="M346-256"/>
<path class="st0" d="M458-300"/>
<path class="st0" d="M347-256"/>
<path class="st0" d="M319.8-296"/>
<path class="st1" d="M208.8-252"/>
<path class="st1" d="M313-758"/>
<path class="st0" d="M312-238"/>
<path class="st1" d="M1222,233"/>
<path class="st0" d="M803,234"/>
<path class="st1" d="M384-614"/>
<path class="st0" d="M384-190"/>
<path class="st0" d="M659.2,99.2H547.8c-12.5,0-22.8-5.8-22.8-13V-63.8c0-7.2,10.2-13,22.8-13h111.5c12.5,0,22.8,5.8,22.8,13V86.2
	C682,93.4,671.8,99.2,659.2,99.2z"/>
<path class="st0" d="M629.8,44.2h-52.5c-4,0-7.2-2.9-7.2-6.4v-53.1c0-3.6,3.3-6.4,7.2-6.4h52.5c4,0,7.2,2.9,7.2,6.4v53.1
	C637.1,41.4,633.8,44.2,629.8,44.2z"/>
</svg>
