<?xml version="1.0" encoding="utf-8"?>
<!-- Generator: Adobe Illustrator 19.0.0, SVG Export Plug-In . SVG Version: 6.00 Build 0)  -->
<svg version="1.1" id="Layer_1" xmlns="http://www.w3.org/2000/svg" xmlns:xlink="http://www.w3.org/1999/xlink" x="0px" y="0px"
	 viewBox="286 -376 612 792" style="enable-background:new 286 -376 612 792;" xml:space="preserve">
<style type="text/css">
	.st0{fill:none;stroke:#515151;stroke-width:20;stroke-miterlimit:10;}
	.st1{fill:none;stroke:#515151;stroke-width:12;stroke-miterlimit:10;}
	.st2{font-family:'MyriadPro-Regular';}
	.st3{font-size:24px;}
	.st4{fill:none;stroke:#000000;stroke-miterlimit:10;}
	.st5{fill:#269911;stroke:#148700;stroke-miterlimit:10;}
	.st6{fill:#24A508;stroke:#148700;stroke-miterlimit:10;}
	.st7{fill:#FFFFFF;}
	.st8{font-size:12px;}
</style>
<path class="st0" d="M695.5,403H510.5c-16.8,0-30.5-12.2-30.5-27.2v-713.6c0-15,13.6-27.2,30.5-27.2h185.1
	c16.8,0,30.5,12.2,30.5,27.2v713.6C726,390.8,712.4,403,695.5,403z"/>
<path class="st1" d="M588.9-188.2H559c-2.2,0-4-1.8-4-4v-8.5c0-2.2,1.8-4,4-4h29.9c2.2,0,4,1.8,4,3v8.5
	C592.9-190.1,591.1-188.2,588.9-188.2z"/>
<path class="st1" d="M660.2-188.2h-29.9c-2.2,0-4-1.8-4-4v-8.5c0-2.2,1.8-4,4-4h29.9c2.2,0,4,1.8,4,3v8.5
	C664.2-190.1,662.5-188.2,660.2-188.2z"/>
<path class="st1" d="M660.2-118.7h-29.9c-2.2,0-4-1.8-4-4v-8.5c0-2.2,1.8-4,4-4h29.9c2.2,0,4,1.8,4,3v8.5
	C664.2-120.5,662.4-118.7,660.2-118.7z"/>
<path class="st1" d="M588.9-121.1H559c-2.2,0-4-1.8-4-4v-8.5c0-2.2,1.8-4,4-4h29.9c2.2,0,4,1.8,4,3v8.5
	C592.9-122.9,591.1-121.1,588.9-121.1z"/>
<path class="st1" d="M588.9-58H559c-2.2,0-4-1.8-4-4v-8.5c0-2.2,1.8-4,4-4h29.9c2.2,0,4,1.8,4,3v8.5C592.9-59.8,591.1-58,588.9-58z"
	/>
<path class="st1" d="M661.1-58h-29.9c-2.2,0-4-1.8-4-4v-8.5c0-2.2,1.8-4,4-4h29.9c2.2,0,4,1.8,4,3v8.5C665.1-59.8,663.3-58,661.1-58
	z"/>
<path class="st1" d="M588.9,7.1H559c-2.2,0-4-1.8-4-4v-8.5c0-2.2,1.8-4,4-4h29.9c2.2,0,4,1.8,4,4v8.5C592.9,5.4,591.1,7.1,588.9,7.1
	z"/>
<path class="st1" d="M661.1,7.1h-29.9c-2.2,0-4-1.8-4-4v-8.5c0-2.2,1.8-4,4-4h29.9c2.2,0,4,1.8,4,4v8.5
	C665.1,5.4,663.3,7.1,661.1,7.1z"/>
<path class="st1" d="M588.9,94.4H559c-2.2,0-4-1.8-4-4v-8.5c0-2.2,1.8-4,4-4h29.9c2.2,0,4,1.8,4,4v8.5
	C592.9,92.6,591.1,94.4,588.9,94.4z"/>
<path class="st1" d="M660.2,94.4h-29.9c-2.2,0-4-1.8-4-4v-8.5c0-2.2,1.8-4,4-4h29.9c2.2,0,4,1.8,4,4v8.5
	C664.2,92.6,662.4,94.4,660.2,94.4z"/>
<path class="st1" d="M650.5,216.8h-81.5c-2.6,0-4.7-1.8-4.7-4V170c0-2.2,2.1-4,4.7-4h81.5c2.6,0,4.7,1.8,4.7,4v42.8
	C655.2,215,653.1,216.8,650.5,216.8z"/>
<text transform="matrix(0.9624 0 0 1 574.55 254.5929)" class="st2 st3">a-b-c-d</text>
<text transform="matrix(0.9624 0 0 1 574.55 254.5929)" class="st4 st2 st3">a-b-c-d</text>
<polygon class="st5" points="585.7,46.6 562.3,46.6 574,68.4 "/>
<polygon class="st6" points="634.3,68.5 657.8,68.2 645.8,46.5 "/>
<text transform="matrix(1.1078 0 0 1 569.4377 57.4855)" class="st7 st2 st8">O</text>
<text transform="matrix(1.1078 0 0 1 644.6047 64.0963)" class="st7 st2 st8">l</text>
<polygon class="st5" points="585.7,-39.1 562.2,-39.1 574,-17.2 "/>
<polygon class="st5" points="585.1,-106.4 561.7,-106.4 573.4,-84.5 "/>
<polygon class="st5" points="586.2,-168.7 562.9,-168.7 574.5,-146.8 "/>
<polygon class="st5" points="585.7,-238.6 562.2,-238.6 574,-216.9 "/>
<polygon class="st6" points="633.3,-19.1 656.8,-19.4 644.8,-41.1 "/>
<polygon class="st6" points="634.4,-84.4 657.7,-84.7 645.8,-106.5 "/>
<polygon class="st6" points="633.9,-145.9 657.3,-146.2 645.3,-167.9 "/>
<polygon class="st6" points="633.3,-215.8 655.2,-216.1 644.8,-237.8 "/>
<text transform="matrix(1.1078 0 0 1 569.3391 -25.0523)" class="st7 st2 st8">O</text>
<text transform="matrix(1.1078 0 0 1 568.7891 -94.3711)" class="st7 st2 st8">O</text>
<text transform="matrix(1.1078 0 0 1 569.939 -157.6696)" class="st7 st2 st8">O</text>
<text transform="matrix(1.1078 0 0 1 569.3391 -227.752)" class="st7 st2 st8">O</text>
<text transform="matrix(1.1078 0 0 1 643.6047 -22.4723)" class="st7 st2 st8">l</text>
<text transform="matrix(1.1078 0 0 1 644.5723 -89.5469)" class="st7 st2 st8">l</text>
<text transform="matrix(1.1078 0 0 1 644.2047 -149.5309)" class="st7 st2 st8">l</text>
<text transform="matrix(1.1078 0 0 1 643.6047 -220.8457)" class="st7 st2 st8">l</text>
<path class="st1" d="M585.2,203.7H585c-1.7,0-3.1-1.4-3.1-3.1v-18.4c0-1.7,1.4-3.1,3.1-3.1h0.1c1.7,0,3.1,1.4,3.1,3.1v18.4
	C588.2,202.3,586.8,203.7,585.2,203.7z"/>
</svg>
