<?xml version="1.0" encoding="UTF-8" ?>
<!DOCTYPE svg PUBLIC "-//W3C//DTD SVG 1.1//EN" "http://www.w3.org/Graphics/SVG/1.1/DTD/svg11.dtd">
<svg width="500pt" height="500pt" viewBox="0 0 500 500" version="1.1" xmlns="http://www.w3.org/2000/svg">
<path fill="#ffffff" d=" M 0.00 0.00 L 500.00 0.00 L 500.00 500.00 L 0.00 500.00 L 0.00 0.00 Z" />
<path fill="#e8e9e5" d=" M 186.36 21.98 C 194.28 20.17 202.56 20.89 210.60 21.19 C 217.68 22.20 224.84 21.66 231.97 21.74 C 249.98 21.77 268.00 21.73 286.01 21.89 C 289.21 21.91 292.40 21.62 295.56 21.19 C 303.02 20.51 310.54 20.96 318.02 20.88 C 320.44 20.40 321.93 22.79 321.67 24.94 C 321.65 116.61 321.66 208.28 321.62 299.95 C 321.51 306.71 322.13 313.52 321.22 320.25 C 320.98 221.43 321.35 122.59 321.10 23.77 C 279.73 23.60 238.35 23.64 196.98 24.04 C 193.72 24.06 190.43 24.07 187.23 23.38 L 186.36 21.98 Z" />
<path fill="#a09f9f" d=" M 210.60 21.19 C 238.92 21.24 267.25 21.29 295.56 21.19 C 292.40 21.62 289.21 21.91 286.01 21.89 C 268.00 21.73 249.98 21.77 231.97 21.74 C 224.84 21.66 217.68 22.20 210.60 21.19 Z" />
<path fill="#a09f9f" d=" M 187.23 23.38 C 190.43 24.07 193.72 24.06 196.98 24.04 C 238.35 23.64 279.73 23.60 321.10 23.77 C 321.35 122.59 320.98 221.43 321.22 320.25 C 321.18 333.49 321.22 346.72 321.11 359.96 C 320.10 381.45 321.74 402.96 321.00 424.46 C 320.28 415.44 319.43 406.42 319.56 397.36 C 319.32 391.05 320.07 384.65 318.62 378.44 C 317.82 385.28 318.40 392.18 318.10 399.05 C 317.31 416.47 317.79 433.92 317.22 451.35 C 316.54 457.97 316.73 464.63 316.54 471.27 C 316.37 469.80 316.22 468.34 316.10 466.87 C 316.19 407.93 316.15 348.98 316.18 290.03 C 316.15 202.24 316.47 114.44 316.29 26.65 C 289.87 26.72 263.45 26.76 237.02 26.80 C 222.04 27.68 207.02 27.34 192.01 27.37 C 191.83 29.90 191.66 32.43 191.64 34.97 C 192.37 140.63 192.89 246.29 193.57 351.95 C 193.96 390.92 193.40 429.91 194.37 468.88 C 194.08 469.48 193.50 470.68 193.20 471.28 C 193.38 464.25 192.95 457.25 192.62 450.23 C 192.32 419.82 191.79 389.41 191.70 358.99 C 191.44 350.47 192.08 341.93 191.19 333.44 C 189.60 339.52 190.71 345.85 190.37 352.05 C 190.54 372.71 189.61 393.34 189.58 414.00 C 189.30 423.14 189.95 432.31 188.94 441.42 C 188.38 402.96 188.80 364.49 188.49 326.02 C 187.85 230.03 187.43 134.04 187.03 38.05 C 187.06 33.16 186.88 28.26 187.23 23.38 Z" />
<path fill="#e8e9e5" d=" M 192.01 27.37 C 207.02 27.34 222.04 27.68 237.02 26.80 C 263.45 26.76 289.87 26.72 316.29 26.65 C 316.47 114.44 316.15 202.24 316.18 290.03 C 316.15 348.98 316.19 407.93 316.10 466.87 C 315.98 468.11 315.83 469.35 315.68 470.59 C 275.38 470.48 235.08 470.71 194.78 470.85 C 194.67 470.35 194.47 469.37 194.37 468.88 C 193.40 429.91 193.96 390.92 193.57 351.95 C 192.89 246.29 192.37 140.63 191.64 34.97 C 191.66 32.43 191.83 29.90 192.01 27.37 Z" />
<path fill="#5fbc46" d=" M 219.98 103.80 C 225.32 103.21 230.75 103.30 236.12 103.63 C 237.55 103.38 238.19 105.59 237.55 106.58 C 235.07 111.58 232.12 116.34 229.05 121.00 C 225.69 119.21 224.49 115.40 222.49 112.41 C 221.40 109.76 217.70 106.60 219.98 103.80 Z" />
<path fill="#5fbc46" d=" M 279.08 103.84 C 280.96 102.42 282.05 104.77 282.97 106.03 C 285.21 109.78 287.60 113.47 289.50 117.41 C 290.49 119.00 288.61 120.63 287.05 120.34 C 282.07 120.40 277.05 120.71 272.10 120.16 C 269.52 119.27 271.39 116.81 272.15 115.23 C 274.46 111.44 276.36 107.36 279.08 103.84 Z" />
<path fill="#e8e9e5" d=" M 226.29 105.37 C 229.43 103.60 233.71 106.52 233.47 110.01 C 233.36 113.80 228.22 116.62 225.38 113.61 C 222.49 111.54 223.05 106.76 226.29 105.37 Z" />
<path fill="#5fbc46" d=" M 227.12 107.13 C 228.85 105.84 231.89 107.84 231.54 109.97 C 231.66 112.26 228.37 113.93 226.66 112.30 C 224.67 111.13 225.00 107.95 227.12 107.13 Z" />
<path fill="#e8e9e5" d=" M 279.15 117.77 C 278.97 113.85 278.08 109.66 279.93 105.99 C 282.95 108.99 281.03 113.69 281.51 117.47 C 280.92 117.54 279.74 117.69 279.15 117.77 Z" />
<path fill="#bbc9b4" d=" M 215.47 125.67 C 224.24 125.44 233.04 125.64 241.82 125.52 C 241.57 125.82 241.09 126.42 240.85 126.71 C 235.24 126.21 229.61 126.61 223.99 126.45 C 221.04 126.45 218.02 126.21 215.16 127.05 C 213.67 130.41 214.72 134.08 215.43 137.49 C 220.82 137.30 226.21 137.39 231.60 137.27 C 235.10 137.39 238.58 137.87 242.06 138.29 C 241.13 140.38 239.72 142.20 237.95 143.65 C 237.87 142.32 237.67 140.47 235.95 140.41 C 231.64 139.86 227.25 140.03 222.92 140.30 C 221.13 140.20 219.75 141.34 218.40 142.33 C 216.08 139.52 212.56 136.96 212.63 132.95 C 212.68 130.42 212.00 126.11 215.47 125.67 Z" />
<path fill="#a09f9f" d=" M 267.39 125.63 C 272.25 125.31 277.15 125.62 282.03 125.48 C 286.41 125.53 290.92 124.95 295.18 126.29 C 286.46 126.70 277.71 126.15 268.99 126.51 C 265.96 126.16 265.99 129.74 266.14 131.83 C 266.16 133.61 266.16 135.40 266.13 137.19 C 263.80 134.86 264.22 131.38 264.59 128.43 C 264.75 127.01 265.89 125.66 267.39 125.63 Z" />
<path fill="#5fbc46" d=" M 253.87 133.15 C 254.29 130.77 251.97 127.01 254.80 125.71 C 254.79 127.91 254.70 130.12 254.61 132.32 C 255.19 133.10 255.77 133.87 256.36 134.65 C 254.92 134.65 253.49 134.65 252.06 134.65 C 252.52 134.28 253.42 133.52 253.87 133.15 Z" />
<path fill="#ffffff" d=" M 215.16 127.05 C 218.02 126.21 221.04 126.45 223.99 126.45 C 229.61 126.61 235.24 126.21 240.85 126.71 C 241.37 126.76 242.41 126.86 242.93 126.91 C 242.82 129.96 243.38 133.22 242.20 136.11 C 238.87 137.05 235.07 136.53 231.60 137.27 C 226.21 137.39 220.82 137.30 215.43 137.49 C 214.72 134.08 213.67 130.41 215.16 127.05 Z" />
<path fill="#ffffff" d=" M 266.14 131.83 C 265.99 129.74 265.96 126.16 268.99 126.51 C 277.71 126.15 286.46 126.70 295.18 126.29 C 295.26 129.75 295.05 133.20 294.50 136.62 C 285.41 136.69 276.32 136.52 267.23 136.77 C 266.83 135.13 266.36 133.50 266.14 131.83 Z" />
<path fill="#bbc9b4" d=" M 267.16 138.25 C 275.68 138.01 284.19 138.15 292.70 138.56 C 291.60 141.12 290.70 143.80 289.13 146.12 C 288.02 146.64 286.77 146.71 285.58 146.95 C 284.11 144.54 282.71 142.04 280.76 139.97 C 278.15 141.01 276.99 143.77 275.54 145.96 C 273.82 145.58 271.72 145.89 270.34 144.68 C 269.56 142.38 269.40 139.70 267.16 138.25 Z" />
<path fill="#5fbc46" d=" M 218.40 142.33 C 219.75 141.34 221.13 140.20 222.92 140.30 C 227.25 140.03 231.64 139.86 235.95 140.41 C 237.67 140.47 237.87 142.32 237.95 143.65 C 235.08 148.47 232.37 153.42 228.97 157.91 C 224.08 153.81 221.96 147.48 218.40 142.33 Z" />
<path fill="#5fbc46" d=" M 275.54 145.96 C 276.99 143.77 278.15 141.01 280.76 139.97 C 282.71 142.04 284.11 144.54 285.58 146.95 C 286.96 149.35 288.59 151.64 289.59 154.25 C 290.15 155.55 289.42 156.95 287.97 157.09 C 282.64 157.59 277.26 157.28 271.92 157.26 C 271.54 156.70 270.80 155.60 270.42 155.05 C 272.07 151.99 273.76 148.95 275.54 145.96 Z" />
<path fill="#e8e9e5" d=" M 226.42 142.47 C 230.20 140.64 235.23 144.89 232.84 148.77 C 231.52 152.04 226.52 152.70 224.76 149.47 C 222.69 147.20 224.00 143.83 226.42 142.47 Z" />
<path fill="#5fbc46" d=" M 226.92 143.58 C 228.82 142.91 231.38 143.66 231.72 145.88 C 232.83 148.97 228.14 151.37 226.21 148.83 C 224.51 147.43 225.38 144.74 226.92 143.58 Z" />
<path fill="#e8e9e5" d=" M 279.36 144.13 C 279.87 144.17 280.89 144.23 281.41 144.26 C 281.42 147.61 281.42 150.96 281.39 154.31 C 280.88 154.39 279.87 154.55 279.36 154.63 C 279.29 151.13 279.31 147.63 279.36 144.13 Z" />
<path fill="#a09f9f" d=" M 212.99 163.95 C 216.24 161.77 220.27 162.42 223.96 162.36 C 229.99 162.48 236.03 162.25 242.06 162.48 C 234.71 162.85 227.36 162.57 220.01 162.58 C 218.40 162.73 216.54 162.36 215.18 163.45 C 215.08 163.82 214.89 164.56 214.79 164.93 C 214.05 167.81 214.45 170.81 214.23 173.75 C 212.14 170.90 213.15 167.22 212.99 163.95 Z" />
<path fill="#5fbc46" d=" M 251.24 163.21 C 253.04 162.42 255.88 161.64 256.77 164.08 C 257.22 166.80 254.58 168.43 253.09 170.26 C 254.19 170.41 256.40 170.71 257.50 170.86 C 255.64 171.54 253.63 171.52 251.68 171.51 C 253.06 168.91 255.41 166.73 255.72 163.68 C 254.60 163.56 252.36 163.33 251.24 163.21 Z" />
<path fill="#a09f9f" d=" M 264.74 164.75 C 265.39 161.87 268.85 162.58 271.02 162.33 C 278.72 162.45 286.43 162.07 294.12 162.64 L 293.14 162.67 C 286.10 162.97 279.06 162.70 272.02 162.65 C 270.17 162.73 268.12 162.55 266.55 163.72 C 265.88 166.04 266.15 168.49 266.29 170.86 C 266.34 171.73 266.43 173.47 266.47 174.34 C 263.67 171.94 264.19 167.97 264.74 164.75 Z" />
<path fill="#ffffff" d=" M 266.55 163.72 C 268.12 162.55 270.17 162.73 272.02 162.65 C 279.06 162.70 286.10 162.97 293.14 162.67 C 295.80 165.33 294.83 169.36 294.32 172.67 C 291.49 174.10 287.80 173.48 284.67 174.06 C 278.80 173.58 272.92 173.66 267.04 173.65 C 266.75 172.73 266.51 171.80 266.29 170.86 C 266.15 168.49 265.88 166.04 266.55 163.72 Z" />
<path fill="#ffffff" d=" M 214.79 164.93 C 214.89 164.56 215.08 163.82 215.18 163.45 C 224.42 164.08 233.69 163.32 242.93 163.86 C 242.87 166.80 243.04 169.80 242.41 172.70 C 241.06 174.15 238.75 173.30 237.00 173.55 C 229.76 173.15 222.47 173.93 215.25 173.10 C 215.03 170.38 214.63 167.66 214.79 164.93 Z" />
<path fill="#bbc9b4" d=" M 267.04 173.65 C 272.92 173.66 278.80 173.58 284.67 174.06 C 287.38 174.35 290.10 174.70 292.83 174.93 C 292.03 177.35 291.41 179.87 290.15 182.11 C 289.28 183.67 287.27 183.48 285.77 183.91 C 284.29 181.51 282.95 178.97 281.01 176.90 C 277.32 177.73 276.34 182.26 274.27 185.00 C 271.52 181.43 269.73 177.26 267.04 173.65 Z" />
<path fill="#5fbc46" d=" M 220.20 181.81 C 219.14 180.31 218.34 177.23 220.93 176.89 C 226.01 176.37 231.14 176.75 236.24 176.68 C 236.85 177.03 238.06 177.71 238.67 178.06 C 236.95 183.12 233.75 187.49 231.01 192.03 C 230.42 193.26 228.76 194.74 227.51 193.41 C 224.65 189.84 222.61 185.68 220.20 181.81 Z" />
<path fill="#5fbc46" d=" M 274.27 185.00 C 276.34 182.26 277.32 177.73 281.01 176.90 C 282.95 178.97 284.29 181.51 285.77 183.91 C 287.42 186.95 290.08 189.83 289.69 193.54 C 284.44 193.86 279.18 193.90 273.94 193.78 C 272.50 193.91 271.38 192.95 270.25 192.26 C 271.53 189.80 272.86 187.38 274.27 185.00 Z" />
<path fill="#e8e9e5" d=" M 226.31 179.39 C 229.64 176.96 235.09 181.10 233.20 184.93 C 232.27 187.86 228.14 189.56 225.84 187.10 C 223.31 185.25 223.56 180.90 226.31 179.39 Z" />
<path fill="#5fbc46" d=" M 224.96 184.14 C 225.79 182.75 226.01 180.33 228.03 180.18 C 230.10 179.56 232.48 181.75 231.87 183.86 C 231.70 185.73 229.78 186.85 228.02 186.61 C 226.96 185.83 225.94 185.01 224.96 184.14 Z" />
<path fill="#e8e9e5" d=" M 279.48 180.40 C 279.93 180.50 280.84 180.69 281.29 180.79 C 280.88 184.44 283.15 189.32 279.82 191.98 C 278.98 188.17 279.31 184.26 279.48 180.40 Z" />
<path fill="#5fbc46" d=" M 251.74 199.95 C 253.31 199.46 254.95 199.31 256.60 199.24 C 256.58 202.06 256.62 204.88 256.59 207.71 C 254.88 207.59 252.90 208.03 251.56 206.66 C 252.78 206.74 253.99 206.84 255.21 206.96 C 255.49 206.11 255.77 205.27 256.05 204.42 C 255.46 204.11 254.27 203.50 253.68 203.20 C 254.34 202.61 255.67 201.42 256.33 200.83 C 254.80 200.52 253.27 200.26 251.74 199.95 Z" />
<path fill="#a09f9f" d=" M 264.77 209.49 C 264.54 205.76 263.53 201.36 266.87 198.66 L 266.62 199.98 C 265.97 203.08 266.01 206.26 266.14 209.41 L 264.77 209.49 Z" />
<path fill="#bbc9b4" d=" M 212.99 201.06 C 213.53 200.56 214.62 199.57 215.16 199.07 L 215.07 200.63 C 214.87 203.73 214.91 206.83 214.98 209.93 C 214.55 209.82 213.70 209.61 213.27 209.51 C 212.81 206.71 212.99 203.87 212.99 201.06 Z" />
<path fill="#ffffff" d=" M 215.07 200.63 C 224.26 199.45 233.58 200.30 242.83 200.23 C 242.88 203.37 242.82 206.51 242.67 209.65 C 233.44 209.77 224.19 209.20 214.98 209.93 C 214.91 206.83 214.87 203.73 215.07 200.63 Z" />
<path fill="#ffffff" d=" M 266.62 199.98 C 275.79 200.29 284.96 199.99 294.13 200.19 C 294.36 203.23 295.47 206.93 293.65 209.58 C 284.51 209.96 275.29 209.85 266.14 209.41 C 266.01 206.26 265.97 203.08 266.62 199.98 Z" />
<path fill="#bbc9b4" d=" M 269.11 213.88 C 271.00 212.92 272.81 211.44 275.03 211.38 C 281.10 211.16 287.18 211.51 293.26 211.49 C 293.41 212.68 293.60 213.87 293.84 215.05 C 294.82 215.44 295.85 215.73 296.87 216.03 C 295.99 217.04 295.10 218.05 294.23 219.06 C 294.61 220.01 295.00 220.95 295.39 221.90 C 293.50 223.91 290.92 224.68 288.24 224.82 C 285.68 220.69 283.72 216.10 280.08 212.76 C 278.02 215.53 276.13 218.43 274.41 221.42 C 271.99 219.41 269.92 216.98 269.11 213.88 Z" />
<path fill="#5fbc46" d=" M 220.47 218.52 C 219.42 217.08 219.40 215.32 219.46 213.63 C 225.83 213.28 232.23 213.16 238.60 213.70 C 238.24 218.58 234.70 222.29 232.51 226.45 C 231.29 228.06 230.56 230.92 228.00 230.43 C 225.07 226.75 222.91 222.53 220.47 218.52 Z" />
<path fill="#5fbc46" d=" M 274.41 221.42 C 276.13 218.43 278.02 215.53 280.08 212.76 C 283.72 216.10 285.68 220.69 288.24 224.82 C 289.10 226.31 290.81 228.46 289.04 230.00 C 283.41 230.90 277.62 230.25 271.92 230.36 C 271.58 229.81 270.89 228.70 270.54 228.15 C 271.84 225.91 273.11 223.66 274.41 221.42 Z" />
<path fill="#e8e9e5" d=" M 227.31 215.46 C 230.79 214.16 234.87 217.98 233.39 221.51 C 232.32 224.58 227.91 225.98 225.65 223.36 C 223.07 221.17 223.97 216.34 227.31 215.46 Z" />
<path fill="#5fbc46" d=" M 225.66 220.98 C 224.94 219.07 226.32 217.46 227.88 216.56 C 230.41 215.88 231.52 218.47 232.81 220.07 C 231.59 221.35 230.33 222.59 229.05 223.80 C 227.88 222.91 226.62 222.11 225.66 220.98 Z" />
<path fill="#e8e9e5" d=" M 279.43 217.14 C 279.92 217.20 280.89 217.31 281.38 217.37 C 281.47 220.77 281.52 224.17 281.50 227.57 C 280.97 227.60 279.91 227.64 279.38 227.67 C 279.35 224.16 279.37 220.65 279.43 217.14 Z" />
<path fill="#a09f9f" d=" M 264.91 237.73 C 266.07 235.00 269.59 235.62 271.98 235.33 C 279.02 235.43 286.08 235.10 293.11 235.65 C 284.16 235.97 275.14 234.98 266.24 236.25 C 266.15 239.10 266.13 241.96 266.25 244.82 L 266.25 247.11 C 263.94 244.54 264.46 240.86 264.91 237.73 Z" />
<path fill="#bbc9b4" d=" M 212.89 237.75 C 213.77 237.15 214.65 236.55 215.54 235.95 C 215.07 239.49 214.98 243.06 214.97 246.62 C 211.62 245.03 213.44 240.65 212.89 237.75 Z" />
<path fill="#ffffff" d=" M 215.54 235.95 C 224.60 237.03 233.74 236.27 242.84 236.48 C 242.98 239.86 242.91 243.26 242.67 246.64 C 233.44 246.62 224.20 246.65 214.97 246.62 C 214.98 243.06 215.07 239.49 215.54 235.95 Z" />
<path fill="#5fbc46" d=" M 251.05 241.16 C 252.68 239.05 254.36 236.99 256.13 234.99 C 256.55 237.00 256.95 239.02 257.41 241.03 C 256.90 242.34 256.40 243.65 255.90 244.97 C 255.73 244.13 255.41 242.45 255.25 241.61 C 253.84 241.46 252.45 241.32 251.05 241.16 Z" />
<path fill="#ffffff" d=" M 266.24 236.25 C 275.14 234.98 284.16 235.97 293.11 235.65 C 293.75 236.56 294.39 237.47 295.04 238.38 C 294.95 238.98 294.78 240.19 294.69 240.80 C 294.40 242.72 294.01 244.63 293.65 246.55 C 284.80 246.57 275.95 246.61 267.10 246.61 C 266.89 246.16 266.46 245.26 266.25 244.82 C 266.13 241.96 266.15 239.10 266.24 236.25 Z" />
<path fill="#bbc9b4" d=" M 295.04 238.38 C 295.10 238.00 295.22 237.23 295.28 236.85 C 295.55 239.63 295.67 242.44 295.58 245.24 C 295.22 243.77 294.88 242.29 294.69 240.80 C 294.78 240.19 294.95 238.98 295.04 238.38 Z" />
<path fill="#ffffff" d=" M 254.98 239.54 C 254.33 239.03 254.33 239.03 254.98 239.54 Z" />
<path fill="#5fbc46" d=" M 273.48 270.43 C 276.49 269.19 279.91 269.94 283.09 269.73 C 284.65 269.87 286.95 269.39 287.76 271.18 C 288.67 275.60 288.16 280.20 287.57 284.63 C 282.65 284.82 277.68 285.16 272.79 284.35 C 273.08 279.75 271.74 274.76 273.48 270.43 Z" />
<path fill="#5fbc46" d=" M 221.61 270.59 C 226.50 269.52 231.59 269.54 236.51 270.45 C 236.72 275.15 236.75 279.85 236.54 284.54 C 231.62 285.35 226.53 285.58 221.66 284.41 C 221.53 279.80 221.50 275.20 221.61 270.59 Z" />
<path fill="#e8e9e5" d=" M 227.96 272.42 C 228.49 272.34 229.54 272.16 230.07 272.07 L 229.27 273.69 C 232.81 273.51 235.57 277.55 233.72 280.70 C 232.10 284.08 226.75 284.38 224.83 281.12 C 223.21 278.76 224.61 275.96 226.01 273.90 C 226.73 273.98 228.18 274.16 228.91 274.25 L 227.96 272.42 Z" />
<path fill="#e8e9e5" d=" M 278.38 274.47 C 280.67 272.54 284.56 274.97 283.84 277.90 C 283.77 281.31 278.38 281.99 277.20 278.94 C 276.03 277.36 276.98 275.47 278.38 274.47 Z" />
<path fill="#5fbc46" d=" M 226.86 274.26 C 227.62 275.22 228.35 276.22 229.08 277.22 C 229.72 276.21 230.38 275.21 231.08 274.23 C 231.89 276.36 234.01 279.63 231.25 281.27 C 229.26 283.10 225.91 281.43 225.50 278.99 C 225.82 277.38 226.27 275.80 226.86 274.26 Z" />
<path fill="#ffffff" d=" M 226.98 290.75 C 232.40 290.79 237.83 290.02 243.24 290.77 C 243.13 294.14 242.98 297.51 242.80 300.88 C 233.54 301.04 224.28 300.77 215.03 300.73 C 215.10 297.73 215.12 294.74 215.07 291.74 C 218.88 290.28 223.00 290.84 226.98 290.75 Z" />
<path fill="#bbc9b4" d=" M 215.03 300.73 C 211.76 298.46 212.88 293.01 215.03 290.20 L 215.07 291.74 C 215.12 294.74 215.10 297.73 215.03 300.73 Z" />
<path fill="#ffffff" d=" M 266.97 291.19 C 276.03 291.09 285.10 290.92 294.16 291.14 C 294.36 294.45 295.67 298.49 293.69 301.38 C 286.82 301.87 279.92 301.36 273.03 301.60 C 271.12 301.43 268.94 301.95 267.25 300.85 C 266.34 297.70 266.68 294.40 266.97 291.19 Z" />
<path fill="#bbc9b4" d=" M 244.37 300.18 C 244.10 297.39 244.15 294.58 244.52 291.80 C 244.80 294.59 244.77 297.40 244.37 300.18 Z" />
<path fill="#a09f9f" d=" M 266.01 300.94 C 264.20 297.87 264.28 293.52 266.20 290.51 C 266.23 293.99 266.23 297.47 266.01 300.94 Z" />
<path fill="#bbc9b4" d=" M 244.67 329.04 C 253.84 330.03 263.10 328.80 272.24 329.74 C 273.20 332.73 273.00 335.93 272.91 339.02 C 272.70 340.19 273.08 341.90 271.63 342.37 C 263.98 342.96 256.16 341.36 248.64 343.38 C 250.07 345.24 252.11 346.71 253.11 348.89 C 252.31 351.13 250.18 352.29 247.93 351.34 C 247.95 348.66 247.95 345.98 247.97 343.31 C 246.28 343.63 244.58 343.94 242.89 344.22 C 242.84 344.90 242.76 346.25 242.72 346.93 C 242.33 346.73 241.57 346.34 241.19 346.14 C 240.64 346.90 240.11 347.68 239.57 348.46 C 239.45 347.69 239.20 346.17 239.08 345.41 C 235.42 341.63 235.81 336.11 236.35 331.29 C 236.74 330.71 237.52 329.53 237.91 328.95 C 238.72 333.49 236.55 338.86 239.20 342.87 C 241.40 344.60 244.18 343.18 245.08 340.81 C 245.83 336.91 245.54 332.89 244.67 329.04 Z" />
<path fill="#bbc9b4" d=" M 190.37 352.05 C 190.71 345.85 189.60 339.52 191.19 333.44 C 192.08 341.93 191.44 350.47 191.70 358.99 C 191.79 389.41 192.32 419.82 192.62 450.23 C 192.95 457.25 193.38 464.25 193.20 471.28 C 193.50 470.68 194.08 469.48 194.37 468.88 C 194.47 469.37 194.67 470.35 194.78 470.85 C 235.08 470.71 275.38 470.48 315.68 470.59 C 315.83 469.35 315.98 468.11 316.10 466.87 C 316.22 468.34 316.37 469.80 316.54 471.27 C 316.73 464.63 316.54 457.97 317.22 451.35 C 317.79 433.92 317.31 416.47 318.10 399.05 C 318.40 392.18 317.82 385.28 318.62 378.44 C 320.07 384.65 319.32 391.05 319.56 397.36 C 319.43 406.42 320.28 415.44 321.00 424.46 C 321.39 441.05 321.11 457.68 320.95 474.28 C 318.27 474.34 315.60 474.33 312.94 474.56 C 309.09 474.70 305.96 477.64 302.06 477.53 C 271.71 477.68 241.34 477.52 210.98 477.43 C 203.39 477.96 196.53 473.99 189.00 473.72 C 189.17 462.96 188.39 452.18 188.94 441.42 C 189.95 432.31 189.30 423.14 189.58 414.00 C 189.61 393.34 190.54 372.71 190.37 352.05 Z" />
<path fill="#5fbc46" d=" M 270.17 346.31 C 270.49 345.52 270.82 344.73 271.15 343.95 C 271.23 346.18 271.29 348.41 271.36 350.65 C 270.02 350.62 268.68 350.59 267.35 350.56 C 267.42 349.27 267.51 347.98 267.60 346.70 C 268.25 346.60 269.53 346.41 270.17 346.31 Z" />
<path fill="#a09f9f" d=" M 239.57 348.46 C 240.11 347.68 240.64 346.90 241.19 346.14 C 241.57 346.34 242.33 346.73 242.72 346.93 C 242.85 348.38 242.97 349.83 243.10 351.28 C 241.38 351.50 239.67 351.34 238.18 350.39 C 238.53 349.90 239.22 348.94 239.57 348.46 Z" />
<path fill="#bbc9b4" d=" M 258.78 345.84 C 259.60 345.89 261.25 346.00 262.08 346.06 C 261.07 347.11 258.64 347.60 259.11 349.42 C 259.88 349.79 261.41 350.53 262.17 350.90 C 260.85 351.12 259.42 351.52 258.16 350.81 C 257.10 349.13 258.15 347.43 258.78 345.84 Z" />
<path fill="#bbc9b4" d=" M 245.05 347.21 C 248.58 346.88 245.08 351.27 244.16 348.21 C 244.39 347.96 244.83 347.46 245.05 347.21 Z" />
<path fill="#5fbc46" d=" M 249.78 347.24 C 250.31 347.34 251.37 347.55 251.90 347.65 C 251.60 349.00 250.76 349.49 249.39 349.15 C 249.48 348.67 249.68 347.71 249.78 347.24 Z" />
<path fill="#bbc9b4" d=" M 254.22 347.36 C 255.85 346.82 256.42 347.36 255.92 348.98 C 254.27 349.51 253.71 348.98 254.22 347.36 Z" />
<path fill="#bbc9b4" d=" M 264.27 347.22 C 265.59 347.89 265.58 348.55 264.25 349.21 C 262.92 348.53 262.93 347.87 264.27 347.22 Z" />
<path fill="#ffffff" d=" M 269.36 347.30 C 270.80 347.30 270.72 349.74 269.34 349.83 C 267.89 349.82 267.98 347.38 269.36 347.30 Z" />
<path fill="#bbc9b4" d=" M 240.08 349.14 C 243.01 347.52 240.30 352.47 240.08 349.14 Z" />
<path fill="#e8e9e5" d=" M 189.00 473.72 C 196.53 473.99 203.39 477.96 210.98 477.43 C 241.34 477.52 271.71 477.68 302.06 477.53 C 305.96 477.64 309.09 474.70 312.94 474.56 C 315.60 474.33 318.27 474.34 320.95 474.28 C 321.02 476.06 321.03 477.85 321.00 479.64 C 309.33 479.42 297.67 480.79 286.01 479.83 C 269.02 479.56 252.01 480.00 235.03 479.38 C 222.67 479.89 210.31 479.47 197.95 479.63 C 194.98 479.70 192.02 479.45 189.10 478.95 C 189.05 477.20 189.02 475.46 189.00 473.72 Z" />
</svg>
