<?xml version="1.0" encoding="utf-8"?>
<!-- Generator: Adobe Illustrator 19.0.0, SVG Export Plug-In . SVG Version: 6.00 Build 0)  -->
<svg version="1.1" id="Layer_1" xmlns="http://www.w3.org/2000/svg" xmlns:xlink="http://www.w3.org/1999/xlink" x="0px" y="0px"
	 viewBox="0 0 612 792" style="enable-background:new 0 0 612 792;" xml:space="preserve">
<style type="text/css">
	.st0{fill:none;stroke:#515151;stroke-width:14;stroke-miterlimit:10;}
	.st1{fill:none;stroke:#515151;stroke-width:8;stroke-miterlimit:10;}
	.st2{fill:none;stroke:#515151;stroke-width:12;stroke-miterlimit:10;}
	.st3{stroke:#000000;stroke-miterlimit:10;}
	.st4{font-family:'MyriadPro-Regular';}
	.st5{font-size:24px;}
	.st6{fill:#269911;stroke:#148700;stroke-miterlimit:10;}
	.st7{fill:#24A508;stroke:#148700;stroke-miterlimit:10;}
	.st8{fill:#FFFFFF;}
	.st9{font-size:12px;}
</style>
<path class="st0" d="M372.2,667H245.8c-11.5,0-20.8-9.3-20.8-20.8V100.8c0-11.5,9.3-20.8,20.8-20.8h126.4c11.5,0,20.8,9.3,20.8,20.8
	v545.4C393,657.7,383.7,667,372.2,667z"/>
<path class="st1" d="M295.4,211h-29.9c-2.2,0-4-1.8-4-4v-8.5c0-2.2,1.8-4,4-4h29.9c2.2,0,4,1.8,4,3v8.5
	C299.4,209.2,297.6,211,295.4,211z"/>
<path class="st1" d="M359.4,211h-29.9c-2.2,0-4-1.8-4-4v-8.5c0-2.2,1.8-4,4-4h29.9c2.2,0,4,1.8,4,3v8.5
	C363.4,209.2,361.6,211,359.4,211z"/>
<path class="st1" d="M359.4,262.6h-29.9c-2.2,0-4-1.8-4-4v-8.5c0-2.2,1.8-4,4-4h29.9c2.2,0,4,1.8,4,3v8.5
	C363.4,260.8,361.6,262.6,359.4,262.6z"/>
<path class="st1" d="M295.4,262.6h-29.9c-2.2,0-4-1.8-4-4v-8.5c0-2.2,1.8-4,4-4h29.9c2.2,0,4,1.8,4,3v8.5
	C299.4,260.8,297.6,262.6,295.4,262.6z"/>
<path class="st1" d="M295.4,318h-29.9c-2.2,0-4-1.8-4-4v-8.5c0-2.2,1.8-4,4-4h29.9c2.2,0,4,1.8,4,3v8.5
	C299.4,316.2,297.6,318,295.4,318z"/>
<path class="st1" d="M359.4,318h-29.9c-2.2,0-4-1.8-4-4v-8.5c0-2.2,1.8-4,4-4h29.9c2.2,0,4,1.8,4,3v8.5
	C363.4,316.2,361.6,318,359.4,318z"/>
<path class="st1" d="M295.4,367.2h-29.9c-2.2,0-4-1.8-4-4v-8.5c0-2.2,1.8-4,4-4h29.9c2.2,0,4,1.8,4,4v8.5
	C299.4,365.5,297.6,367.2,295.4,367.2z"/>
<path class="st1" d="M359.4,367.2h-29.9c-2.2,0-4-1.8-4-4v-8.5c0-2.2,1.8-4,4-4h29.9c2.2,0,4,1.8,4,4v8.5
	C363.4,365.5,361.6,367.2,359.4,367.2z"/>
<path class="st1" d="M295.4,439h-29.9c-2.2,0-4-1.8-4-4v-8.5c0-2.2,1.8-4,4-4h29.9c2.2,0,4,1.8,4,4v8.5
	C299.4,437.2,297.6,439,295.4,439z"/>
<path class="st1" d="M359.4,439h-29.9c-2.2,0-4-1.8-4-4v-8.5c0-2.2,1.8-4,4-4h29.9c2.2,0,4,1.8,4,4v8.5
	C363.4,437.2,361.6,439,359.4,439z"/>
<path class="st2" d="M346.2,539.4h-69.3c-2.2,0-4-1.8-4-4v-42.8c0-2.2,1.8-4,4-4h69.3c2.2,0,4,1.8,4,4v42.8
	C350.2,537.6,348.4,539.4,346.2,539.4z"/>
<text transform="matrix(0.9624 0 0 1 275.7888 572.193)" class="st3 st4 st5">a-b-c-d</text>
<polygon class="st6" points="290.9,396 267.5,396 279.2,417.9 "/>
<polygon class="st7" points="332.8,413.1 356.2,412.8 344.2,391.1 "/>
<text transform="matrix(1.1078 0 0 1 274.6377 406.9355)" class="st8 st4 st9">O</text>
<text transform="matrix(1.1078 0 0 1 343.0554 408.6965)" class="st8 st4 st9">l</text>
<polygon class="st6" points="292.1,325 268.7,325 280.4,346.9 "/>
<polygon class="st6" points="292.1,272.6 268.7,272.6 280.4,294.5 "/>
<polygon class="st6" points="292.1,221 268.7,221 280.4,242.9 "/>
<polygon class="st6" points="292.1,168.6 268.7,168.6 280.4,190.4 "/>
<polygon class="st7" points="332.8,345 356.2,344.7 344.2,323 "/>
<polygon class="st7" points="331.4,291.6 354.7,291.3 342.8,269.5 "/>
<polygon class="st7" points="332.8,240 356.2,239.7 344.2,218 "/>
<polygon class="st7" points="332.8,187.5 354.7,187.2 344.2,165.5 "/>
<text transform="matrix(1.1078 0 0 1 275.7888 339.0981)" class="st8 st4 st9">O</text>
<text transform="matrix(1.1078 0 0 1 275.7888 284.6294)" class="st8 st4 st9">O</text>
<text transform="matrix(1.1078 0 0 1 275.7888 231.9802)" class="st8 st4 st9">O</text>
<text transform="matrix(1.1078 0 0 1 275.7888 179.4977)" class="st8 st4 st9">O</text>
<text transform="matrix(1.1078 0 0 1 343.0554 341.6778)" class="st8 st4 st9">l</text>
<text transform="matrix(1.1078 0 0 1 341.5728 286.4531)" class="st8 st4 st9">l</text>
<text transform="matrix(1.1078 0 0 1 343.0551 235.1189)" class="st8 st4 st9">l</text>
<text transform="matrix(1.1078 0 0 1 343.0548 182.4043)" class="st8 st4 st9">l</text>
<path class="st2" d="M293.7,526.3h-0.1c-1.7,0-3.1-1.4-3.1-3.1v-18.4c0-1.7,1.4-3.1,3.1-3.1h0.1c1.7,0,3.1,1.4,3.1,3.1v18.4
	C296.8,524.9,295.4,526.3,293.7,526.3z"/>
</svg>
