<?xml version="1.0" encoding="utf-8"?>
<!-- Generator: Adobe Illustrator 16.0.0, SVG Export Plug-In . SVG Version: 6.00 Build 0)  -->
<!DOCTYPE svg PUBLIC "-//W3C//DTD SVG 1.1//EN" "http://www.w3.org/Graphics/SVG/1.1/DTD/svg11.dtd">
<svg version="1.1" id="Layer_1" xmlns="http://www.w3.org/2000/svg" xmlns:xlink="http://www.w3.org/1999/xlink" x="0px" y="0px"
	 width="372.175px" height="294.756px" viewBox="0 0 372.175 294.756" enable-background="new 0 0 372.175 294.756"
	 xml:space="preserve">
<path fill="#2C2A29" d="M288.394,78.918c-1.689-9.339-6.23-18.122-12.82-24.946c-5.957-6.227-13.578-10.857-21.884-13.185
	c-6.349-1.849-13.069-2.259-19.623-1.485c-9.346,1.218-18.317,5.181-25.46,11.341c-8.391,7.139-14.286,17.171-16.298,28.013
	c-1.642,8.668-0.881,17.781,2.209,26.047c3.396,9.169,9.655,17.231,17.637,22.863c-1.247,0.888-2.291,2.109-2.731,3.595
	c-0.928,2.867,0.479,6.238,3.149,7.621c2.507,1.388,5.902,0.821,7.826-1.303c1.119-1.197,1.692-2.815,1.756-4.438
	c4.31,1.756,8.882,2.823,13.505,3.298c1.223,2.506,4.187,4.07,6.944,3.506c2.095-0.368,3.884-1.88,4.774-3.789
	c3.803-0.6,7.552-1.563,11.125-3.012c0.051,1.841,0.854,3.641,2.213,4.887c2.041,1.814,5.262,2.148,7.599,0.709
	c2.478-1.408,3.765-4.6,2.964-7.331c-0.427-1.542-1.468-2.856-2.785-3.739c8.547-6.007,15.092-14.826,18.309-24.77
	C289.306,95.136,289.854,86.844,288.394,78.918z M219.244,136.577c-1.469,1.465-3.852,1.878-5.734,1.021
	c-1.512-0.612-2.528-2.105-2.852-3.67c-0.443-2.189,0.844-4.539,2.898-5.398c2.251,1.478,4.613,2.786,7.078,3.872
	C220.695,133.9,220.303,135.469,219.244,136.577z M241.291,138.525c-1.551-0.026-2.932-0.912-3.926-2.05
	c2.764,0.138,5.533,0.034,8.289-0.213C244.642,137.627,243.031,138.607,241.291,138.525z M270.044,132.42
	c0.226,1.641-0.491,3.324-1.69,4.433c-1.687,1.444-4.298,1.568-6.146,0.363c-1.621-0.995-2.285-3.007-2.183-4.833
	c2.478-1.098,4.877-2.379,7.136-3.879C268.696,129.223,269.818,130.736,270.044,132.42z M279.65,114.127
	c-4.254,6.305-10.023,11.582-16.693,15.246c-6.699,3.646-14.291,5.646-21.918,5.744c-9.011,0.169-18.061-2.342-25.688-7.146
	c-8.137-5.08-14.729-12.636-18.561-21.438c-2.041-4.638-3.283-9.614-3.744-14.657c1.75,3.355,4.494,6.092,7.56,8.263
	c6.097,4.232,13.25,6.664,20.459,8.196c9.649,1.958,19.604,2.34,29.396,1.379c5.859-0.584,11.681-1.693,17.266-3.565
	c4.304-1.455,8.477-3.384,12.186-6.025c3.152-2.212,5.896-5.071,7.726-8.479C286.966,99.659,284.183,107.483,279.65,114.127z
	 M286.888,89.674c-2.09,4.854-6.207,8.534-10.71,11.136c-8.078,4.614-17.354,6.632-26.532,7.554
	c-11.346,1.023-22.932,0.304-33.913-2.828c-5.31-1.587-10.519-3.766-14.985-7.087c-3.463-2.573-6.441-6.059-7.598-10.287
	c-0.426-1.226-0.189-2.532-0.138-3.794c0.709-10.094,4.813-19.887,11.427-27.533c7.604-8.904,18.604-14.846,30.257-16.155
	c8.056-0.951,16.357,0.171,23.851,3.288c8.899,3.683,16.563,10.214,21.73,18.327c4.707,7.336,7.334,15.992,7.479,24.705
	C287.669,87.939,287.218,88.802,286.888,89.674z"/>
<g>
	<path fill="#FFFFFF" stroke="#010101" stroke-width="0.5" stroke-miterlimit="10" d="M30.7,229.563c0,0.461-0.372,0.832-0.83,0.832
		H1.083c-0.459,0-0.831-0.371-0.831-0.832V127.052c0-0.46,0.372-0.832,0.831-0.832H29.87c0.458,0,0.83,0.372,0.83,0.832V229.563
		L30.7,229.563z"/>
	
		<rect x="1.432" y="127.584" fill="#FFFFFF" stroke="#010101" stroke-width="0.25" stroke-miterlimit="10" width="28.087" height="101.806"/>
	<path stroke="#010101" stroke-width="0.25" stroke-miterlimit="10" d="M24.632,189.425c0,0.127-0.123,0.229-0.273,0.229H18.16
		c-0.151,0-0.273-0.102-0.273-0.229v-2.176c0-0.127,0.123-0.229,0.273-0.229h6.199c0.15,0,0.273,0.103,0.273,0.229V189.425z"/>
	<path stroke="#010101" stroke-width="0.25" stroke-miterlimit="10" d="M12.908,189.425c0,0.127-0.123,0.229-0.273,0.229H6.437
		c-0.151,0-0.274-0.102-0.274-0.229v-2.176c0-0.127,0.123-0.229,0.274-0.229h6.198c0.15,0,0.273,0.103,0.273,0.229V189.425z"/>
	<path stroke="#010101" stroke-width="0.25" stroke-miterlimit="10" d="M24.632,176.97c0,0.125-0.123,0.229-0.273,0.229h-6.197
		c-0.152,0-0.275-0.104-0.275-0.229v-2.177c0-0.127,0.123-0.229,0.275-0.229h6.197c0.15,0,0.273,0.104,0.273,0.229V176.97z"/>
	<path stroke="#010101" stroke-width="0.25" stroke-miterlimit="10" d="M12.909,176.97c0,0.125-0.124,0.229-0.273,0.229H6.438
		c-0.152,0-0.273-0.104-0.273-0.229v-2.177c0-0.127,0.122-0.229,0.273-0.229h6.199c0.149,0,0.273,0.104,0.273,0.229L12.909,176.97
		L12.909,176.97z"/>
	<path stroke="#010101" stroke-width="0.25" stroke-miterlimit="10" d="M24.632,168.582c0,0.128-0.123,0.229-0.273,0.229h-6.197
		c-0.152,0-0.275-0.103-0.275-0.229v-2.175c0-0.127,0.123-0.229,0.275-0.229h6.197c0.15,0,0.273,0.102,0.273,0.229V168.582z"/>
	<path stroke="#010101" stroke-width="0.25" stroke-miterlimit="10" d="M12.909,168.582c0,0.128-0.124,0.229-0.273,0.229H6.438
		c-0.152,0-0.273-0.103-0.273-0.229v-2.175c0-0.127,0.122-0.229,0.273-0.229h6.199c0.149,0,0.273,0.102,0.273,0.229L12.909,168.582
		L12.909,168.582z"/>
	<path stroke="#010101" stroke-width="0.25" stroke-miterlimit="10" d="M24.632,160.278c0,0.127-0.123,0.229-0.273,0.229h-6.197
		c-0.152,0-0.275-0.102-0.275-0.229v-2.174c0-0.129,0.123-0.23,0.275-0.23h6.197c0.15,0,0.273,0.104,0.273,0.23V160.278z"/>
	<path stroke="#010101" stroke-width="0.25" stroke-miterlimit="10" d="M12.909,160.278c0,0.127-0.124,0.229-0.273,0.229H6.438
		c-0.152,0-0.273-0.102-0.273-0.229v-2.174c0-0.129,0.122-0.23,0.273-0.23h6.199c0.149,0,0.273,0.104,0.273,0.23L12.909,160.278
		L12.909,160.278z"/>
	<path stroke="#010101" stroke-width="0.25" stroke-miterlimit="10" d="M24.632,151.892c0,0.129-0.123,0.23-0.273,0.23h-6.197
		c-0.152,0-0.275-0.104-0.275-0.23v-2.174c0-0.127,0.123-0.229,0.275-0.229h6.197c0.15,0,0.273,0.103,0.273,0.229V151.892z"/>
	<path stroke="#010101" stroke-width="0.25" stroke-miterlimit="10" d="M12.909,151.892c0,0.129-0.124,0.23-0.273,0.23H6.438
		c-0.152,0-0.273-0.104-0.273-0.23v-2.174c0-0.127,0.122-0.229,0.273-0.229h6.199c0.149,0,0.273,0.103,0.273,0.229L12.909,151.892
		L12.909,151.892z"/>
	<path fill="#FFFFFF" stroke="#010101" stroke-width="0.25" stroke-miterlimit="10" d="M19.528,196.399
		c0-0.305-0.292-0.551-0.648-0.551h-7.034c-0.357,0-0.647,0.246-0.647,0.551v2.056c0,0.306,0.291,0.551,0.647,0.551h7.034
		c0.356,0,0.648-0.247,0.648-0.551V196.399z"/>
	<circle fill="#FFFFFF" stroke="#010101" stroke-width="0.25" stroke-miterlimit="10" cx="15.417" cy="134.707" r="2.076"/>
	<path fill="#FFFFFF" stroke="#010101" stroke-width="0.25" stroke-miterlimit="10" d="M14.238,134.928l0.466-0.549
		c0.24-0.266,0.447-0.033,0.447-0.033l0.685,0.549c0.321,0.265,0.519-0.014,0.553-0.036l0.32-0.38"/>
	<path fill="#010101" d="M9.103,173.339c0.295,0.453,0.648,0.422,0.938-0.005l1.764-2.926c0.172-0.368-0.002-0.697-0.465-0.697H7.69
		c-0.46,0-0.601,0.313-0.395,0.688L9.103,173.339z"/>
	<path fill="#010101" d="M20.826,170.037c0.295-0.45,0.649-0.421,0.938,0.005l1.763,2.926c0.174,0.368-0.001,0.698-0.463,0.698
		h-3.65c-0.46,0-0.601-0.313-0.396-0.688L20.826,170.037z"/>
	<circle fill="none" stroke="#FFFFFF" stroke-width="0.25" stroke-miterlimit="10" cx="9.586" cy="171.221" r="0.908"/>
	<rect x="20.946" y="170.763" fill="#FFFFFF" width="0.714" height="2.414"/>
	<path fill="#010101" d="M9.181,165.035c0.295,0.45,0.648,0.423,0.938-0.005l1.764-2.926c0.173-0.369-0.002-0.699-0.464-0.699h-3.65
		c-0.46,0-0.601,0.314-0.396,0.689L9.181,165.035z"/>
	<path fill="#010101" d="M20.903,161.733c0.296-0.451,0.648-0.422,0.938,0.004l1.764,2.928c0.172,0.367-0.002,0.697-0.464,0.697
		h-3.65c-0.46,0-0.602-0.314-0.396-0.689L20.903,161.733z"/>
	<circle fill="none" stroke="#FFFFFF" stroke-width="0.25" stroke-miterlimit="10" cx="9.665" cy="162.917" r="0.909"/>
	<rect x="21.024" y="162.459" fill="#FFFFFF" width="0.714" height="2.411"/>
	<path fill="#010101" d="M9.123,156.669c0.295,0.452,0.649,0.424,0.938-0.005l1.763-2.927c0.173-0.366-0.002-0.696-0.464-0.696H7.71
		c-0.46,0-0.601,0.313-0.396,0.688L9.123,156.669z"/>
	<path fill="#010101" d="M20.847,153.368c0.296-0.45,0.648-0.424,0.939,0.005l1.763,2.926c0.172,0.369-0.002,0.698-0.464,0.698
		h-3.65c-0.46,0-0.601-0.314-0.396-0.689L20.847,153.368z"/>
	<circle fill="none" stroke="#FFFFFF" stroke-width="0.25" stroke-miterlimit="10" cx="9.607" cy="154.551" r="0.909"/>
	<rect x="20.967" y="154.095" fill="#FFFFFF" width="0.715" height="2.411"/>
	<path fill="#010101" d="M9.181,148.244c0.295,0.45,0.648,0.421,0.938-0.007l1.764-2.926c0.173-0.367-0.002-0.697-0.464-0.697h-3.65
		c-0.46,0-0.601,0.315-0.396,0.689L9.181,148.244z"/>
	<path fill="#010101" d="M20.903,144.942c0.296-0.451,0.648-0.422,0.938,0.004l1.764,2.926c0.172,0.369-0.002,0.697-0.464,0.697
		h-3.65c-0.46,0-0.602-0.313-0.396-0.688L20.903,144.942z"/>
	<circle fill="none" stroke="#FFFFFF" stroke-width="0.25" stroke-miterlimit="10" cx="9.665" cy="146.125" r="0.908"/>
	<rect x="21.024" y="145.668" fill="#FFFFFF" width="0.714" height="2.412"/>
	<rect x="14.634" y="149.351" fill="none" width="2.118" height="2.771"/>
	<rect x="14.634" y="157.806" fill="none" width="2.118" height="2.771"/>
	<rect x="14.634" y="166.108" fill="none" width="2.118" height="2.771"/>
	<rect x="14.634" y="174.494" fill="none" width="2.118" height="2.772"/>
	<rect x="11.688" y="199.79" fill="none" width="7.76" height="2.158"/>
	<text transform="matrix(1.0771 0 0 1 11.6885 201.3291)" fill="#010101" font-family="'ArialMT'" font-size="2.1493">a-b-c-d</text>
	<path stroke="#010101" stroke-width="0.15" stroke-miterlimit="10" d="M19.244,198.494c0,0.151-0.125,0.274-0.276,0.274h-0.506
		c-0.152,0-0.276-0.123-0.276-0.274v-2.134c0-0.153,0.125-0.276,0.276-0.276h0.506c0.152,0,0.276,0.123,0.276,0.276V198.494z"/>
	<path fill="#010101" d="M11.352,186.224c0,0.153-0.124,0.277-0.277,0.277h-3.08c-0.153,0-0.277-0.124-0.277-0.277v-2.879
		c0-0.154,0.124-0.277,0.277-0.277h3.079c0.153,0,0.277,0.123,0.277,0.277L11.352,186.224L11.352,186.224z"/>
	<path fill="#010101" d="M23.076,186.224c0,0.153-0.124,0.277-0.278,0.277h-3.077c-0.154,0-0.277-0.124-0.277-0.277v-2.879
		c0-0.154,0.124-0.277,0.277-0.277h3.077c0.154,0,0.278,0.123,0.278,0.277V186.224z"/>
	<circle fill="#FFFFFF" cx="21.259" cy="184.784" r="1.206"/>
	<circle fill="none" stroke="#FFFFFF" stroke-width="0.25" stroke-miterlimit="10" cx="9.536" cy="184.784" r="1.033"/>
	
		<rect x="9.342" y="183.388" fill="#FFFFFF" stroke="#010101" stroke-width="0.1" stroke-miterlimit="10" width="0.397" height="1.1"/>
	<path fill="#010101" d="M14.4,222.603c-0.015-0.043-0.025-0.082-0.025-0.11c0-0.056,0.043-0.128,0.15-0.128
		c0.067,0,0.133,0.023,0.175,0.146l0.406,1.182h0.006l0.398-1.139c0.043-0.125,0.071-0.189,0.185-0.189
		c0.115,0,0.145,0.064,0.187,0.189l0.398,1.139h0.006l0.404-1.182c0.043-0.123,0.109-0.146,0.176-0.146
		c0.107,0,0.15,0.072,0.15,0.128c0,0.028-0.011,0.067-0.024,0.11l-0.522,1.383c-0.044,0.111-0.094,0.15-0.184,0.15
		c-0.086,0-0.14-0.039-0.18-0.15l-0.407-1.166h-0.008l-0.407,1.166c-0.04,0.111-0.094,0.15-0.18,0.15
		c-0.091,0-0.14-0.039-0.183-0.15L14.4,222.603z"/>
	<path fill="#010101" d="M20.24,223.358c0,0.299,0.208,0.529,0.563,0.529c0.418,0,0.526-0.234,0.645-0.234
		c0.055,0,0.114,0.047,0.114,0.127c0,0.142-0.39,0.355-0.763,0.355c-0.61,0-0.874-0.429-0.874-0.887
		c0-0.469,0.322-0.887,0.855-0.887c0.518,0,0.82,0.429,0.82,0.844c0,0.102-0.039,0.152-0.176,0.152H20.24z M21.285,223.146
		c0-0.248-0.158-0.533-0.505-0.533c-0.389-0.014-0.531,0.27-0.541,0.533H21.285z"/>
	<path fill="#010101" d="M7.714,223.849h0.783c0.089,0,0.155,0.041,0.155,0.135c0,0.09-0.064,0.134-0.155,0.134h-0.93
		c-0.12,0-0.168-0.068-0.168-0.155v-2.029c0-0.096,0.062-0.154,0.158-0.154c0.095,0,0.157,0.061,0.157,0.154V223.849z"/>
	<path fill="#010101" d="M9.061,221.776c0.106,0,0.192,0.078,0.192,0.178s-0.086,0.176-0.192,0.176
		c-0.108,0-0.194-0.076-0.194-0.176S8.952,221.776,9.061,221.776"/>
	<path fill="#010101" d="M9.217,223.981c0,0.096-0.062,0.152-0.158,0.152c-0.096,0-0.157-0.061-0.157-0.152v-1.465
		c0-0.096,0.061-0.154,0.157-0.154c0.096,0,0.158,0.061,0.158,0.154V223.981z"/>
	<path fill="#010101" d="M11.195,223.992c0,0.513-0.345,0.862-0.859,0.862c-0.326,0-0.731-0.172-0.731-0.316
		c0-0.059,0.032-0.135,0.133-0.135c0.144,0,0.283,0.203,0.623,0.203c0.402,0,0.519-0.321,0.519-0.569v-0.149h-0.007
		c-0.097,0.149-0.269,0.248-0.483,0.248c-0.538,0-0.838-0.429-0.838-0.887c0-0.46,0.301-0.887,0.838-0.887
		c0.204,0,0.401,0.115,0.483,0.221h0.007v-0.079c0-0.101,0.083-0.142,0.168-0.142c0.061,0,0.147,0.041,0.147,0.142V223.992z
		 M10.388,223.888c0.387,0,0.524-0.347,0.524-0.639s-0.136-0.639-0.524-0.639c-0.387,0-0.522,0.347-0.522,0.639
		S10.001,223.888,10.388,223.888"/>
	<path fill="#010101" d="M12.821,223.037c0-0.304-0.232-0.427-0.442-0.427c-0.207,0-0.439,0.123-0.439,0.427v0.944
		c0,0.096-0.061,0.151-0.158,0.151c-0.097,0-0.158-0.06-0.158-0.151v-2.227c0-0.095,0.061-0.152,0.158-0.152
		c0.097,0,0.158,0.06,0.158,0.152v0.829l0.007,0.009c0.14-0.162,0.337-0.229,0.526-0.229c0.294,0,0.663,0.17,0.663,0.656v0.961
		c0,0.095-0.062,0.151-0.157,0.151c-0.096,0-0.158-0.058-0.158-0.151V223.037z"/>
	<path fill="#010101" d="M13.615,222.009c0-0.095,0.062-0.152,0.159-0.152s0.158,0.06,0.158,0.152v0.374h0.128
		c0.104,0,0.158,0.046,0.158,0.124s-0.053,0.125-0.158,0.125h-0.128v1.352c0,0.095-0.061,0.152-0.158,0.152
		s-0.159-0.061-0.159-0.152v-1.352h-0.128c-0.104,0-0.158-0.047-0.158-0.125s0.054-0.124,0.158-0.124h0.128V222.009z"/>
	<path fill="#010101" d="M16.969,224.134c-0.076-0.025-0.116-0.109-0.089-0.186l0.457-1.295c0.031-0.084,0.068-0.154,0.12-0.213
		c0.05-0.057,0.126-0.101,0.212-0.101c0.088,0,0.162,0.044,0.214,0.097c0.054,0.058,0.094,0.127,0.128,0.211
		c0.078,0.191,0.121,0.301,0.121,0.301c0.029,0.074-0.007,0.158-0.082,0.189c-0.076,0.031-0.159-0.006-0.189-0.08
		c0-0.002-0.043-0.107-0.12-0.301c-0.043-0.095-0.085-0.107-0.127-0.007l-0.456,1.293c-0.021,0.062-0.077,0.101-0.139,0.101
		C17.001,224.144,16.985,224.14,16.969,224.134"/>
	<path fill="#010101" d="M19.567,223.21c0.076,0.027,0.117,0.111,0.09,0.188l-0.497,1.367c-0.03,0.086-0.068,0.154-0.122,0.213
		c-0.052,0.057-0.128,0.102-0.216,0.102c-0.087,0-0.165-0.043-0.218-0.1c-0.054-0.056-0.094-0.125-0.13-0.209
		c-0.078-0.191-0.458-1.211-0.458-1.211c-0.03-0.074,0.007-0.16,0.083-0.188c0.077-0.031,0.163,0.006,0.193,0.081
		c0,0,0.381,1.02,0.458,1.211c0.044,0.094,0.086,0.105,0.128,0.006l0.497-1.367c0.022-0.063,0.078-0.1,0.141-0.1
		C19.534,223.201,19.551,223.205,19.567,223.21"/>
	<path fill="#010101" d="M22.451,223.345c0,0.043-0.027,0.068-0.07,0.068c-0.044,0-0.07-0.025-0.07-0.068v-0.914
		c0-0.039,0.02-0.068,0.074-0.068h0.264c0.182,0,0.353,0.109,0.353,0.281c0,0.211-0.143,0.291-0.313,0.297h-0.062l0.366,0.365
		c0.02,0.02,0.026,0.037,0.026,0.059c0,0.029-0.03,0.052-0.064,0.052c-0.029,0-0.048-0.015-0.064-0.028l-0.439-0.438L22.451,223.345
		L22.451,223.345z M22.451,222.845h0.194c0.148,0,0.212-0.059,0.212-0.191c0-0.098-0.083-0.18-0.215-0.18h-0.191V222.845
		L22.451,222.845z"/>
	<path fill="#010101" d="M23.329,223.345c0,0.043-0.026,0.067-0.07,0.067c-0.044,0-0.07-0.024-0.07-0.067v-0.914
		c0-0.039,0.022-0.068,0.076-0.068h0.402c0.04,0,0.07,0.02,0.07,0.06c0,0.041-0.03,0.062-0.07,0.062h-0.338v0.343h0.3
		c0.04,0,0.068,0.021,0.068,0.06c0,0.041-0.028,0.061-0.068,0.061h-0.3V223.345L23.329,223.345z"/>
</g>
<g>
	<g>
		<path fill="#6D6E71" d="M100.324,260.243c0,0,0.853-0.594,2.368-1.596c0.38-0.249,0.801-0.523,1.258-0.824
			c0.429-0.333,0.893-0.695,1.388-1.082c0.988-0.774,2.113-1.612,3.228-2.684c0.568-0.516,1.161-1.053,1.773-1.609
			c0.563-0.605,1.144-1.231,1.743-1.872c0.298-0.322,0.601-0.646,0.908-0.973c0.299-0.336,0.556-0.714,0.84-1.073
			c0.563-0.727,1.136-1.464,1.72-2.218c0.989-1.628,2.134-3.233,2.947-5.058c0.975-1.72,1.595-3.732,2.292-5.521
			c0.504-2.004,1.149-4.021,1.332-5.954c0.375-1.926,0.366-3.912,0.492-5.809c-0.046-0.952-0.09-1.887-0.134-2.804
			c-0.026-0.457-0.019-0.916-0.07-1.359c-0.061-0.444-0.123-0.885-0.183-1.316c-0.12-0.871-0.235-1.717-0.348-2.536
			c-0.181-0.807-0.357-1.587-0.525-2.335c-0.294-1.515-0.735-2.855-1.101-4.058c-0.184-0.604-0.354-1.167-0.513-1.688
			c-0.201-0.505-0.385-0.969-0.552-1.39c-0.662-1.684-1.02-2.665-1.02-2.665s0.503,0.903,1.348,2.521
			c0.209,0.405,0.441,0.854,0.695,1.344c0.211,0.506,0.439,1.055,0.685,1.641c0.494,1.175,1.081,2.494,1.479,4.019
			c0.228,0.756,0.463,1.541,0.709,2.354c0.163,0.837,0.331,1.7,0.503,2.588c0.428,1.767,0.458,3.692,0.65,5.664
			c-0.079,1.981,0.041,4.035-0.359,6.129c-0.206,2.146-0.814,4.097-1.302,6.117c-0.803,2.075-1.441,4.03-2.493,5.87
			c-0.866,1.909-2.147,3.538-3.22,5.2c-0.636,0.761-1.261,1.51-1.872,2.24c-0.313,0.357-0.6,0.732-0.927,1.063
			c-0.333,0.321-0.664,0.642-0.989,0.955c-0.652,0.627-1.286,1.237-1.897,1.826c-0.668,0.526-1.314,1.032-1.934,1.518
			c-1.201,1.018-2.446,1.766-3.527,2.442c-0.539,0.339-1.041,0.656-1.507,0.949c-0.485,0.254-0.931,0.486-1.334,0.695
			C101.26,259.788,100.324,260.243,100.324,260.243z"/>
	</g>
	<g>
		<path fill="#414042" d="M84.866,208.808c0,0,0.275,0.443,0.758,1.221c0.246,0.385,0.517,0.865,0.772,1.462
			c0.274,0.584,0.602,1.248,0.826,2.01c0.128,0.38,0.263,0.772,0.4,1.181c0.094,0.422,0.191,0.857,0.29,1.306
			c0.238,0.896,0.283,1.872,0.392,2.878c-0.026,1.009,0.054,2.069-0.141,3.121c-0.094,1.069-0.407,2.114-0.661,3.174
			c-0.419,1.062-0.706,1.947-1.271,2.951c-0.459,1.008-1.129,1.813-1.688,2.657c-0.667,0.761-1.266,1.535-1.974,2.129
			c-0.339,0.31-0.669,0.612-0.989,0.902c-0.348,0.254-0.684,0.499-1.007,0.735c-0.625,0.496-1.267,0.847-1.824,1.165
			c-0.546,0.337-1.051,0.581-1.479,0.756c-0.842,0.371-1.324,0.563-1.324,0.563s0.412-0.318,1.135-0.878
			c0.37-0.257,0.794-0.604,1.265-1.021c0.475-0.405,1.019-0.849,1.55-1.397c0.272-0.267,0.554-0.542,0.846-0.829
			c0.27-0.305,0.546-0.623,0.833-0.948c0.604-0.619,1.07-1.407,1.654-2.131c0.471-0.8,1.013-1.613,1.396-2.471
			c0.448-0.776,0.791-1.873,1.122-2.74c0.242-0.954,0.555-1.895,0.655-2.865c0.19-0.956,0.208-1.918,0.283-2.847
			c-0.063-0.929,0.013-1.843-0.128-2.696c-0.046-0.43-0.092-0.849-0.135-1.253c-0.075-0.403-0.147-0.794-0.216-1.165
			c-0.121-0.757-0.308-1.422-0.462-2.027c-0.144-0.603-0.293-1.139-0.451-1.567C85.021,209.306,84.866,208.808,84.866,208.808z"/>
	</g>
	<g>
		<path fill="#58595B" d="M88.133,248.633c0,0,0.63-0.464,1.753-1.234c0.282-0.192,0.594-0.404,0.935-0.636
			c0.317-0.255,0.661-0.534,1.026-0.83c0.731-0.587,1.559-1.231,2.383-2.041c0.42-0.39,0.856-0.798,1.31-1.217
			c0.415-0.457,0.846-0.928,1.286-1.41c0.935-0.922,1.664-2.104,2.561-3.199c0.73-1.215,1.572-2.416,2.176-3.773
			c0.73-1.297,1.172-2.743,1.709-4.145c0.354-1.403,0.86-2.998,0.988-4.398c0.278-1.424,0.286-2.904,0.385-4.315
			c-0.104-1.412-0.024-2.798-0.257-4.089c-0.083-0.649-0.164-1.283-0.242-1.895c-0.128-0.604-0.252-1.19-0.37-1.75
			c-0.208-1.134-0.521-2.143-0.779-3.048c-0.129-0.454-0.251-0.879-0.363-1.271c-0.144-0.383-0.276-0.733-0.396-1.05
			c-0.474-1.271-0.723-2.017-0.723-2.017s0.395,0.667,1.051,1.871c0.163,0.303,0.343,0.636,0.54,0.998
			c0.166,0.381,0.344,0.791,0.535,1.229c0.388,0.876,0.846,1.864,1.157,3.008c0.178,0.567,0.363,1.155,0.556,1.769
			c0.128,0.628,0.259,1.277,0.396,1.944c0.333,1.332,0.368,2.783,0.52,4.271c-0.053,1.498,0.05,3.047-0.254,4.638
			c-0.162,1.656-0.593,3.042-0.985,4.656c-0.589,1.494-1.091,3.026-1.882,4.398c-0.654,1.442-1.634,2.665-2.45,3.918
			c-0.979,1.132-1.846,2.297-2.883,3.194c-0.495,0.469-0.977,0.926-1.442,1.365c-0.508,0.389-1,0.763-1.471,1.126
			c-0.91,0.756-1.86,1.306-2.682,1.802c-0.408,0.247-0.792,0.482-1.145,0.695c-0.368,0.183-0.705,0.354-1.009,0.505
			C88.845,248.309,88.133,248.633,88.133,248.633z"/>
	</g>
	<g>
		<path d="M63.75,225.403c0,0,0.185-0.196,0.523-0.517c0.355-0.32,0.783-0.775,1.285-1.334c0.256-0.275,0.507-0.589,0.762-0.922
			c0.277-0.314,0.477-0.713,0.743-1.069c0.205-0.397,0.461-0.777,0.635-1.206c0.213-0.411,0.348-0.86,0.515-1.298
			c0.101-0.396,0.285-0.998,0.325-1.378c0.097-0.418,0.112-0.891,0.17-1.331c-0.013-0.444,0.051-0.886,0.006-1.302
			c-0.016-0.42-0.042-0.82-0.092-1.192c-0.088-0.743-0.187-1.387-0.285-1.832c-0.088-0.447-0.128-0.722-0.128-0.722
			s0.177,0.199,0.463,0.573c0.147,0.186,0.316,0.421,0.469,0.71c0.167,0.285,0.363,0.609,0.503,0.993
			c0.172,0.376,0.327,0.795,0.431,1.26c0.145,0.456,0.196,0.962,0.268,1.485c0.007,0.529,0.055,1.064-0.041,1.654
			c-0.054,0.64-0.185,1.032-0.332,1.638c-0.208,0.529-0.388,1.072-0.683,1.553c-0.245,0.502-0.597,0.93-0.907,1.354
			c-0.359,0.384-0.693,0.77-1.073,1.06c-0.353,0.322-0.72,0.576-1.077,0.785c-0.333,0.23-0.686,0.389-0.988,0.526
			c-0.297,0.154-0.564,0.245-0.786,0.309C64.014,225.339,63.75,225.403,63.75,225.403z"/>
	</g>
	<g>
		<path fill="#808285" d="M134.817,201.329c0,0,0.597,1.15,1.642,3.165c0.256,0.508,0.539,1.068,0.848,1.677
			c0.258,0.639,0.537,1.325,0.836,2.063c0.299,0.738,0.617,1.523,0.953,2.354c0.365,0.823,0.541,1.747,0.84,2.683
			c0.273,0.944,0.557,1.925,0.85,2.942c0.199,1.041,0.405,2.118,0.616,3.224c0.106,0.555,0.213,1.116,0.321,1.687
			c0.095,0.568,0.117,1.157,0.181,1.747c0.097,1.183,0.196,2.393,0.295,3.622c-0.103,2.462,0.026,5.034-0.461,7.599
			c-0.238,2.597-1.021,5.132-1.648,7.698c-0.982,2.512-1.741,4.888-3.066,7.224c-1.088,2.412-2.669,4.427-4.001,6.504
			c-0.789,0.949-1.564,1.881-2.322,2.796c-0.392,0.444-0.747,0.913-1.153,1.325c-0.416,0.403-0.827,0.802-1.231,1.194
			c-0.809,0.784-1.596,1.547-2.357,2.281c-0.825,0.664-1.622,1.305-2.387,1.919c-0.781,0.594-1.461,1.25-2.228,1.712
			c-0.749,0.485-1.461,0.944-2.128,1.375c-0.667,0.432-1.29,0.833-1.867,1.205c-0.605,0.322-1.162,0.619-1.665,0.889
			c-2.014,1.049-3.166,1.647-3.166,1.647s1.083-0.711,2.98-1.955c0.476-0.306,1.002-0.643,1.575-1.01
			c0.542-0.415,1.127-0.862,1.751-1.342c1.248-0.954,2.677-1.997,4.083-3.317c0.72-0.64,1.47-1.306,2.245-1.992
			c0.709-0.757,1.44-1.538,2.193-2.342c0.375-0.401,0.755-0.808,1.141-1.218c0.375-0.421,0.698-0.894,1.056-1.345
			c0.708-0.907,1.433-1.835,2.168-2.776c1.246-2.035,2.697-4.06,3.709-6.317c1.207-2.11,2.022-4.697,2.917-7.013
			c0.615-2.463,1.397-4.895,1.643-7.394c0.481-2.462,0.45-4.938,0.602-7.321c-0.06-1.196-0.119-2.37-0.177-3.52
			c-0.033-0.574-0.025-1.149-0.091-1.706c-0.078-0.559-0.156-1.11-0.232-1.655c-0.154-1.09-0.304-2.149-0.448-3.177
			c-0.24-1.008-0.471-1.983-0.692-2.921c-0.394-1.893-0.958-3.56-1.432-5.056c-0.236-0.749-0.457-1.452-0.661-2.1
			c-0.258-0.633-0.497-1.214-0.712-1.739C135.295,202.532,134.817,201.329,134.817,201.329z"/>
	</g>
</g>
<g>
	<g>
		<path fill="#6D6E71" d="M121.807,138.308c0,0,0.251-1.052,0.733-2.881c0.124-0.457,0.259-0.963,0.407-1.514
			c0.1-0.558,0.21-1.16,0.325-1.804c0.233-1.285,0.523-2.718,0.646-4.322c0.083-0.794,0.169-1.624,0.261-2.48
			c0.018-0.861,0.034-1.75,0.054-2.664c0.01-0.456,0.021-0.918,0.029-1.386c0-0.467-0.063-0.938-0.092-1.416
			c-0.066-0.953-0.133-1.926-0.203-2.916c-0.361-1.949-0.586-3.989-1.22-5.971c-0.445-2.034-1.327-3.959-2.073-5.925
			c-0.952-1.812-1.885-3.895-3.074-5.502c-1.045-1.755-2.429-3.292-3.647-4.852c-0.695-0.707-1.379-1.403-2.049-2.083
			c-0.338-0.338-0.649-0.698-1-1.007c-0.357-0.303-0.708-0.602-1.056-0.897c-0.697-0.592-1.375-1.169-2.028-1.726
			c-0.701-0.502-1.38-0.986-2.028-1.451c-1.278-0.971-2.553-1.707-3.67-2.389c-0.56-0.34-1.083-0.659-1.569-0.953
			c-0.507-0.254-0.972-0.487-1.393-0.697c-1.681-0.849-2.641-1.363-2.641-1.363s1.018,0.354,2.796,1.022
			c0.445,0.169,0.936,0.356,1.471,0.561c0.516,0.248,1.076,0.513,1.673,0.8c1.199,0.568,2.57,1.187,3.935,2.096
			c0.701,0.428,1.429,0.874,2.185,1.335c0.706,0.536,1.434,1.09,2.185,1.66c1.557,1.075,2.916,2.55,4.434,3.948
			c1.314,1.595,2.829,3.105,3.974,5.011c1.338,1.828,2.188,3.699,3.254,5.701c0.77,2.073,1.664,4.104,2.113,6.241
			c0.653,2.083,0.788,4.236,1.106,6.273c0.034,1.031,0.066,2.045,0.101,3.038c0.003,0.496,0.042,0.986,0.017,1.469
			c-0.035,0.483-0.07,0.959-0.105,1.431c-0.07,0.937-0.14,1.85-0.207,2.735c-0.155,0.872-0.305,1.712-0.448,2.52
			c-0.226,1.623-0.675,3.068-1.045,4.344c-0.182,0.636-0.353,1.233-0.511,1.784c-0.201,0.534-0.387,1.023-0.554,1.465
			C122.219,137.307,121.807,138.308,121.807,138.308z"/>
	</g>
	<g>
		<path fill="#414042" d="M74.118,109.086c0,0,0.522,0.153,1.436,0.423c0.457,0.127,1.003,0.313,1.615,0.6
			c0.618,0.264,1.333,0.552,2.036,0.987c0.363,0.206,0.74,0.419,1.129,0.641c0.366,0.263,0.743,0.534,1.131,0.813
			c0.804,0.528,1.519,1.258,2.3,1.964c0.68,0.801,1.477,1.567,2.056,2.522c0.668,0.894,1.149,1.922,1.687,2.92
			c0.412,1.118,0.804,2.002,1.062,3.175c0.346,1.102,0.381,2.193,0.532,3.235c0.009,1.053,0.082,2.071-0.056,3.024
			c-0.049,0.476-0.097,0.938-0.141,1.386c-0.095,0.439-0.186,0.863-0.272,1.271c-0.142,0.818-0.397,1.535-0.61,2.17
			c-0.19,0.642-0.414,1.18-0.624,1.612c-0.396,0.872-0.638,1.356-0.638,1.356s0.101-0.534,0.273-1.468
			c0.108-0.458,0.197-1.023,0.274-1.671c0.088-0.646,0.202-1.366,0.234-2.161c0.027-0.395,0.053-0.806,0.083-1.23
			c-0.004-0.425-0.009-0.863-0.012-1.314c0.041-0.899-0.146-1.836-0.193-2.802c-0.188-0.949-0.332-1.956-0.63-2.888
			c-0.191-0.913-0.686-2.004-1.03-2.906c-0.474-0.91-0.882-1.857-1.479-2.681c-0.514-0.875-1.167-1.633-1.753-2.407
			c-0.693-0.677-1.269-1.439-1.97-2.005c-0.334-0.302-0.66-0.596-0.975-0.881c-0.337-0.26-0.664-0.511-0.976-0.752
			c-0.619-0.504-1.227-0.894-1.767-1.254c-0.529-0.37-1.018-0.682-1.438-0.905C74.584,109.366,74.118,109.086,74.118,109.086z"/>
	</g>
	<g>
		<path fill="#58595B" d="M104.282,137.747c0,0,0.167-0.796,0.506-2.175c0.085-0.344,0.182-0.725,0.285-1.141
			c0.069-0.419,0.142-0.873,0.222-1.356c0.158-0.966,0.356-2.039,0.434-3.239c0.056-0.595,0.114-1.214,0.174-1.855
			c0.006-0.642,0.014-1.306,0.02-1.988c0.086-1.363-0.167-2.788-0.228-4.261c-0.276-1.452-0.454-2.967-0.928-4.441
			c-0.323-1.492-1.016-2.991-1.525-4.358c-0.745-1.43-1.423-2.949-2.306-4.148c-0.772-1.298-1.795-2.455-2.696-3.618
			c-1.062-1.023-1.961-2.156-3.038-2.996c-0.516-0.447-1.017-0.883-1.503-1.304c-0.518-0.38-1.02-0.75-1.501-1.103
			c-0.947-0.736-1.891-1.303-2.72-1.827c-0.416-0.262-0.804-0.508-1.165-0.735c-0.376-0.195-0.722-0.376-1.035-0.539
			c-1.25-0.66-1.961-1.064-1.961-1.064s0.771,0.244,2.115,0.723c0.336,0.122,0.708,0.256,1.113,0.403
			c0.392,0.179,0.815,0.374,1.268,0.58c0.908,0.413,1.949,0.863,2.985,1.535c0.532,0.317,1.084,0.646,1.657,0.987
			c0.535,0.4,1.089,0.812,1.657,1.235c1.182,0.802,2.217,1.904,3.368,2.957c0.997,1.2,2.151,2.329,3.021,3.776
			c1.013,1.378,1.673,2.822,2.442,4.253c0.625,1.664,1.264,3.132,1.613,4.769c0.492,1.577,0.581,3.204,0.815,4.743
			c0.025,1.559,0.16,3.066-0.023,4.482c-0.06,0.707-0.118,1.395-0.174,2.06c-0.124,0.655-0.245,1.288-0.36,1.893
			c-0.182,1.219-0.539,2.306-0.833,3.261c-0.145,0.476-0.281,0.923-0.406,1.336c-0.158,0.398-0.303,0.763-0.434,1.092
			C104.61,137.003,104.282,137.747,104.282,137.747z"/>
	</g>
	<g>
		<path d="M69.232,136.623c0,0,0.007-0.282,0.047-0.765c0.054-0.494,0.071-1.146,0.074-1.927c0.009-0.391-0.016-0.809-0.048-1.245
			c-0.003-0.437-0.125-0.884-0.164-1.347c-0.115-0.452-0.181-0.925-0.345-1.379c-0.108-0.446-0.35-0.96-0.474-1.315
			c-0.245-0.473-0.487-1-0.729-1.345c-0.213-0.391-0.531-0.769-0.791-1.15c-0.319-0.337-0.575-0.723-0.898-1.016
			c-0.304-0.315-0.601-0.608-0.898-0.863c-0.585-0.515-1.108-0.947-1.493-1.224c-0.381-0.289-0.601-0.473-0.601-0.473
			s0.276,0.034,0.758,0.126c0.244,0.042,0.537,0.106,0.856,0.227c0.327,0.105,0.703,0.22,1.08,0.422
			c0.394,0.17,0.806,0.391,1.209,0.679c0.429,0.253,0.819,0.612,1.238,0.966c0.374,0.405,0.782,0.788,1.117,1.312
			c0.393,0.514,0.595,0.976,0.856,1.455c0.253,0.654,0.455,1.129,0.569,1.728c0.157,0.562,0.182,1.138,0.234,1.681
			c-0.013,0.55-0.004,1.079-0.097,1.569c-0.051,0.494-0.162,0.947-0.293,1.356c-0.098,0.412-0.264,0.777-0.401,1.095
			c-0.125,0.325-0.27,0.58-0.397,0.786C69.391,136.39,69.232,136.623,69.232,136.623z"/>
	</g>
	<g>
		<path fill="#808285" d="M107.725,68.621c0,0,1.263,0.48,3.472,1.321c0.551,0.215,1.16,0.453,1.821,0.714
			c0.642,0.315,1.337,0.656,2.08,1.019c0.746,0.367,1.539,0.757,2.375,1.168c0.854,0.386,1.633,0.982,2.514,1.501
			c0.865,0.543,1.767,1.109,2.701,1.696c0.877,0.669,1.784,1.363,2.714,2.076c0.466,0.357,0.939,0.721,1.418,1.087
			c0.469,0.376,0.895,0.818,1.352,1.232c0.897,0.853,1.812,1.722,2.744,2.608c1.628,1.984,3.514,3.893,4.913,6.221
			c1.618,2.184,2.766,4.694,4.061,7.121c0.979,2.632,2.037,5.003,2.63,7.739c0.828,2.627,0.998,5.288,1.405,7.826
			c0.047,1.284,0.091,2.547,0.134,3.783c0.005,0.617,0.054,1.228,0.025,1.83c-0.044,0.602-0.086,1.196-0.128,1.783
			c-0.085,1.171-0.168,2.308-0.248,3.409c-0.182,1.087-0.356,2.137-0.523,3.146c-0.196,1.001-0.268,1.982-0.543,2.875
			c-0.246,0.895-0.48,1.745-0.699,2.543c-0.219,0.796-0.425,1.542-0.614,2.231c-0.247,0.671-0.473,1.288-0.677,1.844
			c-0.837,2.213-1.316,3.477-1.316,3.477s0.348-1.305,0.959-3.587c0.158-0.565,0.331-1.193,0.522-1.877
			c0.133-0.697,0.277-1.449,0.431-2.255c0.307-1.608,0.693-3.409,0.868-5.412c0.116-0.995,0.238-2.032,0.363-3.105
			c0.025-1.079,0.051-2.194,0.078-3.34c0.013-0.572,0.027-1.151,0.04-1.738c0-0.586-0.077-1.178-0.111-1.777
			c-0.079-1.196-0.16-2.417-0.242-3.659c-0.445-2.444-0.721-5.022-1.502-7.479c-0.526-2.478-1.688-5.051-2.6-7.469
			c-1.23-2.34-2.308-4.771-3.851-6.882c-1.335-2.247-3.077-4.149-4.612-6.106c-0.876-0.887-1.735-1.757-2.578-2.61
			c-0.425-0.424-0.816-0.875-1.255-1.263c-0.449-0.379-0.891-0.752-1.328-1.122c-0.875-0.74-1.727-1.461-2.551-2.158
			c-0.886-0.616-1.743-1.213-2.563-1.787c-1.619-1.197-3.215-2.1-4.619-2.935c-0.705-0.419-1.363-0.809-1.972-1.173
			c-0.64-0.311-1.229-0.598-1.76-0.857C108.934,69.226,107.725,68.621,107.725,68.621z"/>
	</g>
</g>
<g>
	<path fill="none" stroke="#010101" stroke-miterlimit="10" d="M265.15,294.11h-49.646c-2.205,0-3.994-1.793-3.994-3.996v-45.137
		c0-2.205,1.789-3.996,3.994-3.996h49.646c2.205,0,3.995,1.791,3.995,3.996v45.137C269.146,292.317,267.355,294.11,265.15,294.11z"
		/>
	<path fill="none" stroke="#010101" stroke-miterlimit="10" d="M262.061,259.476h-11.702c-0.645,0-1.168-0.504-1.168-1.125v-10.185
		c0-0.623,0.514-1.125,1.168-1.125h11.691c0.645,0,1.169,0.502,1.169,1.125v10.185C263.218,258.961,262.705,259.476,262.061,259.476
		z"/>
	<path fill="none" stroke="#010101" stroke-miterlimit="10" d="M259.813,257.651h-7.117c-0.534,0-0.972-0.438-0.972-0.973v-3.101
		c0-0.534,0.438-0.972,0.972-0.972h7.117c0.534,0,0.972,0.438,0.972,0.972v3.101C260.783,257.215,260.347,257.651,259.813,257.651z"
		/>
	<path fill="none" stroke="#010101" stroke-miterlimit="10" d="M259.964,250.394h-1.527c-0.447,0-0.818-0.34-0.818-0.754
		s0.371-0.754,0.818-0.754h1.527c0.449,0,0.818,0.34,0.818,0.754S260.414,250.394,259.964,250.394z"/>
	<path fill="none" stroke="#010101" stroke-miterlimit="10" d="M254.136,250.394h-1.715c-0.381,0-0.688-0.308-0.688-0.688v-0.065
		c0-0.414,0.338-0.754,0.753-0.754h1.647c0.416,0,0.754,0.34,0.754,0.754l0,0C254.889,250.054,254.55,250.394,254.136,250.394z"/>
	<path fill="none" stroke="#010101" stroke-miterlimit="10" d="M226.716,275.465h-7.784c-0.853,0-1.527,0.722-1.527,1.604v10.24
		c0,0.904,0.71,1.646,1.571,1.646h31.438c0.83,0,1.496-0.697,1.496-1.561v-10.402c0-0.84-0.656-1.518-1.453-1.518h-7.869
		c-0.862,0-1.5-0.701-1.5-1.607l-0.006-19.7c0-0.677-0.523-1.233-1.17-1.233h-9.977c-0.83,0-1.496,0.699-1.496,1.562v19.168
		C228.439,274.657,227.666,275.465,226.716,275.465z"/>
	<rect x="232.228" y="260.424" fill="none" stroke="#010101" stroke-miterlimit="10" width="4.41" height="6.354"/>
	<rect x="241.855" y="280.235" fill="none" stroke="#010101" stroke-miterlimit="10" width="5.609" height="4.127"/>
	<rect x="222.263" y="280.235" fill="none" stroke="#010101" stroke-miterlimit="10" width="5.607" height="4.127"/>
</g>
<path fill="none" stroke="#000000" stroke-width="0.5" stroke-miterlimit="10" d="M286.199,43.485
	c6.11-6.056,12.221-12.111,18.332-18.167"/>
<path fill="none" stroke="#000000" stroke-width="0.5" stroke-miterlimit="10" d="M302.253,73.049
	c8.76-2.375,17.52-4.749,26.277-7.123"/>
<path fill="none" stroke="#000000" stroke-width="0.5" stroke-miterlimit="10" d="M301.009,107.701
	c9.174,2.701,18.35,5.402,27.521,8.103"/>
<path fill="none" stroke="#000000" stroke-width="0.5" stroke-miterlimit="10" d="M284.498,135.146
	c6.678,6.851,13.355,13.701,20.033,20.55"/>
<path id="XMLID_3_" fill="#010101" d="M356.447,61.112c0.668-0.235,1.371-0.124,2.121,0.041c0.496,0.11,1.008,0.223,1.584,0.223
	c0.77,0,1.49-0.21,2.205-0.644c1.1-0.669,1.85-1.864,2.012-3.198c0.182-1.525-0.391-3.037-1.609-4.257
	c-1.211-1.211-2.828-1.878-4.555-1.878c-1.76,0-3.42,0.691-4.676,1.944c-1.564,1.567-2.586,4.066-2.604,6.358
	c-0.373-0.272-0.703-0.604-0.873-1.087c-0.262-0.746-0.121-1.383,0.041-2.121c0.225-1.012,0.502-2.271-0.42-3.788
	c-0.768-1.261-2.203-2.044-3.748-2.044c-1.332,0-2.646,0.583-3.707,1.642c-2.525,2.526-2.496,6.666,0.066,9.229
	c1.547,1.547,4.09,2.588,6.352,2.614c-0.27,0.369-0.602,0.694-1.08,0.862c-0.668,0.236-1.369,0.125-2.121-0.041
	c-0.496-0.109-1.01-0.223-1.584-0.223c-0.771,0-1.49,0.211-2.203,0.645c-1.1,0.668-1.854,1.863-2.014,3.198
	c-0.182,1.524,0.391,3.036,1.609,4.256c1.213,1.212,2.83,1.878,4.555,1.878c1.76,0,3.42-0.691,4.674-1.944
	c1.568-1.567,2.586-4.067,2.605-6.358c0.373,0.271,0.701,0.604,0.871,1.085c0.264,0.747,0.123,1.384-0.041,2.123
	c-0.225,1.011-0.5,2.27,0.422,3.788c0.768,1.26,2.203,2.043,3.748,2.043c1.33,0,2.646-0.583,3.707-1.641
	c2.523-2.527,2.496-6.666-0.066-9.229c-1.547-1.547-4.09-2.589-6.352-2.614C355.636,61.606,355.968,61.281,356.447,61.112z
	 M353.058,64.119c-0.563,0.564-1.551,0.564-2.115,0c-0.582-0.584-0.582-1.533,0-2.117c0.283-0.283,0.658-0.438,1.061-0.438
	c0.398,0,0.775,0.155,1.057,0.438C353.644,62.585,353.644,63.535,353.058,64.119z"/>
<g>
	<g>
		<path fill="#010101" d="M321.312,21.909c0-0.098,0-0.098,0-0.196v-9.871c0-0.593-0.393-0.985-0.984-0.985
			c-0.594,0-0.986,0.496-0.986,0.985v9.866c0,0.098,0,0.098,0,0.196c-1.186,0.397-1.971,1.481-1.971,2.761
			c0,1.677,1.285,2.961,2.961,2.961c1.678,0,2.963-1.285,2.963-2.961C323.287,23.39,322.498,22.307,321.312,21.909z"/>
		<path fill="#010101" d="M323.287,20.728V2.962c0-1.677-1.283-2.962-2.961-2.962s-2.961,1.383-2.961,2.962v17.76
			c-1.188,0.888-1.973,2.369-1.973,3.947c0,2.761,2.174,4.933,4.934,4.933s4.934-2.172,4.934-4.933
			C325.259,23.091,324.468,21.615,323.287,20.728z M320.326,28.622c-2.172,0-3.947-1.775-3.947-3.947
			c0-1.481,0.789-2.761,1.971-3.452V2.962c0-1.083,0.889-1.971,1.973-1.971s1.971,0.888,1.971,1.971v18.256
			c1.188,0.691,1.973,1.971,1.973,3.452C324.273,26.842,322.498,28.622,320.326,28.622z"/>
	</g>
</g>
<g>
	<path fill="#222222" d="M319.484,155.983c-0.605,0-1.207,0.248-1.637,0.677c-0.426,0.428-0.676,1.028-0.676,1.635v28.495
		c0,0.604,0.25,1.206,0.676,1.634c0.43,0.429,1.029,0.677,1.637,0.677h11.551c0.605,0,1.207-0.248,1.635-0.677
		c0.428-0.428,0.676-1.028,0.676-1.634v-28.495c0-0.604-0.248-1.207-0.676-1.635c-0.428-0.429-1.029-0.677-1.635-0.677H319.484z
		 M324.048,157.522c0.006,0,0.012,0,0.02,0c0.012,0,0.023,0,0.037,0h2.311c0.213-0.002,0.387,0.168,0.391,0.381
		c0.002,0.214-0.168,0.388-0.381,0.392c-0.002,0-0.006,0-0.01,0h-2.311c-0.213,0.015-0.398-0.146-0.412-0.358
		C323.677,157.726,323.835,157.539,324.048,157.522L324.048,157.522z M317.943,159.835h14.633v25.029h-14.633V159.835z
		 M325.259,185.636c0.639,0,1.156,0.518,1.156,1.154s-0.518,1.154-1.156,1.154s-1.154-0.518-1.154-1.154
		C324.105,186.151,324.621,185.636,325.259,185.636z"/>
</g>
<g>
	<path fill="#010101" d="M353.267,120.315v2.053h-0.564c-0.309,0-0.557,0.249-0.557,0.554v7.383c0,0.307,0.248,0.555,0.557,0.555
		h8.791c0.305,0,0.553-0.248,0.553-0.555v-7.383c0-0.307-0.248-0.555-0.553-0.555h-0.566v-2.053c0-2.112-1.719-3.83-3.83-3.83
		C354.984,116.484,353.267,118.202,353.267,120.315z M357.75,127.898v2.053h-1.355v-2.107c-0.121-0.154-0.197-0.348-0.197-0.561
		c0-0.496,0.404-0.898,0.898-0.898c0.496,0,0.898,0.402,0.898,0.898C357.996,127.521,357.9,127.738,357.75,127.898z
		 M359.484,120.315v2.053h-4.775v-2.053c0-1.317,1.072-2.388,2.387-2.388C358.412,117.928,359.484,118.998,359.484,120.315z
		 M357.943,106.582l-0.771-0.644l-0.004,0.004l-0.002-0.003l-0.729,0.628l-11.021,9.446v0.066l-3.4,2.936l1.488,1.723l1.912-1.65
		v16.5h23.832v-16.733l1.479,1.218l1.447-1.757L357.943,106.582z M366.974,133.311h-19.279v-16.188l9.502-8.2l9.777,8.148V133.311
		L366.974,133.311L366.974,133.311z"/>
</g>
</svg>
