<?xml version="1.0" encoding="utf-8"?>
<!-- Generator: Adobe Illustrator 16.0.0, SVG Export Plug-In . SVG Version: 6.00 Build 0)  -->
<!DOCTYPE svg PUBLIC "-//W3C//DTD SVG 1.1//EN" "http://www.w3.org/Graphics/SVG/1.1/DTD/svg11.dtd">
<svg version="1.1" id="Layer_1" xmlns="http://www.w3.org/2000/svg" xmlns:xlink="http://www.w3.org/1999/xlink" x="0px" y="0px"
	 width="354.751px" height="203.179px" viewBox="0 0 354.751 203.179" enable-background="new 0 0 354.751 203.179"
	 xml:space="preserve">
<path fill="#2C2A29" d="M212.092,39.987c-1.69-9.339-6.232-18.122-12.82-24.946c-5.957-6.227-13.58-10.857-21.884-13.185
	c-6.347-1.849-13.07-2.259-19.623-1.485c-9.346,1.218-18.318,5.181-25.46,11.341c-8.391,7.139-14.286,17.171-16.298,28.013
	c-1.641,8.668-0.88,17.781,2.21,26.047c3.394,9.169,9.655,17.23,17.636,22.863c-1.247,0.888-2.291,2.109-2.732,3.595
	c-0.927,2.867,0.48,6.238,3.15,7.622c2.506,1.387,5.903,0.821,7.827-1.304c1.119-1.197,1.693-2.815,1.755-4.438
	c4.309,1.756,8.882,2.823,13.504,3.298c1.223,2.505,4.186,4.069,6.944,3.506c2.095-0.369,3.884-1.88,4.775-3.79
	c3.802-0.6,7.552-1.563,11.126-3.012c0.049,1.841,0.854,3.641,2.212,4.887c2.041,1.815,5.261,2.148,7.598,0.709
	c2.477-1.408,3.763-4.599,2.963-7.331c-0.426-1.542-1.467-2.857-2.787-3.739c8.547-6.007,15.093-14.826,18.309-24.77
	C213.004,56.205,213.552,47.913,212.092,39.987z M142.941,97.646c-1.467,1.465-3.851,1.877-5.734,1.021
	c-1.511-0.612-2.529-2.106-2.852-3.669c-0.444-2.189,0.844-4.539,2.898-5.399c2.251,1.478,4.615,2.786,7.079,3.872
	C144.393,94.969,144.001,96.537,142.941,97.646z M164.989,99.594c-1.55-0.026-2.932-0.912-3.926-2.049
	c2.763,0.138,5.534,0.034,8.29-0.213C168.34,98.695,166.729,99.677,164.989,99.594z M193.742,93.488
	c0.226,1.641-0.491,3.324-1.69,4.433c-1.686,1.444-4.298,1.568-6.147,0.363c-1.62-0.995-2.285-3.007-2.181-4.833
	c2.477-1.099,4.877-2.379,7.136-3.88C192.395,90.292,193.516,91.806,193.742,93.488z M203.349,75.196
	c-4.254,6.305-10.024,11.582-16.693,15.246c-6.7,3.646-14.291,5.646-21.917,5.744c-9.011,0.169-18.062-2.342-25.689-7.146
	c-8.136-5.08-14.727-12.636-18.56-21.438c-2.041-4.638-3.283-9.614-3.745-14.657c1.75,3.355,4.496,6.092,7.56,8.263
	c6.095,4.232,13.25,6.664,20.458,8.196c9.65,1.958,19.604,2.34,29.397,1.379c5.859-0.584,11.679-1.693,17.264-3.565
	c4.303-1.455,8.477-3.384,12.185-6.025c3.153-2.212,5.897-5.071,7.726-8.479C210.664,60.728,207.881,68.552,203.349,75.196z
	 M210.586,50.743c-2.09,4.854-6.207,8.534-10.709,11.136c-8.079,4.614-17.355,6.632-26.533,7.554
	c-11.346,1.023-22.931,0.304-33.913-2.828c-5.308-1.587-10.518-3.766-14.987-7.087c-3.462-2.573-6.44-6.059-7.596-10.287
	c-0.426-1.226-0.189-2.532-0.137-3.794c0.709-10.094,4.812-19.887,11.426-27.533C135.741,9,146.741,3.059,158.394,1.75
	c8.056-0.951,16.358,0.171,23.85,3.288c8.899,3.683,16.562,10.214,21.731,18.327c4.707,7.336,7.334,15.992,7.479,24.705
	C211.367,49.008,210.916,49.871,210.586,50.743z"/>
<path fill="#FFFFFF" stroke="#010101" stroke-width="0.5" stroke-miterlimit="10" d="M24.739,202.236
	c0,0.368-0.298,0.666-0.666,0.666H0.994c-0.368,0-0.667-0.298-0.667-0.666v-82.188c0-0.368,0.298-0.667,0.667-0.667h23.08
	c0.367,0,0.666,0.298,0.666,0.667V202.236L24.739,202.236z"/>
<rect x="1.274" y="120.475" fill="#FFFFFF" stroke="#010101" stroke-width="0.25" stroke-miterlimit="10" width="22.518" height="81.62"/>
<path stroke="#010101" stroke-width="0.25" stroke-miterlimit="10" d="M19.875,170.054c0,0.103-0.099,0.184-0.219,0.184h-4.97
	c-0.121,0-0.219-0.082-0.219-0.184v-1.744c0-0.102,0.098-0.184,0.219-0.184h4.97c0.12,0,0.219,0.083,0.219,0.184V170.054z"/>
<path stroke="#010101" stroke-width="0.25" stroke-miterlimit="10" d="M10.475,170.054c0,0.103-0.099,0.184-0.219,0.184H5.287
	c-0.122,0-0.22-0.082-0.22-0.184v-1.744c0-0.102,0.098-0.184,0.22-0.184h4.969c0.12,0,0.219,0.083,0.219,0.184V170.054z"/>
<path stroke="#010101" stroke-width="0.25" stroke-miterlimit="10" d="M19.875,160.067c0,0.103-0.098,0.184-0.219,0.184h-4.969
	c-0.122,0-0.22-0.081-0.22-0.184v-1.744c0-0.102,0.098-0.184,0.22-0.184h4.969c0.121,0,0.219,0.082,0.219,0.184V160.067z"/>
<path stroke="#010101" stroke-width="0.25" stroke-miterlimit="10" d="M10.476,160.067c0,0.103-0.099,0.184-0.219,0.184h-4.97
	c-0.122,0-0.219-0.081-0.219-0.184v-1.744c0-0.102,0.098-0.184,0.219-0.184h4.97c0.12,0,0.219,0.082,0.219,0.184V160.067z"/>
<path stroke="#010101" stroke-width="0.25" stroke-miterlimit="10" d="M19.875,153.344c0,0.103-0.098,0.185-0.219,0.185h-4.969
	c-0.122,0-0.22-0.082-0.22-0.185v-1.743c0-0.102,0.098-0.184,0.22-0.184h4.969c0.121,0,0.219,0.082,0.219,0.184V153.344z"/>
<path stroke="#010101" stroke-width="0.25" stroke-miterlimit="10" d="M10.476,153.344c0,0.103-0.099,0.185-0.219,0.185h-4.97
	c-0.122,0-0.219-0.082-0.219-0.185v-1.743c0-0.102,0.098-0.184,0.219-0.184h4.97c0.12,0,0.219,0.082,0.219,0.184V153.344z"/>
<path stroke="#010101" stroke-width="0.25" stroke-miterlimit="10" d="M19.875,146.687c0,0.103-0.098,0.184-0.219,0.184h-4.969
	c-0.122,0-0.22-0.082-0.22-0.184v-1.743c0-0.103,0.098-0.185,0.22-0.185h4.969c0.121,0,0.219,0.082,0.219,0.185V146.687z"/>
<path stroke="#010101" stroke-width="0.25" stroke-miterlimit="10" d="M10.476,146.687c0,0.103-0.099,0.184-0.219,0.184h-4.97
	c-0.122,0-0.219-0.082-0.219-0.184v-1.743c0-0.103,0.098-0.185,0.219-0.185h4.97c0.12,0,0.219,0.082,0.219,0.185V146.687z"/>
<path stroke="#010101" stroke-width="0.25" stroke-miterlimit="10" d="M19.875,139.963c0,0.103-0.098,0.184-0.219,0.184h-4.969
	c-0.122,0-0.22-0.082-0.22-0.184v-1.743c0-0.102,0.098-0.184,0.22-0.184h4.969c0.121,0,0.219,0.082,0.219,0.184V139.963z"/>
<path stroke="#010101" stroke-width="0.25" stroke-miterlimit="10" d="M10.476,139.963c0,0.103-0.099,0.184-0.219,0.184h-4.97
	c-0.122,0-0.219-0.082-0.219-0.184v-1.743c0-0.102,0.098-0.184,0.219-0.184h4.97c0.12,0,0.219,0.082,0.219,0.184V139.963z"/>
<path fill="#FFFFFF" stroke="#010101" stroke-width="0.25" stroke-miterlimit="10" d="M15.782,175.646
	c0-0.245-0.234-0.441-0.52-0.441h-5.64c-0.286,0-0.519,0.198-0.519,0.441v1.648c0,0.245,0.233,0.442,0.519,0.442h5.64
	c0.286,0,0.52-0.198,0.52-0.442V175.646z"/>
<circle fill="#FFFFFF" stroke="#010101" stroke-width="0.25" stroke-miterlimit="10" cx="12.487" cy="126.186" r="1.664"/>
<path fill="#FFFFFF" stroke="#010101" stroke-width="0.25" stroke-miterlimit="10" d="M11.542,126.363l0.374-0.44
	c0.192-0.213,0.359-0.026,0.359-0.026l0.549,0.44c0.257,0.212,0.416-0.011,0.443-0.029l0.257-0.305"/>
<path fill="#010101" d="M7.424,157.158c0.236,0.362,0.52,0.338,0.752-0.004l1.414-2.346c0.138-0.295-0.002-0.56-0.373-0.56H6.291
	c-0.369,0-0.481,0.252-0.317,0.552L7.424,157.158z"/>
<path fill="#010101" d="M16.823,154.512c0.237-0.362,0.52-0.338,0.752,0.004l1.414,2.346c0.139,0.295-0.001,0.559-0.372,0.559H15.69
	c-0.369,0-0.482-0.252-0.317-0.552L16.823,154.512z"/>
<circle fill="none" stroke="#FFFFFF" stroke-width="0.25" stroke-miterlimit="10" cx="7.812" cy="155.46" r="0.728"/>
<rect x="16.919" y="155.092" fill="#FFFFFF" width="0.573" height="1.934"/>
<path fill="#010101" d="M7.486,150.5c0.237,0.362,0.52,0.338,0.752-0.004l1.414-2.346c0.139-0.295-0.001-0.559-0.372-0.559H6.354
	c-0.369,0-0.482,0.252-0.317,0.552L7.486,150.5z"/>
<path fill="#010101" d="M16.885,147.854c0.237-0.362,0.52-0.338,0.752,0.004l1.414,2.346c0.138,0.295-0.002,0.559-0.372,0.559
	h-2.926c-0.369,0-0.482-0.251-0.318-0.552L16.885,147.854z"/>
<circle fill="none" stroke="#FFFFFF" stroke-width="0.25" stroke-miterlimit="10" cx="7.875" cy="148.802" r="0.729"/>
<rect x="16.981" y="148.435" fill="#FFFFFF" width="0.573" height="1.934"/>
<path fill="#010101" d="M7.44,143.793c0.236,0.362,0.52,0.338,0.752-0.004l1.414-2.346c0.139-0.295-0.001-0.559-0.372-0.559H6.308
	c-0.369,0-0.481,0.252-0.317,0.552L7.44,143.793z"/>
<path fill="#010101" d="M16.839,141.147c0.237-0.361,0.52-0.338,0.753,0.004l1.414,2.346c0.138,0.295-0.001,0.56-0.372,0.56h-2.926
	c-0.369,0-0.481-0.252-0.318-0.552L16.839,141.147z"/>
<circle fill="none" stroke="#FFFFFF" stroke-width="0.25" stroke-miterlimit="10" cx="7.828" cy="142.095" r="0.729"/>
<rect x="16.936" y="141.729" fill="#FFFFFF" width="0.574" height="1.934"/>
<path fill="#010101" d="M7.486,137.039c0.237,0.361,0.52,0.337,0.752-0.005l1.414-2.346c0.139-0.295-0.001-0.559-0.372-0.559H6.354
	c-0.369,0-0.482,0.252-0.317,0.552L7.486,137.039z"/>
<path fill="#010101" d="M16.885,134.392c0.237-0.362,0.52-0.338,0.752,0.003l1.414,2.346c0.138,0.296-0.002,0.56-0.372,0.56h-2.926
	c-0.369,0-0.482-0.252-0.318-0.552L16.885,134.392z"/>
<circle fill="none" stroke="#FFFFFF" stroke-width="0.25" stroke-miterlimit="10" cx="7.875" cy="135.34" r="0.728"/>
<rect x="16.981" y="134.973" fill="#FFFFFF" width="0.573" height="1.934"/>
<rect x="11.858" y="137.926" fill="none" width="1.698" height="2.223"/>
<rect x="11.858" y="144.704" fill="none" width="1.698" height="2.222"/>
<rect x="11.858" y="151.361" fill="none" width="1.698" height="2.222"/>
<rect x="11.858" y="158.084" fill="none" width="1.698" height="2.223"/>
<rect x="9.497" y="178.365" fill="none" width="6.221" height="1.73"/>
<text transform="matrix(1.0771 0 0 1 9.4971 179.5991)" fill="#010101" font-family="'ArialMT'" font-size="1.7232">a-b-c-d</text>
<path stroke="#010101" stroke-width="0.15" stroke-miterlimit="10" d="M15.554,177.326c0,0.122-0.1,0.221-0.222,0.221h-0.405
	c-0.122,0-0.222-0.099-0.222-0.221v-1.711c0-0.122,0.1-0.221,0.222-0.221h0.405c0.122,0,0.222,0.099,0.222,0.221V177.326z"/>
<path fill="#010101" d="M9.227,167.488c0,0.122-0.1,0.222-0.223,0.222H6.536c-0.123,0-0.222-0.1-0.222-0.222v-2.31
	c0-0.122,0.1-0.222,0.222-0.222h2.468c0.123,0,0.223,0.1,0.223,0.222V167.488z"/>
<path fill="#010101" d="M18.627,167.488c0,0.122-0.1,0.222-0.223,0.222h-2.467c-0.123,0-0.222-0.1-0.222-0.222v-2.31
	c0-0.122,0.099-0.222,0.222-0.222h2.467c0.123,0,0.223,0.1,0.223,0.222V167.488z"/>
<circle fill="#FFFFFF" cx="17.17" cy="166.334" r="0.967"/>
<circle fill="none" stroke="#FFFFFF" stroke-width="0.25" stroke-miterlimit="10" cx="7.771" cy="166.334" r="0.828"/>
<rect x="7.616" y="165.214" fill="#FFFFFF" stroke="#010101" stroke-width="0.1" stroke-miterlimit="10" width="0.318" height="0.881"/>
<path fill="#010101" d="M11.671,196.653c-0.012-0.033-0.021-0.064-0.021-0.088c0-0.045,0.035-0.103,0.121-0.103
	c0.054,0,0.106,0.019,0.141,0.118l0.325,0.947h0.005l0.319-0.914c0.035-0.1,0.057-0.151,0.148-0.151
	c0.092,0,0.116,0.052,0.149,0.151l0.319,0.914h0.005l0.324-0.947c0.035-0.1,0.087-0.118,0.141-0.118
	c0.086,0,0.121,0.058,0.121,0.103c0,0.023-0.009,0.055-0.02,0.088l-0.419,1.109c-0.035,0.089-0.075,0.12-0.147,0.12
	c-0.069,0-0.112-0.031-0.144-0.12l-0.327-0.936h-0.006l-0.327,0.936c-0.032,0.089-0.075,0.12-0.144,0.12
	c-0.073,0-0.112-0.031-0.147-0.12L11.671,196.653z"/>
<path fill="#010101" d="M16.353,197.26c0,0.239,0.167,0.424,0.451,0.424c0.335,0,0.422-0.188,0.517-0.188
	c0.044,0,0.091,0.037,0.091,0.103c0,0.112-0.313,0.283-0.612,0.283c-0.489,0-0.701-0.343-0.701-0.71c0-0.375,0.258-0.71,0.686-0.71
	c0.416,0,0.658,0.343,0.658,0.676c0,0.081-0.031,0.122-0.141,0.122H16.353z M17.191,197.088c0-0.198-0.127-0.428-0.405-0.428
	c-0.312-0.01-0.425,0.217-0.434,0.428H17.191z"/>
<path fill="#010101" d="M6.311,197.653h0.628c0.071,0,0.124,0.033,0.124,0.107c0,0.072-0.052,0.107-0.124,0.107H6.193
	c-0.096,0-0.135-0.055-0.135-0.125v-1.627c0-0.076,0.049-0.123,0.126-0.123c0.076,0,0.126,0.048,0.126,0.123V197.653z"/>
<path fill="#010101" d="M7.39,195.993c0.085,0,0.154,0.063,0.154,0.142s-0.069,0.141-0.154,0.141c-0.086,0-0.156-0.062-0.156-0.141
	S7.303,195.993,7.39,195.993"/>
<path fill="#010101" d="M7.516,197.76c0,0.076-0.049,0.122-0.126,0.122s-0.126-0.048-0.126-0.122v-1.175
	c0-0.076,0.049-0.123,0.126-0.123s0.126,0.048,0.126,0.123V197.76z"/>
<path fill="#010101" d="M9.102,197.768c0,0.411-0.276,0.691-0.689,0.691c-0.261,0-0.586-0.137-0.586-0.254
	c0-0.046,0.026-0.107,0.106-0.107c0.115,0,0.227,0.162,0.5,0.162c0.322,0,0.416-0.257,0.416-0.456v-0.12H8.843
	c-0.078,0.12-0.216,0.198-0.388,0.198c-0.431,0-0.671-0.343-0.671-0.71c0-0.369,0.241-0.71,0.671-0.71
	c0.164,0,0.322,0.092,0.388,0.176h0.005v-0.063c0-0.08,0.066-0.112,0.135-0.112c0.049,0,0.118,0.032,0.118,0.112V197.768z
	 M8.455,197.684c0.31,0,0.42-0.277,0.42-0.512s-0.109-0.512-0.42-0.512c-0.31,0-0.419,0.277-0.419,0.512
	S8.145,197.684,8.455,197.684"/>
<path fill="#010101" d="M10.405,197.002c0-0.243-0.186-0.342-0.354-0.342c-0.166,0-0.353,0.099-0.353,0.342v0.758
	c0,0.076-0.048,0.121-0.126,0.121c-0.078,0-0.126-0.047-0.126-0.121v-1.785c0-0.076,0.049-0.123,0.126-0.123
	c0.078,0,0.126,0.048,0.126,0.123v0.665l0.006,0.007c0.112-0.131,0.27-0.184,0.422-0.184c0.236,0,0.532,0.137,0.532,0.527v0.77
	c0,0.076-0.049,0.122-0.126,0.122c-0.077,0-0.127-0.046-0.127-0.122V197.002z"/>
<path fill="#010101" d="M11.042,196.178c0-0.076,0.049-0.123,0.127-0.123s0.126,0.048,0.126,0.123v0.3h0.103
	c0.084,0,0.126,0.036,0.126,0.1c0,0.063-0.042,0.1-0.126,0.1h-0.103v1.083c0,0.076-0.049,0.122-0.126,0.122
	s-0.127-0.048-0.127-0.122v-1.083h-0.103c-0.084,0-0.127-0.037-0.127-0.1c0-0.063,0.043-0.1,0.127-0.1h0.103V196.178z"/>
<path fill="#010101" d="M13.73,197.881c-0.061-0.021-0.093-0.088-0.072-0.148l0.366-1.038c0.024-0.067,0.054-0.124,0.096-0.171
	c0.041-0.045,0.101-0.08,0.17-0.08c0.071,0,0.13,0.035,0.172,0.078c0.043,0.045,0.075,0.101,0.103,0.168
	c0.063,0.154,0.097,0.242,0.097,0.242c0.023,0.059-0.006,0.127-0.066,0.15c-0.061,0.025-0.127-0.004-0.152-0.064
	c0-0.001-0.035-0.086-0.096-0.24c-0.035-0.076-0.068-0.086-0.102-0.006l-0.366,1.037c-0.017,0.049-0.062,0.08-0.111,0.08
	C13.756,197.889,13.743,197.885,13.73,197.881"/>
<path fill="#010101" d="M15.814,197.141c0.061,0.021,0.093,0.089,0.072,0.15l-0.398,1.096c-0.024,0.068-0.055,0.124-0.098,0.17
	c-0.042,0.046-0.103,0.082-0.173,0.082s-0.132-0.035-0.175-0.08c-0.043-0.044-0.075-0.1-0.104-0.167
	c-0.063-0.154-0.368-0.971-0.368-0.971c-0.024-0.061,0.006-0.129,0.067-0.152c0.062-0.024,0.131,0.005,0.155,0.065
	c0,0,0.305,0.816,0.368,0.971c0.035,0.075,0.069,0.085,0.103,0.005l0.398-1.097c0.018-0.049,0.063-0.079,0.113-0.079
	C15.787,197.134,15.8,197.137,15.814,197.141"/>
<path fill="#010101" d="M18.125,197.249c0,0.035-0.021,0.056-0.057,0.056s-0.056-0.021-0.056-0.056v-0.732
	c0-0.031,0.016-0.056,0.06-0.056h0.211c0.146,0,0.283,0.089,0.283,0.226c0,0.17-0.114,0.233-0.25,0.238h-0.049l0.293,0.293
	c0.016,0.016,0.021,0.029,0.021,0.047c0,0.023-0.024,0.041-0.051,0.041c-0.023,0-0.039-0.011-0.052-0.023l-0.352-0.35
	L18.125,197.249L18.125,197.249z M18.125,196.848h0.156c0.119,0,0.17-0.047,0.17-0.154c0-0.078-0.067-0.144-0.173-0.144h-0.153
	V196.848L18.125,196.848z"/>
<path fill="#010101" d="M18.83,197.249c0,0.035-0.021,0.055-0.056,0.055c-0.036,0-0.057-0.02-0.057-0.055v-0.732
	c0-0.031,0.018-0.056,0.061-0.056h0.323c0.032,0,0.056,0.016,0.056,0.048c0,0.033-0.024,0.049-0.056,0.049H18.83v0.274h0.24
	c0.032,0,0.055,0.017,0.055,0.048c0,0.033-0.023,0.049-0.055,0.049h-0.24V197.249L18.83,197.249z"/>
<g>
	<g>
		<path fill="#6D6E71" d="M86.54,111.862c0,0,0.078-0.842,0.249-2.309c0.044-0.367,0.094-0.772,0.147-1.214
			c0.016-0.442,0.034-0.92,0.053-1.431c0.039-1.02,0.105-2.16,0.023-3.413c-0.023-0.624-0.047-1.273-0.072-1.946
			c-0.082-0.667-0.166-1.356-0.253-2.065c-0.042-0.354-0.085-0.712-0.129-1.075c-0.052-0.361-0.152-0.719-0.227-1.084
			c-0.156-0.729-0.316-1.474-0.478-2.232c-0.494-1.467-0.893-3.02-1.602-4.482c-0.558-1.508-1.485-2.948-2.233-4.318
			c-0.981-1.363-1.899-2.821-3.006-3.948c-1.002-1.242-2.242-2.277-3.355-3.349c-0.615-0.47-1.221-0.933-1.813-1.385
			c-0.298-0.224-0.579-0.468-0.883-0.669c-0.309-0.195-0.614-0.387-0.916-0.577c-0.604-0.381-1.19-0.752-1.758-1.111
			c-0.597-0.31-1.174-0.61-1.729-0.897c-1.095-0.61-2.161-1.039-3.101-1.441c-0.47-0.202-0.911-0.39-1.317-0.564
			c-0.42-0.14-0.806-0.269-1.154-0.385c-1.394-0.471-2.192-0.762-2.192-0.762s0.826,0.161,2.273,0.482
			c0.362,0.082,0.763,0.172,1.2,0.271c0.426,0.134,0.888,0.279,1.38,0.434c0.989,0.307,2.118,0.634,3.274,1.186
			c0.588,0.253,1.201,0.518,1.835,0.792c0.604,0.336,1.229,0.685,1.872,1.042c1.323,0.66,2.536,1.65,3.864,2.563
			c1.191,1.087,2.53,2.088,3.625,3.435c1.227,1.25,2.122,2.652,3.123,4.014c0.869,1.586,1.751,3.009,2.345,4.626
			c0.735,1.539,1.076,3.188,1.547,4.728c0.14,0.793,0.277,1.574,0.412,2.338c0.058,0.383,0.141,0.757,0.176,1.134
			c0.026,0.377,0.052,0.75,0.077,1.117c0.049,0.734,0.096,1.447,0.142,2.138c-0.024,0.69-0.046,1.357-0.069,1.998
			c0.005,1.279-0.183,2.446-0.328,3.473c-0.071,0.512-0.137,0.992-0.198,1.436c-0.097,0.434-0.186,0.833-0.267,1.193
			C86.747,111.043,86.54,111.862,86.54,111.862z"/>
	</g>
	<g>
		<path fill="#414042" d="M46.448,94.53c0,0,0.42,0.061,1.156,0.168c0.368,0.048,0.81,0.132,1.314,0.286
			c0.507,0.135,1.091,0.28,1.683,0.539c0.303,0.119,0.618,0.242,0.944,0.37c0.312,0.163,0.633,0.331,0.964,0.503
			c0.68,0.32,1.313,0.805,1.995,1.264c0.614,0.545,1.314,1.049,1.867,1.724c0.625,0.633,1.081,1.324,1.647,2.106
			c0.4,0.748,0.832,1.441,1.149,2.303c0.389,0.814,0.536,1.652,0.769,2.442c0.124,0.813,0.292,1.592,0.291,2.344
			c0.015,0.373,0.029,0.736,0.043,1.087c-0.024,0.35-0.047,0.688-0.07,1.012c-0.02,0.648-0.138,1.231-0.232,1.746
			c-0.076,0.517-0.19,0.957-0.305,1.315c-0.21,0.718-0.343,1.119-0.343,1.119s0.018-0.424,0.049-1.166
			c0.033-0.366,0.04-0.812,0.028-1.322c-0.003-0.509,0.006-1.079-0.058-1.697c-0.023-0.308-0.047-0.628-0.071-0.96
			c-0.05-0.328-0.101-0.666-0.154-1.014c-0.068-0.7-0.315-1.403-0.459-2.146c-0.25-0.713-0.472-1.476-0.805-2.162
			c-0.258-0.701-0.73-1.439-1.139-2.17c-0.424-0.58-0.875-1.318-1.417-1.874c-0.495-0.619-1.083-1.133-1.623-1.668
			c-0.61-0.447-1.139-0.973-1.743-1.333c-0.292-0.197-0.576-0.388-0.851-0.573c-0.289-0.165-0.569-0.323-0.837-0.475
			c-0.534-0.322-1.046-0.555-1.503-0.775c-0.451-0.228-0.862-0.415-1.212-0.542C46.84,94.695,46.448,94.53,46.448,94.53z"/>
	</g>
	<g>
		<path fill="#58595B" d="M72.93,113.361c0,0,0.042-0.634,0.151-1.738c0.029-0.275,0.061-0.581,0.095-0.913
			c0.007-0.332,0.014-0.69,0.021-1.073c0.015-0.764,0.05-1.615-0.021-2.552c-0.023-0.466-0.047-0.951-0.071-1.454
			c-0.066-0.497-0.134-1.011-0.204-1.54c-0.083-1.063-0.437-2.136-0.647-3.268c-0.374-1.091-0.679-2.244-1.208-3.331
			c-0.424-1.133-1.092-2.166-1.683-3.234c-0.688-0.954-1.413-2.104-2.217-2.918c-0.74-0.918-1.658-1.699-2.483-2.5
			c-0.933-0.674-1.753-1.45-2.678-1.981c-0.448-0.289-0.883-0.57-1.305-0.842c-0.443-0.237-0.872-0.466-1.283-0.687
			c-0.814-0.465-1.605-0.799-2.304-1.113c-0.35-0.157-0.677-0.304-0.98-0.439c-0.313-0.11-0.6-0.211-0.859-0.303
			c-1.039-0.372-1.634-0.606-1.634-0.606s0.623,0.104,1.715,0.326c0.273,0.057,0.576,0.12,0.905,0.189
			c0.322,0.096,0.671,0.199,1.043,0.309c0.748,0.218,1.602,0.451,2.477,0.857c0.445,0.186,0.91,0.38,1.39,0.581
			c0.458,0.25,0.931,0.508,1.418,0.773c1.002,0.49,1.924,1.228,2.929,1.914c0.904,0.818,1.92,1.564,2.752,2.587
			c0.945,0.968,1.581,1.963,2.379,3.053c0.621,1.149,1.311,2.263,1.75,3.474c0.554,1.164,0.802,2.413,1.153,3.577
			c0.191,1.202,0.462,2.352,0.478,3.466c0.032,0.553,0.063,1.091,0.092,1.612c-0.024,0.52-0.047,1.022-0.069,1.504
			c-0.006,0.962-0.163,1.841-0.285,2.612c-0.06,0.385-0.115,0.745-0.167,1.077c-0.078,0.325-0.15,0.624-0.215,0.893
			C73.102,112.75,72.93,113.361,72.93,113.361z"/>
	</g>
	<g>
		<path d="M45.708,116.358c0,0-0.026-0.218-0.048-0.596c-0.012-0.388-0.071-0.893-0.155-1.498c-0.037-0.303-0.101-0.624-0.175-0.957
			c-0.051-0.337-0.193-0.67-0.275-1.022c-0.14-0.337-0.242-0.695-0.418-1.028c-0.144-0.348-0.353-0.667-0.536-1
			c-0.195-0.271-0.474-0.7-0.688-0.925c-0.208-0.278-0.495-0.535-0.739-0.802c-0.283-0.225-0.524-0.495-0.807-0.686
			c-0.269-0.209-0.532-0.403-0.79-0.567c-0.508-0.333-0.96-0.609-1.289-0.782c-0.326-0.18-0.516-0.298-0.516-0.298
			s0.216-0.005,0.6,0.012c0.193,0.005,0.427,0.023,0.688,0.08c0.264,0.045,0.568,0.093,0.88,0.207
			c0.323,0.089,0.666,0.213,1.01,0.392c0.36,0.149,0.701,0.383,1.064,0.611c0.333,0.272,0.691,0.523,1.008,0.892
			c0.37,0.37,0.544,0.654,0.845,1.065c0.221,0.407,0.464,0.803,0.608,1.237c0.184,0.417,0.266,0.859,0.367,1.274
			c0.051,0.426,0.115,0.834,0.097,1.223c0.015,0.387-0.02,0.75-0.077,1.08c-0.03,0.329-0.118,0.631-0.189,0.891
			c-0.061,0.265-0.144,0.479-0.221,0.651C45.806,116.161,45.708,116.358,45.708,116.358z"/>
	</g>
	<g>
		<path fill="#808285" d="M67.966,59.542c0,0,1.029,0.232,2.83,0.638c0.449,0.106,0.946,0.223,1.487,0.351
			c0.531,0.173,1.106,0.36,1.72,0.56c0.616,0.201,1.272,0.415,1.964,0.641c0.703,0.204,1.371,0.579,2.109,0.883
			c0.729,0.324,1.489,0.663,2.275,1.013c0.751,0.421,1.528,0.857,2.327,1.305c0.4,0.225,0.806,0.453,1.216,0.684
			c0.405,0.24,0.782,0.534,1.182,0.803c0.787,0.56,1.59,1.132,2.408,1.714c1.479,1.354,3.146,2.622,4.485,4.268
			c1.5,1.525,2.635,3.289,3.946,5.093c1.005,1.856,2.116,3.623,2.866,5.657c0.93,1.94,1.354,3.979,1.949,5.896
			c0.177,0.987,0.351,1.958,0.521,2.909c0.073,0.477,0.178,0.943,0.221,1.412c0.033,0.47,0.065,0.934,0.098,1.392
			c0.063,0.914,0.125,1.802,0.185,2.662c-0.02,0.86-0.04,1.692-0.058,2.49c-0.041,0.796,0.012,1.562-0.103,2.282
			c-0.092,0.72-0.179,1.403-0.26,2.044c-0.082,0.64-0.159,1.238-0.229,1.792c-0.116,0.546-0.223,1.048-0.319,1.501
			c-0.404,1.802-0.634,2.833-0.634,2.833s0.125-1.047,0.346-2.878c0.06-0.455,0.125-0.959,0.197-1.508
			c0.026-0.554,0.054-1.152,0.084-1.791c0.06-1.277,0.159-2.712,0.075-4.28c-0.02-0.782-0.041-1.597-0.062-2.44
			c-0.1-0.837-0.203-1.702-0.309-2.591c-0.053-0.443-0.106-0.893-0.161-1.348c-0.064-0.453-0.189-0.902-0.283-1.361
			c-0.193-0.916-0.39-1.852-0.591-2.803c-0.613-1.84-1.111-3.804-1.986-5.616c-0.689-1.873-1.841-3.684-2.855-5.524
			c-1.167-1.602-2.299-3.413-3.716-4.859c-1.281-1.59-2.836-2.868-4.24-4.212c-0.774-0.588-1.535-1.167-2.28-1.733
			c-0.375-0.281-0.728-0.585-1.11-0.837c-0.388-0.244-0.772-0.484-1.15-0.722c-0.758-0.476-1.497-0.938-2.21-1.386
			c-0.753-0.38-1.481-0.747-2.18-1.099c-1.383-0.747-2.716-1.269-3.895-1.76c-0.59-0.246-1.143-0.476-1.653-0.689
			c-0.529-0.17-1.015-0.327-1.455-0.468C68.967,59.875,67.966,59.542,67.966,59.542z"/>
	</g>
</g>
<g>
	<g>
		<path fill="#6D6E71" d="M252.592,121.006c0,0,0.809-0.247,2.231-0.644c0.355-0.098,0.75-0.206,1.179-0.324
			c0.416-0.152,0.865-0.317,1.345-0.493c0.958-0.351,2.038-0.72,3.167-1.271c0.569-0.258,1.161-0.526,1.774-0.804
			c0.586-0.328,1.192-0.667,1.815-1.016c0.311-0.173,0.626-0.349,0.945-0.526c0.314-0.185,0.608-0.413,0.918-0.621
			c0.616-0.42,1.245-0.85,1.885-1.287c1.171-1.013,2.457-1.969,3.542-3.179c1.185-1.088,2.166-2.491,3.151-3.702
			c0.891-1.424,1.893-2.826,2.517-4.277c0.77-1.397,1.259-2.937,1.829-4.373c0.202-0.748,0.4-1.483,0.596-2.203
			c0.094-0.361,0.214-0.713,0.284-1.071c0.063-0.36,0.126-0.715,0.188-1.066c0.124-0.703,0.245-1.387,0.362-2.048
			c0.061-0.67,0.12-1.317,0.176-1.939c0.15-1.245,0.144-2.394,0.16-3.415c0.009-0.512,0.017-0.991,0.024-1.434
			c-0.029-0.441-0.057-0.847-0.081-1.214c-0.092-1.468-0.124-2.317-0.124-2.317s0.163,0.826,0.414,2.287
			c0.062,0.366,0.13,0.771,0.204,1.212c0.037,0.445,0.077,0.927,0.121,1.442c0.09,1.031,0.215,2.2,0.142,3.479
			c-0.012,0.641-0.024,1.308-0.037,1.999c-0.083,0.687-0.168,1.396-0.256,2.126c-0.11,1.475-0.567,2.972-0.91,4.547
			c-0.556,1.515-0.975,3.133-1.807,4.655c-0.693,1.609-1.652,2.968-2.534,4.41c-1.139,1.404-2.121,2.76-3.394,3.921
			c-1.146,1.263-2.544,2.203-3.79,3.222c-0.682,0.43-1.352,0.853-2.008,1.266c-0.332,0.199-0.647,0.417-0.982,0.592
			c-0.34,0.167-0.675,0.332-1.005,0.495c-0.661,0.323-1.304,0.636-1.925,0.94c-0.648,0.239-1.274,0.471-1.875,0.693
			c-1.183,0.488-2.333,0.756-3.339,1.011c-0.501,0.128-0.97,0.249-1.403,0.36c-0.438,0.075-0.842,0.143-1.206,0.205
			C253.429,120.888,252.592,121.006,252.592,121.006z"/>
	</g>
	<g>
		<path fill="#414042" d="M253.455,77.337c0,0,0.103,0.412,0.282,1.134c0.094,0.359,0.184,0.799,0.232,1.324
			c0.066,0.521,0.154,1.116,0.139,1.762c0.005,0.325,0.01,0.664,0.015,1.014c-0.032,0.35-0.066,0.711-0.101,1.083
			c-0.039,0.751-0.248,1.52-0.415,2.325c-0.271,0.774-0.473,1.613-0.888,2.381c-0.339,0.804-0.842,1.534-1.302,2.29
			c-0.59,0.719-1.032,1.333-1.721,1.969c-0.606,0.667-1.326,1.122-1.97,1.636c-0.706,0.422-1.363,0.874-2.06,1.156
			c-0.34,0.155-0.67,0.306-0.99,0.452c-0.332,0.11-0.654,0.216-0.963,0.318c-0.606,0.228-1.191,0.339-1.703,0.446
			c-0.507,0.125-0.958,0.187-1.333,0.216c-0.744,0.077-1.165,0.105-1.165,0.105s0.399-0.144,1.097-0.396
			c0.352-0.107,0.768-0.271,1.234-0.475c0.47-0.196,1.001-0.403,1.549-0.695c0.276-0.138,0.564-0.281,0.861-0.43
			c0.285-0.17,0.578-0.346,0.881-0.527c0.622-0.328,1.179-0.823,1.812-1.237c0.565-0.502,1.188-0.996,1.696-1.564
			c0.54-0.489,1.08-1.253,1.553-1.842c0.426-0.678,0.902-1.328,1.222-2.054c0.386-0.692,0.639-1.432,0.93-2.133
			c0.183-0.734,0.469-1.422,0.573-2.118c0.071-0.345,0.142-0.68,0.208-1.005c0.043-0.33,0.084-0.649,0.123-0.955
			c0.096-0.616,0.117-1.179,0.147-1.685c0.04-0.503,0.058-0.955,0.043-1.327C253.45,77.762,253.455,77.337,253.455,77.337z"/>
	</g>
	<g>
		<path fill="#58595B" d="M246.052,108.977c0,0,0.603-0.201,1.666-0.518c0.266-0.078,0.561-0.164,0.881-0.257
			c0.31-0.12,0.644-0.249,1.001-0.386c0.713-0.275,1.514-0.565,2.354-0.986c0.422-0.197,0.862-0.403,1.317-0.616
			c0.436-0.249,0.886-0.506,1.349-0.771c0.952-0.48,1.812-1.213,2.78-1.836c0.868-0.759,1.819-1.478,2.625-2.379
			c0.888-0.822,1.591-1.831,2.356-2.782c0.623-0.998,1.412-2.104,1.861-3.158c0.57-1.033,0.945-2.177,1.374-3.245
			c0.271-1.119,0.679-2.172,0.82-3.229c0.099-0.524,0.193-1.034,0.285-1.526c0.052-0.5,0.102-0.983,0.149-1.447
			c0.122-0.93,0.132-1.789,0.158-2.554c0.013-0.383,0.024-0.742,0.036-1.074c-0.017-0.331-0.032-0.635-0.046-0.91
			c-0.049-1.102-0.057-1.742-0.057-1.742s0.139,0.616,0.348,1.711c0.051,0.274,0.106,0.579,0.168,0.909
			c0.033,0.334,0.07,0.696,0.108,1.083c0.081,0.775,0.189,1.653,0.145,2.617c-0.003,0.483-0.007,0.986-0.011,1.507
			c-0.058,0.518-0.117,1.054-0.179,1.604c-0.074,1.113-0.407,2.246-0.662,3.437c-0.415,1.146-0.721,2.369-1.353,3.526
			c-0.538,1.242-1.218,2.207-1.924,3.359c-0.828,1.009-1.599,2.069-2.554,2.935c-0.867,0.954-1.929,1.656-2.873,2.421
			c-1.041,0.632-2.002,1.318-3.028,1.754c-0.5,0.239-0.986,0.471-1.457,0.696c-0.49,0.175-0.964,0.344-1.419,0.506
			c-0.894,0.358-1.766,0.546-2.525,0.725c-0.378,0.09-0.732,0.175-1.061,0.253c-0.33,0.05-0.633,0.097-0.907,0.139
			C246.684,108.905,246.052,108.977,246.052,108.977z"/>
	</g>
	<g>
		<path d="M232.972,84.917c0,0,0.192-0.107,0.533-0.27c0.354-0.158,0.8-0.404,1.328-0.71c0.267-0.148,0.539-0.33,0.819-0.524
			c0.293-0.175,0.547-0.433,0.842-0.642c0.259-0.257,0.552-0.487,0.794-0.776c0.268-0.265,0.484-0.579,0.723-0.874
			c0.176-0.281,0.469-0.703,0.595-0.986c0.179-0.298,0.309-0.661,0.463-0.988c0.101-0.348,0.26-0.673,0.329-1.007
			c0.092-0.328,0.173-0.645,0.227-0.945c0.116-0.597,0.2-1.12,0.235-1.489c0.043-0.37,0.081-0.591,0.081-0.591
			s0.087,0.198,0.216,0.56c0.068,0.181,0.14,0.404,0.187,0.667c0.058,0.262,0.128,0.561,0.142,0.894
			c0.04,0.333,0.055,0.697,0.02,1.083c-0.002,0.39-0.09,0.793-0.163,1.216c-0.125,0.412-0.223,0.838-0.443,1.271
			c-0.202,0.482-0.398,0.751-0.665,1.187c-0.293,0.358-0.568,0.733-0.915,1.03c-0.316,0.328-0.695,0.571-1.041,0.822
			c-0.375,0.208-0.729,0.422-1.096,0.552c-0.353,0.161-0.701,0.265-1.028,0.337c-0.316,0.097-0.629,0.13-0.897,0.162
			c-0.268,0.044-0.497,0.048-0.686,0.042C233.191,84.932,232.972,84.917,232.972,84.917z"/>
	</g>
	<g>
		<path fill="#808285" d="M293.985,84.007c0,0,0.175,1.04,0.481,2.861c0.071,0.456,0.151,0.96,0.237,1.509
			c0.042,0.557,0.086,1.16,0.134,1.803c0.047,0.647,0.098,1.335,0.15,2.061c0.078,0.728-0.017,1.488-0.019,2.286
			c-0.024,0.798-0.05,1.629-0.075,2.489c-0.105,0.855-0.215,1.739-0.327,2.648c-0.057,0.456-0.114,0.917-0.172,1.384
			c-0.069,0.466-0.198,0.926-0.297,1.398c-0.22,0.94-0.445,1.901-0.675,2.877c-0.693,1.881-1.235,3.904-2.252,5.767
			c-0.843,1.966-2.046,3.685-3.22,5.58c-1.338,1.634-2.553,3.33-4.151,4.794c-1.443,1.595-3.169,2.76-4.72,4.036
			c-0.847,0.538-1.68,1.066-2.495,1.584c-0.413,0.248-0.806,0.521-1.223,0.739c-0.423,0.208-0.84,0.415-1.251,0.618
			c-0.822,0.404-1.621,0.798-2.395,1.179c-0.804,0.307-1.581,0.604-2.326,0.89c-0.752,0.264-1.441,0.603-2.151,0.769
			c-0.701,0.188-1.366,0.366-1.991,0.533c-0.623,0.167-1.206,0.322-1.745,0.466c-0.55,0.099-1.055,0.19-1.511,0.273
			c-1.82,0.309-2.861,0.485-2.861,0.485s1.017-0.28,2.795-0.77c0.444-0.118,0.936-0.248,1.471-0.389
			c0.522-0.186,1.087-0.386,1.689-0.6c1.205-0.428,2.57-0.879,3.989-1.551c0.717-0.314,1.463-0.642,2.235-0.981
			c0.736-0.409,1.498-0.832,2.28-1.267c0.391-0.217,0.787-0.437,1.188-0.659c0.396-0.231,0.764-0.517,1.152-0.777
			c0.774-0.525,1.565-1.062,2.37-1.608c1.472-1.264,3.1-2.469,4.446-3.964c1.473-1.347,2.713-3.099,4.032-4.734
			c1.041-1.687,2.288-3.42,3.091-5.279c0.986-1.788,1.58-3.711,2.293-5.519c0.252-0.939,0.499-1.863,0.741-2.767
			c0.117-0.453,0.267-0.895,0.354-1.344c0.078-0.452,0.156-0.898,0.232-1.338c0.153-0.882,0.302-1.74,0.446-2.57
			c0.065-0.841,0.13-1.653,0.191-2.434c0.168-1.563,0.146-2.994,0.153-4.271c0.005-0.64,0.009-1.238,0.012-1.791
			c-0.042-0.555-0.081-1.064-0.117-1.523C294.056,85.06,293.985,84.007,293.985,84.007z"/>
	</g>
</g>
<path fill="none" stroke="#010101" stroke-miterlimit="10" d="M350.364,189.715h-49.646c-2.205,0-3.995-1.792-3.995-3.996v-45.137
	c0-2.205,1.79-3.995,3.995-3.995h49.646c2.205,0,3.995,1.791,3.995,3.995v45.137C354.359,187.923,352.569,189.715,350.364,189.715z"
	/>
<path fill="none" stroke="#010101" stroke-miterlimit="10" d="M347.274,155.079h-11.702c-0.644,0-1.168-0.502-1.168-1.125v-10.184
	c0-0.623,0.514-1.125,1.168-1.125h11.691c0.645,0,1.169,0.502,1.169,1.125v10.184C348.433,154.566,347.918,155.079,347.274,155.079z
	"/>
<path fill="none" stroke="#010101" stroke-miterlimit="10" d="M345.026,153.256h-7.117c-0.535,0-0.972-0.437-0.972-0.972v-3.101
	c0-0.535,0.437-0.971,0.972-0.971h7.117c0.534,0,0.971,0.437,0.971,0.971v3.101C345.997,152.819,345.561,153.256,345.026,153.256z"
	/>
<path fill="none" stroke="#010101" stroke-miterlimit="10" d="M345.179,145.997h-1.528c-0.447,0-0.818-0.338-0.818-0.753
	c0-0.415,0.371-0.753,0.818-0.753h1.528c0.448,0,0.818,0.339,0.818,0.753C345.997,145.659,345.627,145.997,345.179,145.997z"/>
<path fill="none" stroke="#010101" stroke-miterlimit="10" d="M339.35,145.997h-1.714c-0.382,0-0.688-0.306-0.688-0.688v-0.065
	c0-0.415,0.338-0.753,0.753-0.753h1.648c0.415,0,0.753,0.339,0.753,0.753l0,0C340.103,145.659,339.765,145.997,339.35,145.997z"/>
<path fill="none" stroke="#010101" stroke-miterlimit="10" d="M311.93,171.07h-7.784c-0.852,0-1.527,0.721-1.527,1.605v10.239
	c0,0.905,0.709,1.647,1.571,1.647h31.438c0.829,0,1.495-0.697,1.495-1.56v-10.404c0-0.84-0.655-1.517-1.452-1.517h-7.87
	c-0.862,0-1.499-0.702-1.499-1.607l-0.007-19.7c0-0.677-0.523-1.233-1.169-1.233h-9.977c-0.83,0-1.496,0.698-1.496,1.561v19.168
	C313.653,170.263,312.879,171.07,311.93,171.07z"/>
<rect x="317.441" y="156.029" fill="none" stroke="#010101" stroke-miterlimit="10" width="4.41" height="6.353"/>
<rect x="327.069" y="175.841" fill="none" stroke="#010101" stroke-miterlimit="10" width="5.61" height="4.126"/>
<rect x="307.477" y="175.841" fill="none" stroke="#010101" stroke-miterlimit="10" width="5.608" height="4.126"/>
</svg>
