<?xml version="1.0" encoding="utf-8"?>
<!-- Generator: Adobe Illustrator 19.0.0, SVG Export Plug-In . SVG Version: 6.00 Build 0)  -->
<svg version="1.1" id="Layer_1" xmlns="http://www.w3.org/2000/svg" xmlns:xlink="http://www.w3.org/1999/xlink" x="0px" y="0px"
	 viewBox="0 0 400 300" style="enable-background:new 0 0 400 300;" xml:space="preserve">
<style type="text/css">
	.st0{fill:none;stroke:#2E328A;stroke-miterlimit:10;}
	.st1{fill:none;stroke:#010101;stroke-miterlimit:10;}
	.st2{fill:none;stroke:#525252;stroke-width:2;stroke-miterlimit:10;}
	.st3{fill:#010101;}
	.st4{font-family:'MyriadPro-Regular';}
	.st5{font-size:2.9019px;}
	.st6{fill:none;stroke:#010101;stroke-width:2;stroke-miterlimit:10;}
	.st7{fill:#2A9A47;stroke:#1F8942;stroke-width:2;stroke-miterlimit:10;}
	.st8{fill:#2AA649;stroke:#1F8942;stroke-width:2;stroke-miterlimit:10;}
	.st9{fill:#FFFFFF;}
	.st10{font-size:1.4509px;}
	.st11{fill:#6BBD45;stroke:#010101;stroke-miterlimit:10;}
	.st12{fill:none;}
	.st13{font-size:48px;}
</style>
<g id="XMLID_5_">
	<ellipse id="XMLID_1_" class="st0" cx="202.9" cy="62.1" rx="38.2" ry="36.6"/>
	<path id="XMLID_6_" class="st0" d="M241,63.5c-10.5,17.5-28.7,17.5-39.6,17.5c-9.6,0-25.2-5.9-36.7-18.9"/>
	<ellipse id="XMLID_2_" class="st0" cx="184.1" cy="98.1" rx="3.7" ry="3.4"/>
	<ellipse id="XMLID_3_" class="st0" cx="221.2" cy="98.1" rx="3.7" ry="3.4"/>
	<path id="XMLID_4_" class="st0" d="M205.3,98.7c0,1.9-1.7,3.4-3.7,3.4c-2.1,0-3.7-1.5-3.7-3.4"/>
</g>
<g id="XMLID_46_">
	<path id="XMLID_55_" class="st1" d="M354.1,232.1h-46.6c-2.1,0-3.7-1.7-3.7-3.8v-43.5c0-2.1,1.7-3.8,3.7-3.8h46.6
		c2.1,0,3.7,1.7,3.7,3.8v43.5C357.9,230.3,356.2,232.1,354.1,232.1z"/>
	<path id="XMLID_54_" class="st1" d="M351.2,198.7h-11c-0.6,0-1.1-0.5-1.1-1.1v-9.8c0-0.6,0.5-1.1,1.1-1.1h11c0.6,0,1.1,0.5,1.1,1.1
		v9.8C352.3,198.2,351.8,198.7,351.2,198.7z"/>
	<path id="XMLID_53_" class="st1" d="M349.1,197h-6.7c-0.5,0-0.9-0.4-0.9-0.9v-3c0-0.5,0.4-0.9,0.9-0.9h6.7c0.5,0,0.9,0.4,0.9,0.9v3
		C350,196.5,349.6,197,349.1,197z"/>
	<path id="XMLID_52_" class="st1" d="M349.2,190h-1.4c-0.4,0-0.8-0.3-0.8-0.7s0.3-0.7,0.8-0.7h1.4c0.4,0,0.8,0.3,0.8,0.7
		S349.7,190,349.2,190z"/>
	<path id="XMLID_51_" class="st1" d="M343.8,190h-1.6c-0.4,0-0.6-0.3-0.6-0.7v-0.1c0-0.4,0.3-0.7,0.7-0.7h1.5c0.4,0,0.7,0.3,0.7,0.7
		l0,0C344.5,189.7,344.2,190,343.8,190z"/>
	<path id="XMLID_50_" class="st1" d="M318.1,214.1h-7.3c-0.8,0-1.4,0.7-1.4,1.5v9.9c0,0.9,0.7,1.6,1.5,1.6h29.5
		c0.8,0,1.4-0.7,1.4-1.5v-10c0-0.8-0.6-1.5-1.4-1.5h-7.4c-0.8,0-1.5-0.7-1.5-1.6l0.1-18.9c0-0.7-0.5-1.2-1.1-1.2h-9.4
		c-0.8,0-1.4,0.7-1.4,1.5v18.5C319.7,213.3,318.9,214.1,318.1,214.1z"/>
	<rect id="XMLID_49_" x="323.2" y="199.6" class="st1" width="4.1" height="6.1"/>
	<rect id="XMLID_48_" x="332.3" y="218.7" class="st1" width="5.3" height="4"/>
	<rect id="XMLID_47_" x="313.9" y="218.7" class="st1" width="5.3" height="4"/>
</g>
<g id="XMLID_157_">
	<path id="XMLID_155_" class="st2" d="M76.2,266.8H52.6c-2.1,0-3.9-1.5-3.9-3.3v-86.3c0-1.8,1.7-3.3,3.9-3.3h23.6
		c2.1,0,3.9,1.5,3.9,3.3v86.3C80.1,265.3,78.4,266.8,76.2,266.8z"/>
	<path id="XMLID_154_" class="st2" d="M62.6,195.3h-3.8c-0.3,0-0.5-0.2-0.5-0.5v-1c0-0.3,0.2-0.5,0.5-0.5h3.8c0.3,0,0.5,0.2,0.5,0.4
		v1C63.1,195.1,62.9,195.3,62.6,195.3z"/>
	<path id="XMLID_153_" class="st2" d="M71.7,195.3h-3.8c-0.3,0-0.5-0.2-0.5-0.5v-1c0-0.3,0.2-0.5,0.5-0.5h3.8c0.3,0,0.5,0.2,0.5,0.4
		v1C72.2,195.1,72,195.3,71.7,195.3z"/>
	<path id="XMLID_152_" class="st2" d="M71.7,203.7h-3.8c-0.3,0-0.5-0.2-0.5-0.5v-1c0-0.3,0.2-0.5,0.5-0.5h3.8c0.3,0,0.5,0.2,0.5,0.4
		v1C72.2,203.5,72,203.7,71.7,203.7z"/>
	<path id="XMLID_151_" class="st2" d="M62.6,203.4h-3.8c-0.3,0-0.5-0.2-0.5-0.5v-1c0-0.3,0.2-0.5,0.5-0.5h3.8c0.3,0,0.5,0.2,0.5,0.4
		v1C63.1,203.2,62.9,203.4,62.6,203.4z"/>
	<path id="XMLID_150_" class="st2" d="M62.6,211h-3.8c-0.3,0-0.5-0.2-0.5-0.5v-1c0-0.3,0.2-0.5,0.5-0.5h3.8c0.3,0,0.5,0.2,0.5,0.4v1
		C63.1,210.8,62.9,211,62.6,211z"/>
	<path id="XMLID_149_" class="st2" d="M71.8,211H68c-0.3,0-0.5-0.2-0.5-0.5v-1c0-0.3,0.2-0.5,0.5-0.5h3.8c0.3,0,0.5,0.2,0.5,0.4v1
		C72.4,210.8,72.1,211,71.8,211z"/>
	<path id="XMLID_148_" class="st2" d="M62.6,218.9h-3.8c-0.3,0-0.5-0.2-0.5-0.5v-1c0-0.3,0.2-0.5,0.5-0.5h3.8c0.3,0,0.5,0.2,0.5,0.5
		v1C63.1,218.7,62.9,218.9,62.6,218.9z"/>
	<path id="XMLID_147_" class="st2" d="M71.8,218.9H68c-0.3,0-0.5-0.2-0.5-0.5v-1c0-0.3,0.2-0.5,0.5-0.5h3.8c0.3,0,0.5,0.2,0.5,0.5v1
		C72.4,218.7,72.1,218.9,71.8,218.9z"/>
	<path id="XMLID_146_" class="st2" d="M62.6,229.5h-3.8c-0.3,0-0.5-0.2-0.5-0.5v-1c0-0.3,0.2-0.5,0.5-0.5h3.8c0.3,0,0.5,0.2,0.5,0.5
		v1C63.1,229.2,62.9,229.5,62.6,229.5z"/>
	<path id="XMLID_145_" class="st2" d="M71.7,229.5h-3.8c-0.3,0-0.5-0.2-0.5-0.5v-1c0-0.3,0.2-0.5,0.5-0.5h3.8c0.3,0,0.5,0.2,0.5,0.5
		v1C72.2,229.2,72,229.5,71.7,229.5z"/>
	<path id="XMLID_144_" class="st2" d="M70.5,244.3H60.1c-0.3,0-0.6-0.2-0.6-0.5v-5.2c0-0.3,0.3-0.5,0.6-0.5h10.4
		c0.3,0,0.6,0.2,0.6,0.5v5.2C71.1,244,70.8,244.3,70.5,244.3z"/>
	<text id="XMLID_143_" transform="matrix(1.0166 0 0 1 60.7934 248.8204)" class="st3 st4 st5">a-b-c-d</text>
	<text id="XMLID_142_" transform="matrix(1.0166 0 0 1 60.7934 248.8204)" class="st6 st4 st5">a-b-c-d</text>
	<polygon id="XMLID_141_" class="st7" points="62.2,223.7 59.2,223.7 60.7,226.3 	"/>
	<polygon id="XMLID_140_" class="st8" points="68.4,226.3 71.4,226.3 69.9,223.7 	"/>
	<text id="XMLID_139_" transform="matrix(1.1702 0 0 1 60.1401 224.9884)" class="st9 st4 st10">O</text>
	<text id="XMLID_138_" transform="matrix(1.1702 0 0 1 69.7406 225.7872)" class="st9 st4 st10">l</text>
	<polygon id="XMLID_137_" class="st7" points="62.2,213.3 59.2,213.3 60.7,216 	"/>
	<polygon id="XMLID_136_" class="st7" points="62.1,205.2 59.2,205.2 60.6,207.8 	"/>
	<polygon id="XMLID_135_" class="st7" points="62.3,197.6 59.3,197.6 60.8,200.3 	"/>
	<polygon id="XMLID_134_" class="st7" points="62.2,189.2 59.2,189.2 60.7,191.8 	"/>
	<polygon id="XMLID_133_" class="st8" points="68.3,215.7 71.3,215.7 69.8,213.1 	"/>
	<polygon id="XMLID_132_" class="st8" points="68.4,207.8 71.4,207.8 69.9,205.2 	"/>
	<polygon id="XMLID_131_" class="st8" points="68.4,200.4 71.4,200.4 69.8,197.7 	"/>
	<polygon id="XMLID_130_" class="st8" points="68.3,191.9 71.1,191.9 69.8,189.3 	"/>
	<text id="XMLID_129_" transform="matrix(1.1702 0 0 1 60.1274 215.0079)" class="st9 st4 st10">O</text>
	<text id="XMLID_128_" transform="matrix(1.1702 0 0 1 60.0571 206.6261)" class="st9 st4 st10">O</text>
	<text id="XMLID_127_" transform="matrix(1.1702 0 0 1 60.2045 198.9718)" class="st9 st4 st10">O</text>
	<text id="XMLID_126_" transform="matrix(1.1702 0 0 1 60.1274 190.4982)" class="st9 st4 st10">O</text>
	<text id="XMLID_125_" transform="matrix(1.1702 0 0 1 69.6127 215.3204)" class="st9 st4 st10">l</text>
	<text id="XMLID_124_" transform="matrix(1.1702 0 0 1 69.7358 207.2101)" class="st9 st4 st10">l</text>
	<text id="XMLID_123_" transform="matrix(1.1702 0 0 1 69.6899 199.9572)" class="st9 st4 st10">l</text>
	<text id="XMLID_122_" transform="matrix(1.1702 0 0 1 69.6127 191.3341)" class="st9 st4 st10">l</text>
	<path id="XMLID_121_" class="st2" d="M62.2,242.7L62.2,242.7c-0.2,0-0.4-0.2-0.4-0.4v-2.2c0-0.2,0.2-0.4,0.4-0.4h0
		c0.2,0,0.4,0.2,0.4,0.4v2.2C62.5,242.5,62.4,242.7,62.2,242.7z"/>
</g>
<g id="XMLID_158_">
	<line id="XMLID_156_" class="st1" x1="135.2" y1="203.5" x2="245" y2="203.3"/>
	<path id="XMLID_160_" class="st11" d="M270.5,203.2l-21.7,11.4c-1.7,0.9-3.9-0.2-3.9-2l0,0l0-17.6l0,0c0-2,2.3-3.2,4.2-2.3
		L270.5,203.2z"/>
</g>
<g id="XMLID_159_">
	<line id="XMLID_162_" class="st1" x1="67.4" y1="163.1" x2="125.3" y2="82.6"/>
	<path id="XMLID_161_" class="st11" d="M138.8,63.8l-2.2,22.6c-0.2,1.8-2.2,2.7-3.7,1.7l0,0l-14.3-10.3h0c-1.6-1.2-1.4-3.6,0.4-4.5
		L138.8,63.8z"/>
</g>
<g id="XMLID_163_">
	<line id="XMLID_165_" class="st1" x1="252" y1="61.9" x2="311.4" y2="61.8"/>
	<path id="XMLID_164_" class="st11" d="M325.3,61.7l-11.7,11.4c-0.9,0.9-2.1-0.2-2.1-2l0,0l0-17.6v0c0-2,1.3-3.2,2.3-2.3L325.3,61.7
		z"/>
</g>
<rect id="XMLID_166_" x="336.5" y="44.5" class="st12" width="42" height="45.5"/>
<text id="XMLID_167_" transform="matrix(1 0 0 1 336.5 78.5796)" class="st4 st13">?</text>
</svg>
