<?xml version="1.0" encoding="utf-8"?>
<!-- Generator: Adobe Illustrator 16.0.0, SVG Export Plug-In . SVG Version: 6.00 Build 0)  -->
<!DOCTYPE svg PUBLIC "-//W3C//DTD SVG 1.1//EN" "http://www.w3.org/Graphics/SVG/1.1/DTD/svg11.dtd">
<svg version="1.1" id="Layer_1" xmlns="http://www.w3.org/2000/svg" xmlns:xlink="http://www.w3.org/1999/xlink" x="0px" y="0px"
	 width="485.875px" height="485.834px" viewBox="0 0 485.875 485.834" enable-background="new 0 0 485.875 485.834"
	 xml:space="preserve">
<path fill="none" stroke="#000000" stroke-width="16" d="M476.796,457.36c0,10.746-9.072,19.457-20.264,19.457H29.342
	c-11.191,0-20.263-8.711-20.263-19.457V28.557C9.079,17.811,18.151,9.1,29.342,9.1h427.19c11.189,0,20.264,8.711,20.264,19.457
	V457.36L476.796,457.36z"/>
<path fill="none" stroke="#000000" stroke-width="7" d="M414.938,420.79c0,3.132-2.538,5.67-5.671,5.67H76.606
	c-3.131,0-5.669-2.538-5.669-5.67V65.127c0-3.131,2.538-5.669,5.669-5.669h332.662c3.133,0,5.669,2.538,5.669,5.669V420.79H414.938z
	"/>
<image display="none" overflow="visible" enable-background="new    " width="500" height="500" xlink:href="images/large.png"  transform="matrix(0.9999 0 0 0.9999 -10.063 -6.5417)">
</image>
<line fill="none" stroke="#000000" stroke-width="2" x1="155.938" y1="184.458" x2="330.938" y2="184.458"/>
<line fill="none" stroke="#000000" stroke-width="2" x1="155.938" y1="297.458" x2="330.938" y2="297.458"/>
<line fill="none" stroke="#000000" stroke-width="2" x1="178.938" y1="184.458" x2="178.938" y2="297.458"/>
<line fill="none" stroke="#000000" stroke-width="2" x1="169.938" y1="184.458" x2="169.938" y2="297.458"/>
<line fill="none" stroke="#000000" stroke-width="2" x1="161.938" y1="184.458" x2="161.938" y2="297.458"/>
<line fill="none" stroke="#000000" stroke-width="2" x1="189.938" y1="184.458" x2="189.938" y2="297.458"/>
<line fill="none" stroke="#000000" stroke-width="2" x1="204.271" y1="184.458" x2="204.271" y2="297.458"/>
<line fill="none" stroke="#000000" stroke-width="2" x1="262.938" y1="184.458" x2="262.938" y2="297.458"/>
<line fill="none" stroke="#000000" stroke-width="2" x1="282.271" y1="184.458" x2="282.271" y2="297.458"/>
<line fill="none" stroke="#000000" stroke-width="2" x1="296.271" y1="184.458" x2="296.271" y2="297.458"/>
<line fill="none" stroke="#000000" stroke-width="2" x1="306.271" y1="184.458" x2="306.271" y2="297.458"/>
<line fill="none" stroke="#000000" stroke-width="2" x1="315.938" y1="184.458" x2="315.938" y2="297.458"/>
<line fill="none" stroke="#000000" stroke-width="2" x1="323.604" y1="184.458" x2="323.604" y2="297.458"/>
<line fill="none" stroke="#000000" stroke-width="2" x1="243.438" y1="184.458" x2="243.438" y2="297.458"/>
<line fill="none" stroke="#000000" stroke-width="2" x1="223.938" y1="184.458" x2="223.938" y2="297.458"/>
<g>
	<path stroke="#000000" stroke-width="2" d="M155.938,318.79c0,3.131,2.538,5.669,5.669,5.669h163.662
		c3.133,0,5.671-2.538,5.671-5.669v-21.331h-175L155.938,318.79L155.938,318.79z"/>
	<path stroke="#000000" stroke-width="2" d="M325.269,161.458H161.607c-3.131,0-5.669,2.538-5.669,5.669v17.331h175v-17.331
		C330.938,163.997,328.399,161.458,325.269,161.458z"/>
</g>
<rect x="155.938" y="184.458" fill="none" stroke="#000000" stroke-width="2" width="175" height="113"/>
</svg>
