<?xml version="1.0" encoding="UTF-8"?>
<!DOCTYPE svg PUBLIC "-//W3C//DTD SVG 1.1//EN" "http://www.w3.org/Graphics/SVG/1.1/DTD/svg11.dtd">
<!-- Creator: CorelDRAW X6 -->
<svg xmlns="http://www.w3.org/2000/svg" xml:space="preserve" width="210mm" height="297mm" version="1.1" style="shape-rendering:geometricPrecision; text-rendering:geometricPrecision; image-rendering:optimizeQuality; fill-rule:evenodd; clip-rule:evenodd"
viewBox="0 0 21000 29700"
 xmlns:xlink="http://www.w3.org/1999/xlink"
 enable-background="new 0 0 100 100">
 <defs>
  <style type="text/css">
   <![CDATA[
    .str0 {stroke:black;stroke-width:7.62}
    .str2 {stroke:#2B2A29;stroke-width:20}
    .str1 {stroke:#2B2A29;stroke-width:400}
    .fil1 {fill:none}
    .fil2 {fill:#2B2A29}
    .fil0 {fill:black}
   ]]>
  </style>
 </defs>
 <g id="Layer_x0020_1">
  <metadata id="CorelCorpID_0Corel-Layer"/>
  <path class="fil0 str0" d="M14975 16561c-1082,-1542 -2868,-2557 -4884,-2557 -2016,0 -3801,1015 -4884,2557 -14,14 -27,27 -27,41 -663,960 -1042,2110 -1042,3355 0,1245 379,2394 1042,3355 14,14 14,27 27,41 1082,1542 2868,2557 4884,2557 2016,0 3801,-1015 4884,-2557 14,-14 27,-27 27,-41 663,-960 1042,-2110 1042,-3355 0,-1245 -379,-2394 -1042,-3355 0,-14 -14,-27 -27,-41zm54 879c257,514 446,1055 541,1637l-541 0 0 -1637zm-4802 -3030l0 271 -271 0 0 -271c41,0 95,0 135,0 41,0 95,0 135,0zm-5073 3030l0 1637 -541 0c95,-582 284,-1136 541,-1637zm0 5032c-257,-514 -446,-1055 -541,-1637l541 0 0 1637zm4802 3030l0 -271 271 0 0 271c-41,0 -95,0 -135,0 -41,0 -95,0 -135,0zm676 -27l0 -446c0,-108 -95,-203 -203,-203l-676 0c-108,0 -203,95 -203,203l0 446c-1650,-162 -3084,-1042 -3991,-2327l0 -2516c0,-108 -95,-203 -203,-203l-785 0c-14,-162 -27,-311 -27,-473 0,-162 14,-311 27,-473l785 0c108,0 203,-95 203,-203l0 -2516c906,-1285 2340,-2164 3991,-2327l0 446c0,108 95,203 203,203l676 0c108,0 203,-95 203,-203l0 -446c1650,162 3084,1042 3991,2327l0 2516c0,108 95,203 203,203l785 0c14,162 27,311 27,473 0,162 -14,311 -27,473l-785 0c-108,0 -203,95 -203,203l0 2516c-906,1285 -2340,2164 -3991,2327zm4938 -4640c-95,582 -284,1136 -541,1637l0 -1637 541 0z"/>
  <path class="fil0" d="M8062 19077c-487,0 -879,392 -879,879 0,487 392,879 879,879 487,0 879,-392 879,-879 0,-487 -392,-879 -879,-879zm0 1353c-257,0 -473,-216 -473,-473 0,-257 216,-473 473,-473 257,0 473,216 473,473 0,257 -216,473 -473,473z"/>
  <path class="fil0" d="M12120 19077c-487,0 -879,392 -879,879 0,487 392,879 879,879 487,0 879,-392 879,-879 0,-487 -392,-879 -879,-879zm0 1353c-257,0 -473,-216 -473,-473 0,-257 216,-473 473,-473 257,0 473,216 473,473 0,257 -216,473 -473,473z"/>
  <rect class="fil1 str1" x="3292" y="2077" width="13594" height="25272" rx="3000" ry="3000"/>
  <circle class="fil2 str2" cx="8062" cy="19956" r="478"/>
  <circle class="fil2 str2" cx="12120" cy="19956" r="478"/>
 </g>
</svg>
