<?xml version="1.0" encoding="utf-8"?>
<!-- Generator: Adobe Illustrator 16.0.0, SVG Export Plug-In . SVG Version: 6.00 Build 0)  -->
<!DOCTYPE svg PUBLIC "-//W3C//DTD SVG 1.1//EN" "http://www.w3.org/Graphics/SVG/1.1/DTD/svg11.dtd">
<svg version="1.1" id="Layer_1" xmlns="http://www.w3.org/2000/svg" xmlns:xlink="http://www.w3.org/1999/xlink" x="0px" y="0px"
	 width="400px" height="400px" viewBox="0 0 79.369 79.37" enable-background="new 0 0 79.369 79.37" xml:space="preserve">
<path d="M16.234,6.904c1.398-1.555,3.293-5.117,7.438-5.117c2.398,0,4.445,1.203,5.887,2.703c1.484,1.535,2.598,3.445,3.551,5.766
	c2.16,5.348,3.352,8.336,3.352,8.344c0.828,2.074-0.188,4.422-2.258,5.258c-2.082,0.82-4.434-0.184-5.266-2.266
	c0-0.012-1.18-2.961-3.332-8.297C24.414,10.705,20.969,3.599,16.234,6.904"/>
<path d="M3.869,53.406c-2.113-0.758-3.211-3.063-2.469-5.168l12.641-35.859c0.844-2.355,2.341-4.229,4.323-4.217
	c1.663-0.013,3.554,1.296,5.272,4.953c-0.025,0.07-1.176-0.201-1.833,1.611L9.029,50.929c-0.59,1.652-2.152,2.699-3.82,2.699
	C4.756,53.628,4.314,53.55,3.869,53.406"/>
<path d="M63.135,72.465c-1.398,1.555-3.292,5.118-7.438,5.118c-2.398,0-4.445-1.204-5.886-2.704
	c-1.484-1.535-2.599-3.445-3.551-5.766c-2.16-5.348-12.885-33.916-12.885-33.924c-0.828-2.074,0.188-4.422,2.258-5.258
	c2.082-0.82,4.434,0.184,5.266,2.266c0,0.012,10.713,28.541,12.865,33.877C54.955,68.665,58.401,75.771,63.135,72.465"/>
<path d="M75.5,25.963c2.113,0.757,3.211,3.062,2.469,5.167l-12.641,35.86c-0.843,2.355-2.34,4.229-4.323,4.218
	c-1.663,0.012-3.553-1.298-5.272-4.954c0.025-0.07,1.177,0.201,1.834-1.611L70.34,28.439c0.59-1.652,2.152-2.699,3.82-2.699
	C74.613,25.74,75.056,25.818,75.5,25.963"/>
</svg>
