<?xml version="1.0" encoding="utf-8"?>
<!-- Generator: Adobe Illustrator 16.0.0, SVG Export Plug-In . SVG Version: 6.00 Build 0)  -->
<!DOCTYPE svg PUBLIC "-//W3C//DTD SVG 1.1//EN" "http://www.w3.org/Graphics/SVG/1.1/DTD/svg11.dtd">
<svg version="1.1" id="Layer_1" xmlns="http://www.w3.org/2000/svg" xmlns:xlink="http://www.w3.org/1999/xlink" x="0px" y="0px"
	 width="316px" height="436.5px" viewBox="0 8.833 316 436.5" enable-background="new 0 8.833 316 436.5" xml:space="preserve">
<path fill="none" stroke="#010101" stroke-width="5" stroke-miterlimit="10" d="M173.924,383.56c0,6.042-4.998,10.939-11.164,10.939
	H22.419c-6.165,0-11.163-4.897-11.163-10.939V71.939C11.256,65.897,16.254,61,22.419,61H162.76c6.166,0,11.164,4.897,11.164,10.939
	V383.56z"/>
<path fill="none" stroke="#010101" stroke-width="5" stroke-miterlimit="10" d="M305.075,380.659
	c0,7.646-6.346,13.841-14.173,13.841h-61.579c-7.827,0-14.173-6.195-14.173-13.841V74.841c0-7.644,6.346-13.841,14.173-13.841
	h61.579c7.827,0,14.173,6.197,14.173,13.841V380.659z"/>
<path fill="none" stroke="#010101" stroke-width="5" stroke-miterlimit="10" d="M307.973,422.913
	c0,10.959-8.884,19.844-19.843,19.844h-55.618c-10.959,0-19.843-8.885-19.843-19.844V31.513c0-10.959,8.884-19.844,19.843-19.844
	h55.618c10.959,0,19.843,8.885,19.843,19.844V422.913z"/>
<path stroke="#010101" stroke-width="3" stroke-miterlimit="10" d="M155.373,19.431H30.668c-4.696,0-8.504,3.807-8.504,8.504V44.15
	c0,4.697,3.808,8.504,8.504,8.504h124.705c4.695,0,8.504-3.807,8.504-8.504V27.935C163.877,23.238,160.068,19.431,155.373,19.431z
	 M158.241,41.062c0,3.131-2.538,5.669-5.669,5.669H33.169c-3.131,0-5.669-2.539-5.669-5.669v-9.826c0-3.131,2.538-5.669,5.669-5.669
	h119.403c3.131,0,5.669,2.538,5.669,5.669V41.062z"/>
<path stroke="#010101" stroke-width="3" stroke-miterlimit="10" d="M155.385,401.799H30.662c-4.696,0-8.504,3.809-8.504,8.505
	v16.089c0,4.697,3.807,8.504,8.504,8.504h124.723c4.696,0,8.504-3.807,8.504-8.504v-16.089
	C163.889,405.607,160.081,401.799,155.385,401.799z M152.831,429.1H33.419c-3.131,0-5.669-2.538-5.669-5.669v-10.15
	c0-3.131,2.538-5.669,5.669-5.669H152.83c3.131,0,5.669,2.538,5.669,5.669v10.15h0.001C158.5,426.562,155.962,429.1,152.831,429.1z"
	/>
<path stroke="#010101" stroke-width="2" stroke-miterlimit="10" d="M289.689,401.771H230.79c-4.696,0-8.504,3.808-8.504,8.504
	v16.117c0,4.696,3.808,8.504,8.504,8.504h58.899c4.696,0,8.505-3.808,8.505-8.504v-16.117
	C298.194,405.579,294.387,401.771,289.689,401.771z M292.75,423.431c0,3.131-2.538,5.669-5.669,5.669h-53.912
	c-3.131,0-5.669-2.538-5.669-5.669v-10.15c0-3.131,2.538-5.669,5.669-5.669h53.912c3.131,0,5.669,2.538,5.669,5.669V423.431z"/>
<path stroke="#010101" stroke-width="2" stroke-miterlimit="10" d="M289.689,19.674h-58.894c-4.696,0-8.504,3.809-8.504,8.505V44.15
	c0,4.697,3.808,8.504,8.504,8.504h58.894c4.696,0,8.505-3.807,8.505-8.504V28.178C298.194,23.482,294.387,19.674,289.689,19.674z
	 M292.5,41.062c0,3.131-2.538,5.669-5.669,5.669H233.17c-3.131,0-5.669-2.539-5.669-5.669v-9.825c0-3.131,2.538-5.669,5.669-5.669
	h53.661c3.131,0,5.669,2.538,5.669,5.669V41.062z"/>
<path fill="none" stroke="#010101" stroke-width="5" stroke-miterlimit="10" d="M157.663,11.499H27.676
	c-10.959,0-19.843,8.884-19.843,19.843v391.571c0,10.959,8.884,19.844,19.843,19.844h129.987c10.958,0,19.842-8.885,19.842-19.844
	V31.342C177.505,20.383,168.621,11.499,157.663,11.499z"/>
<path stroke="#010101" stroke-width="3" stroke-miterlimit="10" d="M160.331,69H24.669C21.538,69,19,71.538,19,74.669v307.162
	c0,3.131,2.538,5.669,5.669,5.669h135.662c3.131,0,5.669-2.538,5.669-5.669V74.669C166,71.538,163.462,69,160.331,69z
	 M127.251,236.002c-5.385,0-9.751-4.365-9.751-9.751c0-5.385,4.366-9.751,9.751-9.751s9.751,4.366,9.751,9.751
	C137.002,231.636,132.636,236.002,127.251,236.002z M148.093,232.303c-3.403,0-6.163-2.76-6.163-6.163
	c0-3.404,2.759-6.163,6.163-6.163c3.404,0,6.163,2.759,6.163,6.163C154.256,229.544,151.497,232.303,148.093,232.303z"/>
<path stroke="#010101" stroke-width="2" stroke-miterlimit="10" d="M292.525,69h-62.356c-3.131,0-5.669,2.538-5.669,5.669v305.162
	c0,3.131,2.538,5.669,5.669,5.669h62.356c3.131,0,5.669-2.538,5.669-5.669V74.669C298.194,71.538,295.656,69,292.525,69z
	 M241.57,233.329c-3.404,0-6.163-2.759-6.163-6.163c0-3.403,2.759-6.163,6.163-6.163c3.403,0,6.162,2.76,6.162,6.163
	C247.732,230.57,244.974,233.329,241.57,233.329z M260.945,236.891c-5.386,0-9.752-4.366-9.752-9.751
	c0-5.386,4.366-9.751,9.752-9.751c5.385,0,9.75,4.365,9.75,9.751C270.695,232.525,266.33,236.891,260.945,236.891z"/>
</svg>
