<?xml version="1.0" encoding="utf-8"?>
<!-- Generator: Adobe Illustrator 16.0.0, SVG Export Plug-In . SVG Version: 6.00 Build 0)  -->
<!DOCTYPE svg PUBLIC "-//W3C//DTD SVG 1.1//EN" "http://www.w3.org/Graphics/SVG/1.1/DTD/svg11.dtd">
<svg version="1.1" id="Layer_1" xmlns="http://www.w3.org/2000/svg" xmlns:xlink="http://www.w3.org/1999/xlink" x="0px" y="0px"
	 width="316px" height="451px" viewBox="0 0 316 451" enable-background="new 0 0 316 451" xml:space="preserve">
<path fill="none" stroke="#010101" stroke-width="3" stroke-miterlimit="10" d="M177.505,422.913
	c0,10.959-8.884,19.843-19.842,19.843H27.676c-10.959,0-19.843-8.884-19.843-19.843V31.342c0-10.959,8.884-19.843,19.843-19.843
	h129.987c10.958,0,19.842,8.884,19.842,19.843V422.913z"/>
<path fill="none" stroke="#010101" stroke-width="5" stroke-miterlimit="10" d="M173.924,383.56c0,6.042-4.998,10.94-11.164,10.94
	H22.419c-6.165,0-11.163-4.898-11.163-10.94V71.939C11.256,65.897,16.254,61,22.419,61H162.76c6.166,0,11.164,4.897,11.164,10.939
	V383.56z"/>
<path fill="none" stroke="#010101" stroke-width="2" stroke-miterlimit="10" d="M163.877,44.15c0,4.697-3.808,8.504-8.504,8.504
	H30.668c-4.696,0-8.504-3.807-8.504-8.504V27.935c0-4.697,3.808-8.504,8.504-8.504h124.705c4.696,0,8.504,3.807,8.504,8.504V44.15z"
	/>
<path fill="none" stroke="#010101" stroke-width="2" stroke-miterlimit="10" d="M163.889,426.392c0,4.697-3.808,8.504-8.504,8.504
	H30.662c-4.697,0-8.504-3.807-8.504-8.504v-16.089c0-4.696,3.808-8.504,8.504-8.504h124.723c4.696,0,8.504,3.808,8.504,8.504
	V426.392z"/>
<path fill="none" stroke="#010101" stroke-width="2" stroke-miterlimit="10" d="M298.194,44.15c0,4.697-3.808,8.504-8.504,8.504
	h-58.894c-4.696,0-8.504-3.807-8.504-8.504V28.178c0-4.696,3.808-8.504,8.504-8.504h58.894c4.696,0,8.504,3.808,8.504,8.504V44.15z"
	/>
<path fill="none" stroke="#010101" stroke-width="2" stroke-miterlimit="10" d="M298.194,426.392c0,4.696-3.808,8.504-8.504,8.504
	h-58.9c-4.696,0-8.504-3.808-8.504-8.504v-16.117c0-4.696,3.808-8.504,8.504-8.504h58.9c4.696,0,8.504,3.808,8.504,8.504V426.392z"
	/>
<path fill="none" stroke="#010101" stroke-width="5" stroke-miterlimit="10" d="M305.075,380.659
	c0,7.645-6.346,13.841-14.173,13.841h-61.579c-7.827,0-14.173-6.196-14.173-13.841V74.841c0-7.644,6.346-13.841,14.173-13.841
	h61.579c7.827,0,14.173,6.197,14.173,13.841V380.659z"/>
<path fill="none" stroke="#010101" stroke-width="2" stroke-miterlimit="10" d="M307.973,422.913
	c0,10.959-8.884,19.843-19.843,19.843h-55.619c-10.958,0-19.842-8.884-19.842-19.843v-391.4c0-10.959,8.884-19.843,19.842-19.843
	h55.619c10.959,0,19.843,8.884,19.843,19.843V422.913z"/>
<path fill="none" stroke="#010101" stroke-miterlimit="10" d="M158.241,41.062c0,3.131-2.538,5.669-5.669,5.669H33.169
	c-3.131,0-5.669-2.539-5.669-5.669v-9.826c0-3.131,2.538-5.669,5.669-5.669h119.403c3.131,0,5.669,2.538,5.669,5.669V41.062z"/>
<path fill="none" stroke="#010101" stroke-miterlimit="10" d="M158.5,423.431c0,3.131-2.538,5.669-5.669,5.669H33.419
	c-3.131,0-5.669-2.538-5.669-5.669v-10.15c0-3.131,2.538-5.669,5.669-5.669h119.411c3.131,0,5.669,2.538,5.669,5.669V423.431z"/>
<path fill="none" stroke="#010101" stroke-miterlimit="10" d="M292.75,423.431c0,3.131-2.538,5.669-5.669,5.669h-53.912
	c-3.131,0-5.669-2.538-5.669-5.669v-10.15c0-3.131,2.538-5.669,5.669-5.669h53.912c3.131,0,5.669,2.538,5.669,5.669V423.431z"/>
<path fill="none" stroke="#010101" stroke-miterlimit="10" d="M292.5,41.062c0,3.131-2.538,5.669-5.669,5.669H233.17
	c-3.131,0-5.669-2.539-5.669-5.669v-9.825c0-3.131,2.538-5.669,5.669-5.669h53.661c3.131,0,5.669,2.538,5.669,5.669V41.062z"/>
<path fill="none" stroke="#010101" stroke-width="2" stroke-miterlimit="10" d="M166,381.831c0,3.131-2.538,5.669-5.669,5.669
	H24.669c-3.131,0-5.669-2.538-5.669-5.669V74.669C19,71.538,21.538,69,24.669,69h135.662c3.131,0,5.669,2.538,5.669,5.669V381.831z"
	/>
<path fill="none" stroke="#010101" stroke-width="2" stroke-miterlimit="10" d="M298.194,379.831c0,3.131-2.538,5.669-5.669,5.669
	h-62.356c-3.131,0-5.669-2.538-5.669-5.669V74.669c0-3.131,2.538-5.669,5.669-5.669h62.356c3.131,0,5.669,2.538,5.669,5.669V379.831
	z"/>
<circle fill="none" stroke="#010101" stroke-width="2" stroke-miterlimit="10" cx="127.251" cy="226.251" r="9.751"/>
<circle fill="none" stroke="#010101" stroke-width="2" stroke-miterlimit="10" cx="260.945" cy="227.14" r="9.751"/>
<circle fill="none" stroke="#010101" stroke-width="2" stroke-miterlimit="10" cx="148.093" cy="226.14" r="6.163"/>
<circle fill="none" stroke="#010101" stroke-width="2" stroke-miterlimit="10" cx="241.57" cy="227.166" r="6.163"/>
</svg>
