<?xml version="1.0" encoding="UTF-8"?>
<!DOCTYPE svg PUBLIC "-//W3C//DTD SVG 1.1//EN" "http://www.w3.org/Graphics/SVG/1.1/DTD/svg11.dtd">
<!-- Creator: CorelDRAW X7 -->
<svg xmlns="http://www.w3.org/2000/svg" xml:space="preserve" width="650px" height="1415px" version="1.1" style="shape-rendering:geometricPrecision; text-rendering:geometricPrecision; image-rendering:optimizeQuality; fill-rule:evenodd; clip-rule:evenodd"
viewBox="0 0 650 1415"
 xmlns:xlink="http://www.w3.org/1999/xlink">
 <defs>
  <style type="text/css">
   <![CDATA[
    .str0 {stroke:#2B2A29;stroke-width:2.3622}
    .fil1 {fill:#2B2A29}
    .fil0 {fill:#2B2A29;fill-rule:nonzero}
   ]]>
  </style>
 </defs>
 <g id="Layer_x0020_1">
  <metadata id="CorelCorpID_0Corel-Layer"/>
  <path class="fil0" d="M22 1147c10,71 49,134 103,180 55,47 125,76 198,76l0 0c79,1 158,-30 218,-82 56,-49 94,-117 97,-194 0,-1 0,-11 -1,-29 -1,-75 -5,-275 -5,-417 0,-89 1,-163 3,-236 2,-71 3,-140 3,-224 0,-45 -11,-97 -53,-138 -42,-41 -116,-71 -242,-71l0 0c-11,0 -15,0 -25,0l-5 0 0 0c-108,4 -179,26 -225,57 -59,39 -76,94 -76,144 0,83 3,155 7,228 4,75 8,151 8,240 0,142 -4,342 -6,417 0,18 0,28 0,29 0,2 0,7 0,12 1,4 1,7 1,7l0 1zm95 189c-56,-48 -96,-114 -107,-188 0,-1 0,-4 0,-8 -1,-5 -1,-11 -1,-13 0,-1 0,-11 0,-30 2,-73 6,-272 6,-416 0,-90 -4,-165 -8,-240 -3,-73 -7,-145 -7,-228 0,-54 19,-112 82,-154 47,-32 120,-55 231,-59l0 0 5 0c10,0 14,0 25,0l0 0c129,0 206,32 250,75 45,43 57,99 57,146 0,82 -2,153 -3,224 -2,72 -4,145 -4,236 0,144 4,343 6,416 0,19 0,29 0,30 -2,81 -42,151 -101,203 -61,54 -143,86 -225,84l0 1c-75,0 -149,-30 -206,-79z"/>
  <path class="fil1 str0" d="M326 127c16,0 29,13 29,29 0,16 -13,29 -29,29 -16,0 -29,-13 -29,-29 0,-16 13,-29 29,-29z"/>
  <path class="fil1" d="M324 1187c-125,-3 -216,-80 -230,-179 0,-2 -1,-12 -1,-14 0,-3 8,-184 8,-306 0,-121 -4,-190 -5,-306 -3,-59 44,-163 230,-163 186,0 231,104 228,163 -1,116 -5,185 -5,306 0,122 8,303 8,306 0,2 -1,12 -1,14 -14,99 -107,177 -232,179zm7 -797l-4 0 0 -26c-1,1 -2,2 -4,3 -1,1 -3,2 -4,2l0 -4c2,-1 4,-2 6,-4 2,-1 3,-3 4,-4l2 0 0 33zm5 127l0 4 -22 0c0,-1 0,-2 1,-3 0,-2 1,-3 2,-4 2,-2 3,-4 6,-5 3,-3 6,-6 7,-7 1,-2 2,-4 2,-5 0,-2 -1,-3 -2,-4 -1,-2 -3,-2 -4,-2 -2,0 -4,0 -5,2 -1,1 -2,2 -2,5l-4 -1c0,-3 1,-5 3,-7 2,-2 5,-2 8,-2 3,0 5,0 7,2 2,2 3,4 3,7 0,1 0,2 -1,4 0,1 -1,2 -2,4 -2,1 -4,3 -7,5 -2,3 -4,4 -4,5 -1,0 -2,1 -2,2l16 0zm-22 126l4 -1c1,2 2,4 3,5 1,1 2,2 4,2 2,0 3,-1 5,-2 1,-2 2,-3 2,-5 0,-2 -1,-4 -2,-5 -1,-1 -3,-2 -5,-2 -1,0 -2,0 -3,1l1 -4c0,0 0,0 0,0 2,0 4,0 5,-1 1,-1 2,-3 2,-4 0,-2 0,-3 -1,-4 -1,-1 -3,-2 -4,-2 -2,0 -3,1 -4,2 -1,1 -2,2 -2,4l-4 0c0,-3 1,-5 3,-7 2,-1 4,-2 7,-2 1,0 3,1 5,1 1,1 2,2 3,3 1,2 1,3 1,5 0,1 0,2 -1,4 -1,1 -2,2 -3,2 2,1 3,2 4,3 1,2 2,3 2,6 0,2 -1,5 -3,7 -2,2 -5,3 -8,3 -3,0 -6,-1 -7,-3 -2,-1 -3,-4 -4,-6zm14 138l0 -8 -14 0 0 -3 15 -22 3 0 0 22 5 0 0 3 -5 0 0 8 -4 0zm0 -11l0 -15 -10 15 10 0zm-34 131l10 -25 4 0 10 25 -4 0 -3 -7 -10 0 -3 7 -4 0zm8 -10l8 0 -2 -7c-1,-2 -2,-4 -2,-5 -1,1 -1,3 -2,4l-2 8zm18 10l0 -25 4 0 0 22 12 0 0 3 -16 0zm20 0l0 -25 3 0 0 22 13 0 0 3 -16 0zm-120 112l0 -37 11 0c4,0 7,1 9,3 2,1 3,4 3,7 0,3 0,5 -1,6 -2,2 -3,3 -6,4 1,0 1,0 2,1 1,1 1,1 2,3l9 13 -6 0 -7 -9c-2,-3 -3,-5 -4,-6 -2,-1 -3,-1 -5,-1l-1 0 0 16 -6 0zm6 -21l4 0c3,0 5,0 6,-1 1,-1 2,-3 2,-5 0,-2 -1,-3 -2,-4 -1,-1 -3,-1 -6,-1l-4 0 0 11zm25 21l0 -37 23 0 0 5 -17 0 0 11 17 0 0 5 -17 0 0 12 18 0 0 4 -24 0zm30 0l0 -37 5 0 13 16 14 -16 5 0 0 37 -6 0 0 -29 -13 15 -12 -15 0 29 -6 0zm48 -18c0,2 1,4 1,5 1,2 2,4 3,5 2,1 3,2 5,3 2,1 4,1 6,1 2,0 3,0 5,-1 2,-1 3,-2 5,-3 1,-1 2,-3 3,-5 1,-1 1,-3 1,-5 0,-2 0,-4 -1,-6 -1,-1 -2,-3 -3,-4 -2,-2 -3,-3 -5,-3 -2,-1 -3,-2 -5,-2 -2,0 -4,1 -6,2 -2,0 -3,1 -5,3 -1,1 -2,3 -3,4 0,2 -1,4 -1,6zm-5 0c0,-3 0,-5 1,-8 1,-2 3,-4 4,-6 2,-2 5,-3 7,-4 2,-1 5,-2 8,-2 2,0 5,1 7,2 3,1 5,2 7,4 2,2 3,4 4,6 1,3 2,5 2,8 0,2 -1,5 -2,7 -1,3 -2,5 -4,6 -2,2 -4,4 -7,5 -2,1 -5,1 -7,1 -3,0 -6,0 -8,-1 -3,-1 -5,-3 -7,-5 -1,-1 -3,-3 -4,-6 -1,-2 -1,-5 -1,-7zm56 18l0 -32 -14 0 0 -5 33 0 0 5 -14 0 0 32 -5 0zm23 0l0 -37 23 0 0 5 -17 0 0 11 16 0 0 5 -16 0 0 12 17 0 0 4 -23 0zm-175 57l0 6c-2,1 -4,2 -7,3 -2,0 -4,1 -6,1 -2,0 -4,-1 -6,-1 -2,-1 -4,-2 -6,-3 -3,-2 -5,-4 -6,-7 -2,-3 -3,-6 -3,-9 0,-2 1,-5 2,-7 1,-3 2,-5 4,-6 2,-2 4,-4 7,-5 2,-1 5,-1 8,-1 2,0 4,0 6,1 2,0 5,1 7,2l0 6c-2,-2 -5,-3 -7,-3 -2,-1 -4,-1 -6,-1 -4,0 -8,1 -11,4 -3,3 -4,6 -4,10 0,4 1,8 4,10 3,3 7,5 11,5 2,0 4,-1 6,-2 3,0 5,-1 7,-3zm10 -10c0,2 0,4 1,6 1,1 2,3 3,4 1,2 3,3 5,3 2,1 3,2 5,2 2,0 4,-1 6,-2 2,0 3,-1 4,-3 2,-1 3,-3 4,-4 0,-2 1,-4 1,-6 0,-2 -1,-3 -1,-5 -1,-2 -2,-3 -4,-5 -1,-1 -2,-2 -4,-3 -2,-1 -4,-1 -6,-1 -2,0 -3,0 -5,1 -2,1 -3,2 -5,3 -1,1 -2,3 -3,5 -1,1 -1,3 -1,5zm-6 0c0,-2 1,-5 2,-7 1,-3 2,-5 4,-6 2,-2 4,-4 7,-5 2,-1 5,-1 7,-1 3,0 6,0 8,1 2,1 5,3 6,5 2,1 4,4 5,6 1,2 1,5 1,7 0,3 0,5 -1,8 -1,2 -3,4 -4,6 -2,2 -5,3 -7,4 -2,1 -5,2 -8,2 -2,0 -5,-1 -7,-2 -3,-1 -5,-2 -7,-4 -2,-2 -3,-4 -4,-6 -1,-3 -2,-5 -2,-8zm46 19l0 -38 5 0 25 30 0 -30 5 0 0 38 -5 0 -24 -29 0 29 -6 0zm53 0l0 -33 -14 0 0 -5 33 0 0 5 -14 0 0 33 -5 0zm24 0l0 -38 11 0c3,0 6,1 8,3 2,2 3,4 3,8 0,2 0,4 -1,6 -1,1 -3,2 -6,3 1,0 2,1 2,1 1,1 1,2 2,3l9 14 -6 0 -7 -10c-1,-3 -3,-5 -4,-6 -1,0 -3,-1 -4,-1l-2 0 0 17 -5 0zm5 -21l4 0c3,0 5,-1 6,-2 1,-1 2,-2 2,-4 0,-2 -1,-4 -2,-5 -1,-1 -3,-1 -6,-1l-4 0 0 12zm29 2c0,2 1,4 1,6 1,1 2,3 3,4 2,2 3,3 5,3 2,1 4,2 6,2 1,0 3,-1 5,-2 2,0 3,-1 5,-3 1,-1 2,-3 3,-4 1,-2 1,-4 1,-6 0,-2 0,-3 -1,-5 -1,-2 -2,-3 -3,-5 -2,-1 -3,-2 -5,-3 -2,-1 -4,-1 -5,-1 -2,0 -4,0 -6,1 -2,1 -3,2 -5,3 -1,1 -2,3 -3,5 0,1 -1,3 -1,5zm-5 0c0,-2 0,-5 1,-7 1,-3 3,-5 4,-6 2,-2 5,-4 7,-5 2,-1 5,-1 8,-1 2,0 5,0 7,1 3,1 5,3 7,5 2,1 3,4 4,6 1,2 2,5 2,7 0,3 -1,5 -2,8 -1,2 -2,4 -4,6 -2,2 -4,3 -7,4 -2,1 -5,2 -7,2 -3,0 -6,-1 -8,-2 -3,-1 -5,-2 -7,-4 -1,-2 -3,-4 -4,-6 -1,-3 -1,-5 -1,-8zm46 19l0 -38 5 0 0 33 18 0 0 5 -23 0zm-254 -765c0,-5 1,-9 4,-11 3,-3 6,-5 10,-5 3,0 6,1 8,2 2,2 4,3 5,6 1,2 2,5 2,8 0,3 -1,6 -2,8 -1,3 -3,4 -5,6 -3,1 -5,2 -8,2 -2,0 -5,-1 -7,-3 -3,-1 -4,-3 -5,-5 -2,-3 -2,-5 -2,-8zm4 0c0,4 1,7 3,9 2,2 4,3 7,3 3,0 6,-1 8,-3 2,-2 3,-5 3,-9 0,-3 -1,-5 -2,-6 0,-2 -2,-4 -3,-5 -2,-1 -4,-1 -6,-1 -2,0 -5,1 -7,3 -2,2 -3,5 -3,9zm30 15l0 -30 4 0 16 24 0 -24 4 0 0 30 -4 0 -16 -24 0 24 -4 0zm195 -15c0,-5 2,-9 4,-11 3,-3 7,-5 11,-5 3,0 5,1 7,2 3,2 4,3 6,6 1,2 1,5 1,8 0,3 0,6 -2,8 -1,3 -3,4 -5,6 -2,1 -5,2 -7,2 -3,0 -6,-1 -8,-3 -2,-1 -4,-3 -5,-5 -1,-3 -2,-5 -2,-8zm5 0c0,4 0,7 2,9 2,2 5,3 8,3 3,0 5,-1 7,-3 2,-2 3,-5 3,-9 0,-3 0,-5 -1,-6 -1,-2 -2,-4 -4,-5 -1,-1 -3,-1 -5,-1 -3,0 -5,1 -7,3 -2,2 -3,5 -3,9zm30 15l0 -30 20 0 0 3 -16 0 0 10 14 0 0 3 -14 0 0 14 -4 0zm25 0l0 -30 21 0 0 3 -17 0 0 10 15 0 0 3 -15 0 0 14 -4 0zm-298 18l-4 0c-17,1 -32,16 -32,34 0,18 15,33 34,34l1 0 78 0c0,0 0,0 0,0 0,0 0,0 0,0 19,0 34,-16 34,-34 0,-19 -15,-34 -34,-34 0,0 -1,0 -2,0l-75 0zm0 130l-4 0c-17,1 -32,16 -32,34 0,18 15,33 34,34l1 0 78 0c0,0 0,0 0,0 0,0 0,0 0,0 19,0 34,-16 34,-34 0,-19 -15,-34 -34,-34 0,0 -1,0 -2,0l-75 0zm0 128l-4 0c-17,1 -32,15 -32,33 0,19 15,34 34,34l1 0 78 0c0,0 0,0 0,0 0,0 0,0 0,0 19,0 34,-15 34,-34 0,-18 -15,-34 -34,-34 0,0 -1,0 -2,1l-75 0zm3 128l-4 0c-18,1 -32,15 -32,33 0,18 15,33 33,34l1 0 77 0c0,0 0,0 0,0 0,0 1,0 1,0 18,0 33,-15 33,-34 0,-18 -15,-33 -34,-33 0,0 -1,0 -2,0l-73 0zm0 126l-4 0c-18,1 -32,15 -32,33 0,18 15,33 33,34l1 0 77 0c0,0 0,0 0,0 0,0 1,0 1,0 18,0 33,-15 33,-34 0,-18 -15,-33 -34,-33 0,0 -1,0 -2,0l-73 0zm313 -512l4 0c17,1 32,16 32,34 0,18 -15,33 -34,34l-1 0 -78 0c0,0 0,0 0,0 0,0 0,0 0,0 -19,0 -34,-16 -34,-34 0,-19 15,-34 34,-34 0,0 1,0 2,0l75 0zm0 130l4 0c17,1 32,16 32,34 0,18 -15,33 -34,34l-1 0 -78 0c0,0 0,0 0,0 0,0 0,0 0,0 -19,0 -34,-16 -34,-34 0,-19 15,-34 34,-34 0,0 1,0 2,0l75 0zm0 128l4 0c17,1 32,15 32,33 0,19 -15,34 -34,34l-1 0 -78 0c0,0 0,0 0,0 0,0 0,0 0,0 -19,0 -34,-15 -34,-34 0,-18 15,-34 34,-34 0,0 1,0 2,1l75 0zm-3 128l4 0c18,1 32,15 32,33 0,18 -15,33 -33,34l-1 0 -77 0c0,0 0,0 0,0 0,0 0,0 -1,0 -18,0 -33,-15 -33,-34 0,-18 15,-33 34,-33 0,0 1,0 2,0l73 0zm0 126l4 0c18,1 32,15 32,33 0,18 -15,33 -33,34l-1 0 -77 0c0,0 0,0 0,0 0,0 0,0 -1,0 -18,0 -33,-15 -33,-34 0,-18 15,-33 34,-33 0,0 1,0 2,0l73 0z"/>
 </g>
</svg>
