<?xml version="1.0" encoding="utf-8"?>
<!-- Generator: Adobe Illustrator 16.0.0, SVG Export Plug-In . SVG Version: 6.00 Build 0)  -->
<!DOCTYPE svg PUBLIC "-//W3C//DTD SVG 1.1//EN" "http://www.w3.org/Graphics/SVG/1.1/DTD/svg11.dtd">
<svg version="1.1" id="Layer_1" xmlns="http://www.w3.org/2000/svg" xmlns:xlink="http://www.w3.org/1999/xlink" x="0px" y="0px"
	 width="564.979px" height="559.063px" viewBox="15.578 143.334 564.979 559.063"
	 enable-background="new 15.578 143.334 564.979 559.063" xml:space="preserve">
<path fill="none" stroke="#000000" stroke-width="18" stroke-miterlimit="10" d="M549.175,693.393H46.98
	c-12.353,0-22.372-10.019-22.372-22.372V174.857c0-12.354,10.019-22.372,22.372-22.372h502.195
	c12.354,0,22.371,10.019,22.371,22.372v496.164C571.546,683.375,561.529,693.393,549.175,693.393z"/>
<path fill="none" stroke="#000000" stroke-width="16" stroke-miterlimit="10" d="M59.333,152.485"/>
<path fill="none" stroke="#000000" stroke-width="16" stroke-miterlimit="10" d="M58.361,152.485"/>
<path fill="none" stroke="#000000" stroke-width="16" stroke-miterlimit="10" d="M167.301,109.687"/>
<path fill="none" stroke="#000000" stroke-width="16" stroke-miterlimit="10" d="M59.333,152.485"/>
<path fill="none" stroke="#000000" stroke-width="16" stroke-miterlimit="10" d="M32.876,113.578"/>
<path fill="none" stroke="#000000" stroke-miterlimit="10" d="M-75.091,156.376"/>
<path fill="none" stroke="#000000" stroke-miterlimit="10" d="M26.262-335.8"/>
<path fill="none" stroke="#000000" stroke-width="16" stroke-miterlimit="10" d="M25.29,169.994"/>
<path fill="none" stroke="#000000" stroke-miterlimit="10" d="M910.429,628.127"/>
<path fill="none" stroke="#000000" stroke-width="16" stroke-miterlimit="10" d="M502.876,629.098"/>
<path fill="none" stroke="#000000" stroke-miterlimit="10" d="M95.323-195.735"/>
<path fill="none" stroke="#000000" stroke-width="16" stroke-miterlimit="10" d="M95.323,216.682"/>
<path stroke="#000000" stroke-width="5" stroke-miterlimit="10" d="M314.078,193.63h-31.903c-1.848,0-3.307-1.459-3.307-3.307
	V178.65c0-1.848,1.459-3.307,3.307-3.307h31.903c1.85,0,3.309,1.459,3.309,3.307v11.673
	C317.386,192.171,315.927,193.63,314.078,193.63z"/>
<path fill="none" stroke="#000000" stroke-width="10" stroke-miterlimit="10" d="M469.027,216.682H129.172
	c-18.675,0-33.849,15.174-33.849,33.85V595.25c0,18.677,15.174,33.85,33.849,33.85h339.855c18.676,0,33.85-15.173,33.85-33.85
	V250.532C502.876,231.856,487.703,216.682,469.027,216.682z"/>
<path stroke="#000000" stroke-width="5" stroke-miterlimit="10" d="M356.488,260.453H239.766c-13.132,0-23.831,10.699-23.831,23.831
	V558.58c0,13.132,10.7,23.83,23.831,23.83h116.722c13.131,0,23.83-10.698,23.83-23.83V284.284
	C380.318,271.152,369.619,260.453,356.488,260.453z M344.523,539.223c0.098,5.544-4.378,9.921-9.923,9.921h-72.075
	c-5.544,0-9.921-4.474-9.921-9.921v-81.705c0-5.545,4.475-9.922,9.921-9.922h72.075c5.546,0,9.923,4.475,9.923,9.922V539.223z
	 M344.621,389.332c0,5.06-4.086,9.145-9.144,9.145h-73.729c-5.058,0-9.143-4.086-9.143-9.145v-83.357
	c0-5.059,4.085-9.145,9.143-9.145h73.729c5.058,0,9.144,4.086,9.144,9.145V389.332z"/>
</svg>
