<?xml version="1.0" encoding="UTF-8"?>
<!DOCTYPE svg PUBLIC "-//W3C//DTD SVG 1.1//EN" "http://www.w3.org/Graphics/SVG/1.1/DTD/svg11.dtd">
<!-- Creator: CorelDRAW X7 -->
<svg xmlns="http://www.w3.org/2000/svg" xml:space="preserve" width="995px" height="1576px" version="1.1" style="shape-rendering:geometricPrecision; text-rendering:geometricPrecision; image-rendering:optimizeQuality; fill-rule:evenodd; clip-rule:evenodd"
viewBox="0 0 998 1582"
 xmlns:xlink="http://www.w3.org/1999/xlink">
 <defs>
  <style type="text/css">
   <![CDATA[
    .fil1 {fill:#2B2A29}
    .fil0 {fill:#2B2A29;fill-rule:nonzero}
   ]]>
  </style>
 </defs>
 <g id="Layer_x0020_1">
  <metadata id="CorelCorpID_0Corel-Layer"/>
  <path class="fil0" d="M582 109c4,0 8,1 12,3 3,1 6,4 9,7 2,3 4,6 5,10 0,3 0,7 0,11l0 0 0 1c0,0 0,1 0,1l0 0 -1 1 0 0c0,0 0,1 0,1l0 0 0 0c0,1 0,1 0,2l0 0c-1,0 -1,1 -1,1l0 0 0 0 0 1 0 0 0 0 0 0 0 0 0 0 0 0 0 0 0 0 -1 1 0 0 0 0 0 0 0 0 0 0 0 0 0 0 0 1 0 0 0 0 0 0 0 0 0 0 0 0 0 0 0 0 -1 1 0 0 0 0 0 0 0 0 0 0 0 0 0 0 0 0 0 0 0 0 0 0 0 1 0 0 0 0 0 0 0 0 0 0 0 0 0 0 -1 0 0 0 0 1 0 0 0 0 0 0 0 0 0 0 0 0 0 0 0 0 0 0 0 0 0 0 0 1 0 0 0 0 0 0 0 0 -1 0 0 0 0 0 0 0 0 0 0 0 0 0 0 1 0 0 0 0 0 0 0 0 0 0 0 0 0 0 0 0 0 0 -1 0 0 0 0 0 0 1 0 0 0 0 0 0 0 0 0 0 0 0 0 0 0 0 0 0 0 0 0 0 0 0 0 1 -1 0 0 0 0 0 0 0 0 0 0 0 0 0 0 0 0 0 0 0 0 0 0 0 0 0 0 1 0 0 0 0 -1 0 0 0 0 0 0 0 0 0 0 0 0 0 0 0 0 0 0 0 0 0 0 0 0 1 0 0 0 0 0 0 -1 0 0 0 0 0 0 0 0 0 0 0 0 0 0 0 0 0 0 0 0 1 0 0 0 0 0 0 0 0 0 0 -1 0 0 0 0 0 0 0 0 0 0 0 0 0 0 0 0 0 0 0 0 1 0 0 0 0 0 0 -1 0 0 0 0 0 0 0 0 0 0 0 0 0c-3,3 -6,5 -10,6l0 0c-4,2 -8,2 -11,2l0 0 0 0 0 0 -1 0 0 0 0 0 0 0 0 0 0 0 0 0 0 0 0 0c-1,0 -2,0 -3,0l0 0 0 0c-3,0 -5,-1 -7,-2 -4,-1 -7,-3 -9,-6 -2,-3 -4,-6 -5,-10 -1,-3 -2,-7 -1,-11 0,-4 1,-8 3,-12 2,-3 5,-7 8,-10 3,-2 6,-5 10,-6 4,-2 8,-3 12,-3zm16 20c1,1 3,2 4,3 0,-1 0,-1 0,-2 -1,-3 -2,-5 -4,-8 -2,-2 -4,-4 -7,-5 -3,-1 -6,-2 -9,-2 -3,0 -7,1 -10,2 -3,1 -6,3 -8,6 -3,2 -5,5 -7,8 -1,3 -2,6 -3,10 0,3 0,6 1,9 1,2 3,5 4,7 2,2 4,3 6,4 0,0 0,-1 -1,-1l0 0c0,-3 -1,-6 0,-9 0,-3 1,-6 2,-9 2,-3 4,-5 6,-7 2,-3 5,-4 8,-6 3,-1 6,-1 9,-1 3,0 6,0 9,1z"/>
  <path class="fil0" d="M418 474c0,-3 1,-5 3,-7 1,-2 2,-4 4,-6 4,-2 8,-4 12,-4 3,0 6,1 8,2 2,2 4,4 4,6 1,1 1,3 1,4 0,1 0,3 -1,4 0,2 -1,3 -1,5 -1,1 -2,2 -3,4 -2,2 -4,4 -7,5 -2,2 -5,2 -8,2 -3,0 -6,-1 -8,-2 -2,-1 -3,-3 -4,-6 -1,-2 -1,-5 0,-7zm4 0c0,2 0,3 0,5 0,1 1,2 1,3 2,3 4,4 8,4 3,0 6,-1 8,-4 2,-1 3,-2 4,-3 1,-2 1,-4 2,-6 0,-2 0,-4 0,-6 0,-2 -1,-4 -3,-5 -1,-1 -3,-1 -5,-1 -3,0 -6,1 -9,3 -1,1 -3,2 -3,4 -1,1 -2,3 -3,6zm29 15c1,-5 3,-11 4,-16 1,-5 2,-10 3,-15 2,0 3,0 5,0 2,4 4,8 5,12 2,4 4,8 6,12 1,-4 2,-8 3,-12 1,-4 2,-8 3,-12 1,0 2,0 4,0 -2,5 -3,10 -4,15 -1,5 -2,11 -4,16 -1,0 -2,0 -4,0 -2,-4 -4,-8 -5,-12 -2,-4 -4,-8 -6,-12 -1,4 -2,8 -3,12 -1,4 -2,8 -3,12 -1,0 -3,0 -4,0zm33 -10c0,-1 0,-2 1,-3 4,0 8,0 12,0 -1,1 -1,2 -1,3 -4,0 -8,0 -12,0zm16 -5c1,-3 2,-5 3,-7 1,-2 3,-4 5,-5 3,-3 7,-4 11,-4 3,0 6,1 8,2 2,1 3,3 4,5 0,2 0,3 0,4 0,2 0,3 -1,5 0,1 0,2 -1,4 -1,1 -1,3 -2,4 -2,2 -4,4 -7,5 -3,1 -5,2 -8,2 -3,0 -6,-1 -8,-2 -2,-1 -3,-3 -4,-6 0,-2 0,-5 0,-7zm5 0c-1,2 -1,3 -1,5 1,1 1,2 2,3 1,3 4,4 7,4 3,0 6,-1 8,-4 1,-1 2,-2 3,-3 1,-2 2,-4 2,-5 1,-3 1,-5 0,-7 0,-2 -1,-3 -2,-4 -2,-1 -3,-2 -5,-2 -3,0 -6,1 -9,3 -1,1 -2,2 -3,4 -1,2 -2,4 -2,6zm27 15c2,-5 3,-11 4,-15 1,-5 2,-11 4,-16 6,1 13,1 20,1 0,1 0,2 -1,3 -5,0 -11,0 -16,0 -1,2 -1,3 -1,5 -1,1 -1,3 -1,4 4,0 9,0 14,0 0,2 -1,3 -1,4 -5,0 -9,0 -14,0 -1,2 -1,4 -2,7 0,2 -1,4 -2,6 -1,0 -2,0 -4,1zm27 -1c1,-5 2,-9 3,-14 1,-5 2,-10 4,-15 6,0 13,0 20,0 0,1 -1,2 -1,3 -5,0 -11,0 -16,0 -1,2 -1,3 -1,5 -1,1 -1,3 -1,4 4,0 9,1 14,1 0,1 -1,2 -1,3 -5,0 -9,0 -14,0 -1,2 -1,4 -2,7 0,2 -1,4 -1,6 -2,0 -3,0 -4,0z"/>
  <path class="fil1" d="M506 280c-2,3 -3,5 -4,8l-23 87 0 0c-10,29 27,41 49,24 11,-8 12,-17 16,-29l10 -36 0 0 0 0 9 -34 0 -1c1,-4 2,-8 3,-12 3,-13 -14,-25 -32,-23 -10,1 -21,6 -28,16zm9 144c9,0 18,-3 25,-8 7,-5 12,-12 14,-20l24 -82c0,-2 0,-1 1,-6 1,-5 0,-16 -4,-23 -6,-10 -11,-20 -22,-24 -5,-2 -10,-3 -15,-3 -5,0 -10,1 -15,3 -9,3 -17,8 -22,16 -2,3 -4,6 -5,10l0 0 -23 86c0,1 0,2 -1,3 0,0 0,3 0,4 -1,4 0,8 1,11 3,10 15,21 22,28 5,3 12,5 20,5z"/>
  <path class="fil1" d="M160 1028l-25 99c-12,-30 -17,-65 -14,-102l39 3zm596 25c-20,94 -100,150 -177,197 -2,4 -7,9 -10,12 -4,2 -6,4 -11,7l-7 5c-6,5 -12,9 -19,13 -8,5 -17,11 -27,16l0 0 0 0c-4,2 -7,4 -11,6 -4,2 -8,4 -12,6 -20,9 -41,18 -62,24 13,-4 25,-9 38,-15 45,-20 88,-49 125,-83 38,-35 71,-77 96,-123 23,-44 40,-91 47,-141 6,-44 4,-85 -4,-123 -9,-40 -25,-76 -47,-107 -3,-5 -7,-10 -10,-14 -4,-5 -8,-10 -12,-14 -26,-28 -58,-51 -95,-67 8,3 15,6 22,9l1 0 0 0c16,8 32,17 46,27 15,11 28,22 40,35 2,2 3,3 4,5 1,0 2,1 2,2l0 1 1 1c5,6 10,13 15,20 5,6 9,13 14,20 1,2 1,3 2,4 31,91 73,177 51,277zm-197 36c-1,2 -1,3 -2,5 2,-2 4,-5 6,-8 1,-3 3,-5 4,-8 -3,3 -6,7 -8,11zm-12 29l-1 1 0 0c-6,7 -12,14 -18,20 -7,8 -14,15 -22,21 -26,23 -56,42 -88,56 -31,13 -64,21 -97,22 -20,1 -39,0 -57,-4 -19,-4 -36,-9 -52,-17l-2 -1 0 0c-3,-2 -7,-4 -10,-5 -4,-3 -7,-5 -11,-7 -6,-4 -11,-8 -17,-13 -5,-4 -10,-9 -15,-14 -20,-20 -35,-46 -44,-75 -9,-27 -13,-58 -9,-91 3,-33 12,-66 27,-97 16,-31 37,-60 62,-86 26,-26 57,-48 90,-64 31,-15 66,-25 101,-28 36,-3 69,1 99,12 31,11 57,28 78,51 8,8 14,16 20,25 6,9 11,18 15,28 8,19 14,40 16,61 3,21 2,43 -2,66 -2,13 -5,25 -8,37 -4,12 -9,24 -14,35 -1,4 -3,7 -4,9 -2,3 -3,6 -5,9 -4,7 -7,14 -11,20 -4,6 -9,12 -13,18l0 0 -1 1 0 0 0 0 0 0 0 0 0 0 0 0 0 1 0 0 0 0 0 0 0 0 0 0 0 0 0 0 0 0 0 0 0 0 0 0 -1 0 0 0 0 0 0 0 0 0 0 1 0 0 0 0 0 0 0 0 0 0 0 0 0 0 0 0 0 0 0 0 0 0 0 0 0 0 0 0 0 0 0 0 0 0 0 0 0 0 0 0 0 0 0 0 0 1 -1 0 0 0 0 0 0 0 0 0 0 0 0 0 0 0 0 0 0 0 0 0 0 0 0 0 0 0 0 0 0 0 0 0 0 0 0 0 0 0 0 0 0 0 0 0 0 0 0 0 0 0 0 0 0 1 0 0 0 0 0 0 0 0 0 0 0 0 0 0 0 0 0 0 0 0 -1 0 0 0 0 0 0 0 0 0 0 0 0 0 0 0 0 0 0 0 0 0 0 0 0 0 0 0 0 0 0 0 0 0 0 0 0 0 0 0 0 1 0 0 0 0 0 0 0 0 0 0 0 0 0 0 0 0 0 0 0 0 0 0 0 0 0 0 0 0 0 0 0 0 0 0 0 0 0 0 0 0 0 0 0 0 0 0 0 0 0 0 0 0 -1 0 0 0 0 0 0 0 0 0 0 0 0 0 0 0 0 0 0 0 0 0 0 0 0 0 0 1 0 0 0 0 0 0 0 0 0 0 0 0 0 0 0 0 0 0 0 0 0 0 0 0 0 0 0 0 0 0 0 0 0 0 0 0 0 0 0 0 0 0 0 0 0 0 0 0 0 0 0 0 0 0 0 0 0 0 0 0 0 0 0 0 0 0 0 0 0 0 0 0 0 0 0 0 0 0 -1 0 0 0 0 0 0 1 0 0 0 0 0 0 0 0 0 0 0 0 -1 1 0 0 0 0 0 0 0 0 0 0 0 1 0 0 0 0 0 0 0 0 0 0 0 0 -1 0 0 1 0 0zm-220 -59c7,-7 17,-11 27,-11 2,0 4,0 6,1 1,0 1,0 1,0 0,1 0,1 1,1 0,1 0,1 0,1 2,3 4,7 5,11 0,3 0,7 0,12 -1,4 -3,8 -5,12 -2,5 -6,8 -9,11 -4,3 -8,6 -12,7 -4,2 -8,3 -13,3 -1,0 -3,0 -4,-1 -2,0 -4,0 -5,-1 -1,0 -2,-1 -3,-1 -3,-5 -4,-11 -3,-18 1,-10 6,-20 14,-27zm568 -1039c-104,-15 -199,-16 -279,-11 -84,5 -152,18 -195,27 -23,6 -41,17 -56,38 -15,21 -29,52 -44,100 -10,33 -31,110 -53,196 -39,148 -83,323 -91,353 28,-21 58,-40 89,-55 46,-22 96,-36 148,-40 4,0 8,0 12,-1 4,0 8,0 12,0l0 0 1 0 1 0c25,0 50,2 74,7 24,4 47,12 69,22l0 0 0 0c17,8 33,17 48,28 15,10 28,22 41,35 1,1 2,3 3,4 14,-71 35,-163 56,-253 38,-155 77,-307 86,-341 8,-28 16,-47 23,-61 7,-14 14,-22 22,-29 7,-5 16,-11 26,-16 2,-1 5,-2 7,-3zm-363 1453c16,-15 32,-51 46,-91l0 0 1 -3 0 0 1 -3 0 -1 1 -2 0 -1 1 -1 0 0 0 -3 1 -1 0 -2 1 -1c7,-23 14,-46 20,-65 3,-13 7,-24 9,-33 -5,-1 -12,-1 -20,-1 0,0 -1,0 -2,0l0 0 0 0c-2,0 -5,0 -8,1 -4,0 -9,1 -14,3 -1,4 -4,10 -6,15 -1,3 -3,5 -3,7l0 0 0 0 0 0 0 0 0 0 0 0 0 1 -1 0c-7,16 -14,33 -21,50 -6,16 -11,31 -14,43l0 0 0 0 0 0 0 0 0 0 0 1 0 0 -1 0 0 0 0 0 0 0 0 0 0 0 0 0 0 0 0 0 0 0 0 0 0 0 0 1 0 0 0 0 0 0 0 0 0 0 0 0 0 0 0 0 0 0 0 0 0 0 0 0 0 0 0 1 0 0 0 0 0 0 0 0 0 0 0 0 0 0 0 0 0 0 0 0 0 1 0 0 0 0 0 0 0 0 0 0 0 0 0 0 0 0 0 0 0 0 0 0 0 0 0 0 0 0 0 1 0 0 0 0 0 0 -1 0 0 0 0 0 0 0 0 1 0 0 0 0 0 0 0 0 0 0 0 0 0 0 0 0 0 0 0 0 0 0 0 0 0 0 0 1 0 0 0 0 0 0 0 0 0 0 0 0 0 0 0 0 0 0 0 0 0 0 0 0 0 0 0 1 0 0 0 0 0 0 0 0 0 0 0 0 0 0 0 0 0 0 0 0 0 0 0 0 0 0 0 0 0 1 0 0 0 0 0 0 0 0 0 0 0 0c-4,21 -4,56 9,78l0 0 1 1 0 0zm87 -205c-3,9 -6,20 -10,32 -5,20 -12,44 -20,69l0 0 -1 3 0 0 -2 3 0 0 -1 3 0 0 -1 4 0 0 -1 3 0 0 -1 3 0 0 -1 3c-14,38 -29,72 -46,87 18,23 51,54 73,73 9,8 18,15 25,19 3,2 6,4 8,5l0 0 0 0 0 0 0 0 0 0 0 0 0 0 0 0 0 0 0 0 1 0 0 0c0,0 1,0 1,0 1,1 1,1 1,1l1 0 0 0 0 0 0 0 0 0 0 0 0 0 0 0 0 0c8,-1 16,-3 23,-7 9,-5 17,-11 23,-17 20,-22 38,-50 49,-82 1,-3 2,-6 3,-9l0 0 2 -7c3,-12 5,-24 6,-36 1,-12 1,-23 -1,-35 -7,-50 -88,-93 -116,-107l-2 -2 0 0c-3,-1 -6,-3 -9,-4 -1,0 -3,-1 -4,-2zm18 2c28,15 112,60 119,113 3,21 2,43 -3,64 28,-20 51,-48 71,-82 21,-36 38,-79 53,-128 14,-46 17,-99 13,-150 -5,-56 -19,-110 -39,-147l0 0c-12,-27 -92,-107 -123,-138l0 0c15,30 29,63 39,96 11,38 17,76 17,112 0,9 -1,17 -1,25 -1,7 -3,14 -4,20 -9,36 -24,68 -55,102 -29,31 -73,64 -140,103 2,-1 4,-1 6,-1l1 0 0 0 0 0c2,0 5,0 7,0l0 0 0 0 0 0c3,0 6,0 10,0 2,1 5,1 7,2l0 0 0 0c1,0 2,0 3,1l3 1 0 0 0 0 0 0 0 0 0 0 0 0 0 0 0 0 0 0 2 0c0,1 1,1 1,1l0 0 0 0c1,0 1,1 2,1l0 0c3,1 6,3 9,4l0 0 2 1zm114 186c-2,6 -4,11 -5,16 -12,32 -30,62 -51,84 -6,6 -14,13 -24,18 -8,4 -17,7 -26,8 0,0 -1,0 -2,-1 -15,-1 -174,-13 -294,-24 -63,-6 -114,-12 -129,-16 -21,-6 -43,-17 -66,-32 -23,-15 -46,-32 -70,-52 -4,-3 -8,-7 -12,-11 -4,-3 -7,-6 -10,-10l0 0 0 0 0 -1 0 0 -6 -6 1 0c-24,-32 -28,-64 -31,-85l0 -1c0,-1 -1,-3 -1,-4l0 0c0,-1 0,-2 0,-3l0 0 0 -2 0 0 0 0 0 0 0 0 0 0 0 0 0 -5 0 0c0,-13 2,-29 4,-45 4,-21 9,-42 14,-61 -14,-22 -24,-48 -32,-75 -7,-27 -11,-55 -11,-85 0,-6 0,-12 0,-17 1,-6 1,-12 2,-18 4,-49 19,-97 41,-142 23,-46 55,-89 92,-126 11,-10 23,-21 35,-31l1 -4 0 0c3,-15 50,-201 91,-357 23,-86 43,-163 54,-196 15,-48 28,-80 44,-102 17,-22 35,-33 60,-39l0 0c43,-10 111,-23 195,-28 84,-6 185,-4 296,14l0 0 0 0 1 0 0 0c13,2 27,8 35,18 1,1 2,3 3,4 1,2 3,4 4,6l0 0 0 0 0 0 0 0c8,11 18,27 26,44 6,12 11,25 12,36 3,15 5,34 6,58 1,24 0,52 -5,84 -4,27 -26,140 -52,267 -33,162 -72,348 -84,404 19,38 34,92 39,148 4,52 1,106 -14,153 -15,49 -32,92 -53,129 -21,37 -46,66 -78,88zm-220 26l0 0 -1 -1 0 0 0 0 0 0 -1 0 0 0c-80,8 -383,-31 -446,-41l-3 -1 0 0 -2 0 -2 0 0 0 -1 0 -1 -1 0 0 -2 0 0 0c1,1 3,3 4,4 4,4 8,7 12,11 23,19 47,37 69,51 23,14 44,25 65,31 14,4 65,10 128,16 101,10 233,20 278,23 -9,-6 -20,-15 -32,-26 -22,-20 -47,-43 -65,-66zm-23 -174c-4,2 -8,4 -12,6 -3,2 -7,4 -12,6 -25,12 -51,22 -78,29 -113,30 -239,12 -324,-75 -7,-7 -14,-15 -20,-24 -5,-6 -10,-13 -15,-20 -4,17 -9,36 -12,55 -3,17 -4,33 -4,46l0 0c1,1 2,1 4,1l0 0 2 1 0 0c71,18 333,49 469,48l0 0c4,0 7,0 10,0l2 0 1 0 0 0 0 0 0 -1 0 0 0 0 0 -1 0 0 0 0 0 0 0 -1 0 0 1 -1 0 0 0 0 0 0 0 0 0 -1 0 -1 0 0 0 0 0 0 1 -1 0 0 0 0 0 0 0 -1 0 0 0 -1 0 0 0 0 0 0 0 -1 1 0 0 0 0 -1 0 0 0 0 0 -1 0 0 0 0c9,-27 21,-55 32,-80l0 0 0 0 0 0 0 0 0 0 0 0c1,-2 2,-5 4,-8 1,-2 1,-4 2,-6 -8,6 -16,11 -24,17 -9,6 -19,11 -28,16l0 0 0 0zm-477 30l0 -1 0 1 0 0c0,2 1,3 1,5l0 0c3,22 8,56 34,88l2 0 0 0c78,14 294,39 416,45 14,0 22,0 42,-1 0,0 0,-1 0,-1l-1 -1c-12,-22 -13,-59 -9,-80l0 0 0 0 0 0 0 0 0 0 0 0 0 0 0 0 0 -1 0 0 0 0 0 0 0 0 0 0 0 0 0 0 0 0 0 0 0 0 0 0 0 0 0 0 0 0 0 0 0 0 0 0 0 -1 0 0 0 0 0 0 0 0 0 0 0 0 0 0 0 0 0 0 0 0 0 0 0 0 0 0 0 0 0 0 0 0 0 0 0 -1 0 0 0 0 0 0 0 0 0 0 0 0 0 0 0 0 0 0 0 0 0 0 1 0 0 0 0 0 0 0 0 0 0 -1 0 0 0 0 0 0 0 0 0 0 0 0 0 0 0 0 0 0 0 0 0 0 0 0 0 0 0 0 0 0 0 -1 0 0 0 0 0 0 0 0 0 0 0 0 0 0 0 0 0 0 0 0 0 0 0 0 0 0 0 0 0 0 0 -1 0 0 0 0 0 0 0 0 0 0c-128,3 -399,-30 -473,-46l0 0 -3 -1 0 0 -2 0c-2,-1 -4,-1 -6,-2l0 0 -2 0zm186 -126c15,7 31,13 48,16 17,4 36,5 55,4 33,-1 65,-9 95,-22 32,-13 61,-32 87,-54 8,-7 15,-14 22,-21 6,-6 12,-13 17,-20l0 0 0 0 0 0 0 0 0 0 0 0 0 0 0 0 0 0 0 0 0 0 0 0 0 0 0 0 0 0 0 0 0 0 0 0 0 0 0 0 0 0 0 0 0 0 0 0 0 0 0 0 0 0 0 0 0 0 0 0 0 0 0 0 0 0 0 0 0 0 0 0 0 0 0 0 0 0 0 0 0 0 0 0 0 0 0 0 0 0 0 0 0 0 0 0 0 0 0 0 0 0 0 0 0 0 0 0 0 0 0 0 0 0 0 0 0 0 0 0 0 0 0 0 0 0 0 0 0 0 0 0 0 0 0 0 0 0 0 0 0 0 0 0 0 0 0 0 0 0 0 0 0 0 0 0 0 0 0 0 0 0 0 0 0 0 0 0 0 0 0 0 0 0 0 0 0 0 0 0 0 0c-3,-4 -6,-8 -7,-13 -2,-5 -2,-10 -2,-15 1,-5 3,-11 5,-15 2,-5 6,-10 10,-13 4,-4 9,-7 14,-9 5,-3 10,-4 16,-4 1,0 3,0 4,1l0 0 0 0 0 0 1 0 0 0 0 0 0 0 0 0 0 0 0 0 0 0 0 0 0 0 0 0 0 0 0 0 0 0 0 0 0 0 0 0 0 0 0 0 0 0 0 0 0 0 0 0 0 0 0 0 0 0 0 0 0 0 0 0 0 0 0 0 0 0 0 0 0 0 0 0 0 0 0 0 0 0 0 0 0 0 0 0 0 0 0 0 0 0 1 0 0 0 0 0 0 0 0 0 0 0 0 0 0 0 0 0 0 0 0 0 0 0 0 0 0 0 0 0 0 0 0 0 0 0 0 0 0 0 0 0 0 0 0 0 0 0 0 0 0 0 0 0 0 0 0 0 0 0 0 0 0 0 0 0 0 0 0 0 0 0 0 0 0 0 0 0 0 0 0 0 0 0 1 0 0 0c4,-11 8,-22 12,-33 3,-11 6,-23 8,-35 4,-23 5,-44 2,-65 -2,-21 -7,-40 -15,-58 -16,-7 -33,-12 -51,-14 -18,-3 -37,-4 -56,-2 -35,3 -68,13 -99,28 -33,16 -63,37 -88,63 -2,2 -4,4 -6,6 -2,1 -3,3 -5,5l-23 90 -2 4 -1 0 -33 0 0 0c-3,6 -5,12 -6,17 -2,6 -4,13 -6,19l30 25 1 1 0 2 -27 104 -2 8zm101 141c47,-3 93,-15 137,-34 45,-20 87,-48 124,-83 38,-34 70,-75 95,-121 23,-43 39,-90 46,-139 6,-43 4,-83 -4,-121 -8,-39 -24,-74 -46,-105 -3,-5 -6,-9 -10,-14 -4,-4 -8,-9 -12,-13 -25,-28 -57,-50 -93,-66l0 0c-35,-15 -74,-23 -116,-24 -4,0 -8,0 -11,0 -4,0 -8,1 -13,1 -43,4 -85,14 -125,31 -42,17 -81,41 -116,70l-7 5 1 -1c-10,8 -20,17 -29,26 -37,36 -68,78 -90,124 -22,44 -37,91 -41,140 -1,6 -1,11 -2,17 0,6 0,11 0,17 0,29 4,57 11,84 7,27 18,52 32,74 5,9 11,17 16,25 6,7 13,15 19,22l0 0c61,63 147,90 234,85zm534 -423c14,-63 51,-241 83,-397 26,-127 48,-240 52,-267 5,-31 6,-59 5,-83 -1,-23 -3,-43 -5,-57 -2,-11 -7,-23 -13,-35 -7,-16 -17,-32 -24,-42l0 0 0 0 -1 0 0 0 0 -1 0 0 0 0 0 0 0 0 0 0 0 0 0 0 0 0 0 0 0 0 0 0 0 0 0 0 0 0 0 0 0 0 -1 0 0 0 0 0 0 0 0 0 0 0 0 0 0 0 0 0 0 0 0 0 0 0 0 -1 0 0 0 0 0 0 0 0 0 0 -1 0 0 0 0 0 0 0 0 0 0 0 0 0 0 0 0 0 0 0 0 0 0 0 0 0 0 0 0 0 0 0 0 0 0 0 0 0 -1 0 0 0 0 0 0 0 0 0 0 0 0 0 0 0 0 0 0 -1 0 0 0 0 0 0 0 0 0 0c-8,-3 -17,0 -24,4l0 0c-49,29 -58,102 -71,151 -33,131 -101,396 -129,544 0,1 -2,12 -5,22l-2 12 0 0 0 0 0 1 1 2 0 0c3,3 6,6 10,10 32,32 64,64 94,98l1 1 0 0 1 1 0 0 1 1 0 1 1 0 1 1 0 0 1 1 0 0 1 1 0 0 1 1 0 0 0 1 1 1 0 0 1 1 0 0 1 1 0 0 1 1 0 0 1 1 0 0 1 1 0 0 0 1 1 1 0 0 1 1 0 0 0 0 1 1 0 1 0 0 1 1 0 0 1 1 0 0 1 1 0 0 0 1 1 0 0 1 1 0 0 1 0 0 0 0 1 1 0 0 1 1 0 0 0 1c1,1 2,2 2,2l1 1 0 0 0 1 1 1 0 0 0 0 1 1 0 0 0 0 1 1 0 1 0 0 1 1 0 0 0 0 0 1 1 0 0 0 0 1 0 0 0 0 0 0zm-136 -186c28,-148 96,-413 129,-544 14,-52 21,-114 66,-150l0 0 0 0c9,-6 20,-12 31,-11l0 0 0 0 0 0 0 0 1 0 0 0 -1 0 0 0c-2,-3 -5,-6 -9,-9 -9,-5 -14,-6 -22,-7 -6,0 -13,2 -19,6 -9,4 -18,9 -25,15 -7,6 -14,14 -21,27 -7,13 -14,32 -21,60 -10,34 -49,185 -86,340 -23,93 -44,188 -58,260l0 0c4,6 8,11 13,17 4,7 9,14 14,21 0,1 1,2 2,4l2 -7c2,-11 4,-21 4,-22zm-459 286l0 0 -22 -20 -55 -50 0 1 -3 0 -37 -2 31 26 52 45 0 0c11,1 23,0 34,0zm115 45c0,5 -2,10 -5,14 -3,5 -6,9 -10,13 -4,3 -9,6 -14,8 -4,2 -9,3 -15,3 -1,0 -3,-1 -5,-1 -2,0 -4,-1 -6,-1 -3,-1 -5,-2 -8,-4 -2,-1 -4,-3 -6,-6 -4,-3 -6,-7 -7,-12 -2,-5 -2,-10 -2,-15 1,-6 2,-11 5,-16 2,-4 6,-9 10,-13 4,-3 9,-7 14,-9 5,-2 10,-3 16,-3 5,0 10,1 15,3 4,3 8,6 12,10 0,0 0,0 0,1 1,0 1,1 1,1 3,4 5,8 5,13 1,4 1,9 0,14zm-232 -122l35 2 25 -99c-13,14 -24,29 -34,45 -10,17 -19,34 -26,52zm65 -106l0 0 0 0 0 -1 0 1z"/>
 </g>
</svg>
