<?xml version="1.0" encoding="utf-8"?>
<!-- Generator: Adobe Illustrator 16.0.0, SVG Export Plug-In . SVG Version: 6.00 Build 0)  -->
<!DOCTYPE svg PUBLIC "-//W3C//DTD SVG 1.1//EN" "http://www.w3.org/Graphics/SVG/1.1/DTD/svg11.dtd">
<svg version="1.1" id="Layer_1" xmlns="http://www.w3.org/2000/svg" xmlns:xlink="http://www.w3.org/1999/xlink" x="0px" y="0px"
	 width="566.929px" height="566.93px" viewBox="14.176 137.489 566.929 566.93"
	 enable-background="new 14.176 137.489 566.929 566.93" xml:space="preserve">
<path fill="none" stroke="#000000" stroke-width="18" stroke-miterlimit="10" d="M548.73,694.838H46.535
	c-12.354,0-22.371-10.02-22.371-22.373V176.302c0-12.354,10.018-22.372,22.371-22.372H548.73c12.354,0,22.371,10.019,22.371,22.372
	v496.163C571.101,684.818,561.083,694.838,548.73,694.838z"/>
<path fill="none" stroke="#000000" stroke-miterlimit="10" d="M312.263-711.8"/>
<path fill="none" stroke="#000000" stroke-miterlimit="10" d="M273.984,120.611"/>
<path fill="none" stroke="#000000" stroke-width="12" stroke-miterlimit="10" d="M502.431,630.543"/>
<path fill="none" stroke="#000000" stroke-miterlimit="10" d="M381.322-571.734"/>
<image display="none" overflow="visible" enable-background="new    " width="3546" height="3546" xlink:href="BF47E3BF.jpeg"  transform="matrix(0.2332 0 0 0.2332 170.2515 -368.4436)">
</image>
<path stroke="#000000" stroke-width="0.25" stroke-miterlimit="10" d="M357.015,263.357H240.292
	c-13.131,0-23.83,10.699-23.83,23.832v274.294c0,13.131,10.699,23.83,23.83,23.83h116.723c13.131,0,23.83-10.602,23.83-23.83
	V287.188C380.845,274.055,370.146,263.357,357.015,263.357z M252.16,420.752c0-1.165,1.459-2.084,3.307-2.084h31.904
	c1.848,0,3.307,0.92,3.307,2.084v7.358c0,1.104-1.459,2.085-3.307,2.085h-31.904c-1.848,0-3.307-0.92-3.307-2.085V420.752z
	 M344.078,540.668c0.098,5.543-4.377,9.92-9.922,9.92h-72.074c-5.545,0-9.922-4.475-9.922-9.92v-81.705
	c0-5.545,4.475-9.922,9.922-9.922h72.074c5.545,0,9.922,4.475,9.922,9.922V540.668z M344.078,428.11
	c0.098,1.104-1.459,2.085-3.307,2.085h-31.904c-1.848,0-3.307-0.92-3.307-2.085v-7.358c0-1.165,1.459-2.085,3.307-2.085h31.904
	c1.848,0,3.307,0.92,3.307,2.085V428.11z M344.175,390.777c0,5.059-4.086,9.143-9.143,9.143h-73.73
	c-5.057,0-9.143-4.084-9.143-9.143v-83.358c0-5.057,4.086-9.143,9.143-9.143h73.73c5.057,0,9.143,4.086,9.143,9.143V390.777z"/>
</svg>
